<svg width="163" height="169" viewBox="0 0 163 169" fill="none" xmlns="http://www.w3.org/2000/svg">
<path d="M119.581 25.5975L119.539 25.6162C119.539 25.6162 125.912 24.7169 131.594 27.6418C134.51 29.1438 136.792 31.8622 137.332 34.9091C138.054 38.9908 136.346 42.7119 136.346 42.7119C133.165 36.3545 127.961 35.3065 125.809 35.1548C125.501 35.1541 125.175 35.1492 124.829 35.1405C123.75 35.1541 122.757 35.2369 121.824 35.3699C117.701 36.1188 114.67 38.5555 112.617 40.9244C111.131 42.6391 109.991 44.6193 109.095 46.704C107.691 49.9623 106.443 53.6753 104.749 57.5269C99.8023 68.7789 87.5471 66.7508 87.5079 58.1818C87.2703 55.2152 87.9084 49.6346 93.624 42.3437C97.9769 36.3464 106.605 27.2133 119.581 25.5975ZM90.6847 38.5897C82.4951 48.6693 80.7033 56.3533 80.7033 56.3533C78.5944 63.0963 76.218 76.6389 87.113 85.173C91.2208 88.3903 96.7623 89.947 102.199 89.3163L102.282 89.3064C107.073 88.2572 116.789 84.502 118.472 71.2536C118.868 68.1414 118.694 64.9895 118.121 61.896C118.077 61.6578 118.032 61.4202 117.987 61.1832C117.89 60.6689 117.809 60.1838 117.736 59.7111C117.73 59.6869 117.724 59.6682 117.719 59.6433C117.091 56.4659 117.225 53.8563 117.511 52.0477C117.769 49.3846 119.117 44.8283 125.352 45.0118C125.732 45.023 126.081 45.0652 126.41 45.1256L126.412 45.1181C126.461 45.1306 126.504 45.148 126.552 45.1616C127.177 45.2929 127.712 45.5112 128.169 45.8016C134.349 49.0997 129.454 58.7459 129.454 58.7459C129.439 58.7944 129.428 58.828 129.428 58.828L129.422 58.8274C129.016 59.8853 128.468 61.0334 127.74 62.2872C123.453 69.6708 123.416 75.4081 123.837 78.3411H123.836C123.836 78.3411 123.9 78.8256 124.045 79.5327L124.022 79.5321C124.489 82.4378 125.885 84.5617 125.885 84.5617C126.588 85.7116 127.472 86.6993 128.492 87.5345C135.31 93.112 148.181 91.8998 153.42 87.1309C160.247 80.9171 157.322 73.5989 147.468 71.5589C146.755 71.4109 146.112 71.2231 145.503 71.0135C144.683 70.5558 143.938 70.0178 143.402 69.2385C142.806 68.374 142.576 67.3652 142.422 66.3932C141.614 61.3076 142.512 56.2656 144.94 52.2591C147.105 48.6849 150.394 45.9869 152.767 42.562C155.139 39.137 156.528 34.4775 154.494 30.1202C151.817 24.386 144.703 21.8572 138.641 20.9616C138.134 20.887 137.609 20.8118 137.081 20.7377C134.632 20.4386 129.485 20.0157 123.021 20.6221C122.951 20.6407 122.874 20.6494 122.804 20.6687C122.699 20.6681 122.596 20.6731 122.492 20.6743C122.247 20.6986 121.987 20.7371 121.739 20.7651C118.813 21.1663 107.889 23.0992 98.411 30.438C96.6559 31.9313 93.3279 34.9663 90.6847 38.5897Z" fill="#BCBCE1"/>
<path d="M31.9192 131.055C38.6222 124.383 60.3195 123.332 73.8888 117.242C82.094 113.203 82.1288 107.543 81.0734 103.966C80.3134 101.39 78.3842 98.9873 75.662 97.4263C67.7939 92.9136 58.3237 97.3094 54.7358 100.93C54.7128 100.949 54.6892 100.96 54.6655 100.981C52.8426 102.599 48.4002 108.921 45.9336 112.517L45.9224 112.522C45.9224 112.522 44.6524 114.482 43.1561 116.169C40.5831 118.847 37.9138 121.494 32.2045 120.892C30.5181 120.714 29.4273 120.21 28.7707 119.513C28.0193 118.898 26.0323 116.665 29.759 112.346C29.7794 112.322 29.8025 112.298 29.8234 112.274C29.922 112.16 30.0189 112.048 30.1261 111.932L30.128 111.934C30.5043 111.535 30.9421 111.132 31.4513 110.729C31.9284 110.315 32.6672 109.729 33.5049 109.028C34.3818 108.296 35.1568 107.476 35.752 106.556C36.1282 105.975 36.4709 105.315 36.7103 104.595C38.2714 99.2933 32.5341 97.2173 30.7382 96.7061C30.4132 96.6134 30.2172 96.5724 30.2172 96.5724C27.452 95.8404 16.8405 94.1412 6.12459 106.982C1.39859 113.04 0.53815 118.073 0.53815 118.073L0.504567 118.066C0.503385 118.072 0.502141 118.078 0.500462 118.083C0.192668 119.411 0.0590141 120.802 0.122451 122.225C0.268481 125.478 1.32888 130.146 6.00649 131.546C6.06918 131.565 6.12142 131.583 6.18094 131.602C7.21416 131.83 8.26442 131.9 9.2651 131.87C11.1202 131.814 12.868 131.372 14.4366 130.7C20.6144 128.051 21.0432 125.53 24.0277 124.073C24.0277 124.073 27.6425 121.923 29.309 123.75L29.3049 123.753C29.6572 124.061 29.9286 124.512 30.0478 125.169C30.2969 126.628 27.9053 128.553 25.2804 130.195C25.1951 130.241 25.1154 130.275 25.025 130.331C22.4945 131.903 18.5426 133.592 17.1819 134.158C15.18 134.868 11.7614 136.262 8.36523 138.494C4.53381 141.012 1.97562 144.654 1.46906 148.924C-0.00243225 167.123 20.2184 167.037 20.2184 167.037C20.4674 167.026 20.6025 167.016 20.6025 167.016C42.5136 167.016 41.4594 149.816 46.0375 140.435C48.1222 136.164 50.664 134.486 52.8147 133.925L52.8489 133.916C56.5562 132.96 60.6827 136.206 59.6889 139.354C58.7504 142.327 56.9095 144.825 55.3596 146.538C54.0679 147.967 52.9024 149.478 51.975 151.116C50.3742 153.941 48.8909 157.757 49.5408 161.513C50.725 165.691 54.4702 168.929 62.2879 167.797C77.1596 165.645 80.1934 160.859 80.6492 155.856C80.801 152.197 78.2392 150.743 76.4282 150.174C75.6371 149.925 74.8143 149.834 74.0107 149.831C71.3489 149.823 62.0939 149.187 66.8112 140.435C67.427 139.293 67.8884 138.251 68.223 137.3C68.5147 136.47 68.6708 135.597 68.6814 134.707C68.6621 133.789 68.5327 132.968 68.3101 132.24C68.2858 132.161 68.261 132.083 68.2348 132.007C68.187 131.865 68.1366 131.725 68.0812 131.591C68.0576 131.532 68.0321 131.475 68.0078 131.418C67.0022 129.117 65.0356 127.835 63.1431 127.125C63.0349 127.09 62.9254 127.055 62.8172 127.021C62.222 126.86 61.643 126.724 61.0808 126.615C60.8189 126.588 60.6634 126.584 60.6634 126.584L60.7275 126.554C47.8852 124.273 43.2574 134.927 37.8659 141.218C36.1357 143.237 34.5249 144.483 33.1094 145.234C29.8887 146.943 24.9681 144.548 24.8384 141.143C24.6324 135.753 31.9192 131.055 31.9192 131.055Z" fill="#BCBCE1"/>
<path d="M146.764 96.0014C143.813 96.091 140.561 96.6706 137.284 97.5973C135.809 98.014 134.37 98.2795 132.978 98.4431C131.514 98.6073 130.144 98.5594 129.608 98.5302C128.215 98.4412 126.047 98.2348 123.434 97.754C121.961 97.4828 120.497 97.1414 119.068 96.6955C109.082 93.5777 101.279 95.8378 98.4446 96.9312C86.9563 100.836 87.6385 111.464 87.6385 111.464C87.6391 125.661 98.8258 130.66 111.331 127.635C117.568 126.126 121.084 126.02 123.09 126.512C124.966 126.814 126.998 127.564 127.387 129.386C128.114 132.784 122.071 133.187 119.527 132.827L119.498 132.832L114.996 132.099C108.701 131.371 96.177 130.841 88.7648 136.689C85.3094 139.415 83.3994 143.636 83.8447 148.407C84.0525 150.631 84.7192 153.114 86.0843 155.826C91.4056 165.578 100.233 166.859 106.121 166.856C107.481 166.816 109.34 166.711 111.309 166.456C113.337 166.194 115.332 165.704 117.259 165.021C121.186 163.627 125.04 162.168 133.73 164.146C138.049 165.13 141.38 165.189 143.92 164.806C144.084 164.778 144.282 164.742 144.507 164.693C150.075 163.489 153.433 158.964 152.611 153.78C152.245 151.475 151.094 149.677 149.933 148.395C148.151 146.643 145.832 145.507 143.802 144.788C130.515 140.424 124.356 147.059 117.013 152.21C113.597 154.607 110.996 155.013 109.036 154.209C107.172 153.664 104.624 152.208 103.501 148.3C101.628 141.784 105.438 135.792 114.118 135.168L114.173 135.207C116.947 135.066 120.352 135.576 124.466 137.013C127.745 138.16 130.676 138.844 133.263 139.144C134.602 139.225 137.332 139.314 139.909 138.923C141.844 138.63 143.714 137.928 145.275 136.746C147.65 134.948 149.247 132.254 148.503 128.772C147.154 122.463 141.315 120.612 140.093 120.29C134.951 118.487 127.852 119.322 122.077 121.111C121.403 121.319 120.725 121.503 120.047 121.665C119.755 121.707 119.441 121.766 119.075 121.869C117.836 122.126 116.611 122.301 115.417 122.391C112.881 122.418 111.177 121.755 111.177 121.755L111.174 121.774C107.144 120.537 105.474 118.323 104.812 116.413C103.962 113.96 104.655 111.255 106.607 109.542C110.667 105.977 118.355 108.275 122.641 109.559C124.915 110.239 127.256 111.231 129.205 112.154C134.496 114.657 140.303 115.987 145.902 115.801C152.44 115.583 156.271 113.435 157.947 110.106C159.141 106.901 158.702 104.289 157.974 102.5C155.41 96.8734 149.736 96.0275 146.764 96.0014Z" fill="#BCBCE1"/>
<path d="M44.6145 8.67278C45.3334 9.08637 46.1525 9.29285 47.073 9.29285C47.7098 9.29285 48.31 9.17033 48.8741 8.92529C49.4369 8.67963 49.9208 8.33756 50.3257 7.89848L48.996 6.4276C48.7466 6.677 48.4562 6.8729 48.1253 7.0147C47.7938 7.15712 47.443 7.22741 47.073 7.22741C46.6003 7.22741 46.1718 7.11608 45.7893 6.89218C45.4062 6.66891 45.1046 6.35919 44.8856 5.96302C44.6661 5.56685 44.556 5.12839 44.556 4.64639C44.556 4.1644 44.6661 3.72592 44.8856 3.32975C45.1046 2.9342 45.4062 2.62449 45.7893 2.40059C46.1718 2.17732 46.6003 2.06475 47.073 2.06475C47.443 2.06475 47.7938 2.13627 48.1253 2.27807C48.4562 2.42049 48.7466 2.61578 48.996 2.86579L50.3126 1.39369C49.9084 0.955223 49.427 0.613161 48.8673 0.36812C48.3081 0.122457 47.7098 -5.91875e-05 47.073 -5.91875e-05C46.1525 -5.91875e-05 45.3334 0.20642 44.6145 0.619383C43.8962 1.03235 43.337 1.59394 42.9365 2.30419C42.5366 3.01381 42.3363 3.79497 42.3363 4.64639C42.3363 5.49844 42.5366 6.27958 42.9365 6.98858C43.337 7.69883 43.8962 8.25982 44.6145 8.67278Z" fill="#BCBCE1"/>
<path d="M55.5145 3.35526C55.7384 2.96033 56.0388 2.64625 56.4181 2.41365C56.7963 2.18167 57.2136 2.06475 57.6695 2.06475C58.126 2.06475 58.5433 2.18167 58.9214 2.41365C59.3008 2.64625 59.6012 2.96033 59.8251 3.35526C60.049 3.75143 60.1603 4.18181 60.1603 4.64639C60.1603 5.11098 60.049 5.54135 59.8251 5.9369C59.6012 6.33307 59.3008 6.64714 58.9214 6.87912C58.5433 7.11173 58.126 7.22741 57.6695 7.22741C57.2136 7.22741 56.7963 7.11173 56.4181 6.87912C56.0388 6.64714 55.7384 6.33307 55.5145 5.9369C55.2906 5.54135 55.1792 5.11098 55.1792 4.64639C55.1792 4.18181 55.2906 3.75143 55.5145 3.35526ZM55.2433 8.67278C55.966 9.08637 56.7751 9.29285 57.6695 9.29285C58.5644 9.29285 59.3736 9.08637 60.0962 8.67278C60.8189 8.25982 61.3849 7.69883 61.7935 6.98858C62.2021 6.27958 62.4067 5.49844 62.4067 4.64639C62.4067 3.79497 62.2021 3.01381 61.7935 2.30419C61.3849 1.59394 60.8189 1.03235 60.0962 0.619383C59.3736 0.20642 58.5644 -5.91875e-05 57.6695 -5.91875e-05C56.7751 -5.91875e-05 55.966 0.20642 55.2433 0.619383C54.5206 1.03235 53.9547 1.59394 53.5467 2.30419C53.1374 3.01381 52.9328 3.79497 52.9328 4.64639C52.9328 5.49844 53.1374 6.27958 53.5467 6.98858C53.9547 7.69883 54.5206 8.25982 55.2433 8.67278Z" fill="#BCBCE1"/>
<path d="M68.0209 2.72337C68.0209 2.46527 68.0937 2.25879 68.2405 2.10393C68.3866 1.94907 68.5713 1.87195 68.7952 1.87195C69.0185 1.87195 69.2032 1.94907 69.35 2.10393C69.4961 2.25879 69.5695 2.46527 69.5695 2.72337V6.46617C69.5695 6.99979 69.692 7.48116 69.9371 7.91216C70.1828 8.34192 70.5205 8.67963 70.9502 8.92529C71.3806 9.17033 71.8669 9.29285 72.4093 9.29285C72.951 9.29285 73.4367 9.17033 73.8671 8.92529C74.2975 8.67963 74.6352 8.34192 74.8802 7.91216C75.1259 7.48116 75.2484 6.99979 75.2484 6.46617V0.129292H73.1836V6.55635C73.1836 6.81445 73.1102 7.02093 72.9634 7.17579C72.8173 7.33065 72.6325 7.40839 72.4093 7.40839C72.1848 7.40839 72 7.33065 71.8539 7.17579C71.7077 7.02093 71.635 6.81445 71.635 6.55635V2.85274C71.635 2.3017 71.5118 1.80913 71.2668 1.3744C71.0211 0.940293 70.6834 0.602582 70.2537 0.361272C69.8227 0.120584 69.3369 -5.91875e-05 68.7952 -5.91875e-05C68.2529 -5.91875e-05 67.7672 0.120584 67.3362 0.361272C66.9064 0.602582 66.5687 0.940293 66.3237 1.3744C66.078 1.80913 65.9561 2.3017 65.9561 2.85274V9.1641H68.0209V2.72337Z" fill="#BCBCE1"/>
<path d="M81.0753 8.67278C81.7942 9.08637 82.6133 9.29285 83.5338 9.29285C84.1706 9.29285 84.7708 9.17033 85.3349 8.92529C85.8977 8.67963 86.3816 8.33756 86.7865 7.89848L85.4568 6.4276C85.2074 6.677 84.9169 6.8729 84.5861 7.0147C84.2546 7.15712 83.9038 7.22741 83.5338 7.22741C83.0611 7.22741 82.6326 7.11608 82.2501 6.89218C81.867 6.66891 81.5653 6.35919 81.3464 5.96302C81.1269 5.56685 81.0168 5.12839 81.0168 4.64639C81.0168 4.1644 81.1269 3.72592 81.3464 3.32975C81.5653 2.9342 81.867 2.62449 82.2501 2.40059C82.6326 2.17732 83.0611 2.06475 83.5338 2.06475C83.9038 2.06475 84.2546 2.13627 84.5861 2.27807C84.9169 2.42049 85.2074 2.61578 85.4568 2.86579L86.7734 1.39369C86.3691 0.955223 85.8878 0.613161 85.328 0.36812C84.7689 0.122457 84.1706 -5.91875e-05 83.5338 -5.91875e-05C82.6133 -5.91875e-05 81.7942 0.20642 81.0753 0.619383C80.3569 1.03235 79.7978 1.59394 79.3973 2.30419C78.9974 3.01381 78.7971 3.79497 78.7971 4.64639C78.7971 5.49844 78.9974 6.27958 79.3973 6.98858C79.7978 7.69883 80.3569 8.25982 81.0753 8.67278Z" fill="#BCBCE1"/>
<path d="M92.1811 2.5431C92.2663 2.39694 92.3832 2.28063 92.5294 2.19419C92.6755 2.10836 92.8391 2.06483 93.0195 2.06483H93.0325C93.2048 2.06483 93.3615 2.10836 93.504 2.19419C93.6458 2.28063 93.7596 2.39944 93.8454 2.54932C93.9318 2.69983 93.9748 2.86153 93.9748 3.03319C93.9748 3.20546 93.9318 3.36653 93.8454 3.51704C93.7596 3.66754 93.6458 3.78635 93.504 3.87217C93.3615 3.958 93.2048 4.00152 93.0325 4.00152H93.0195C92.8391 4.00152 92.6755 3.958 92.5294 3.87217C92.3832 3.78635 92.2663 3.67004 92.1811 3.52389C92.0947 3.37773 92.0517 3.21417 92.0517 3.03319C92.0517 2.85283 92.0947 2.68925 92.1811 2.5431ZM92.1811 5.93699H92.5505L94.3622 9.16418H96.8269L94.7329 5.54454C95.1788 5.29701 95.5339 4.95744 95.7945 4.52396C96.0613 4.08052 96.195 3.58422 96.195 3.03319C96.195 2.50019 96.0613 2.01197 95.7945 1.56853C95.5283 1.12572 95.1626 0.774316 94.6981 0.516214C94.2329 0.258113 93.7254 0.129374 93.1743 0.129374H90.1157V9.16418H92.1811V5.93699Z" fill="#BCBCE1"/>
<path d="M105.687 8.88618C105.872 8.70147 105.965 8.47135 105.965 8.19583C105.965 7.92032 105.872 7.69021 105.687 7.50487C105.502 7.32016 105.268 7.22749 104.984 7.22749H102.997C102.756 7.22749 102.557 7.15038 102.403 6.99551C102.248 6.84065 102.171 6.64288 102.171 6.40157V6.37607C102.171 6.13539 102.248 5.93699 102.403 5.78212C102.557 5.62726 102.756 5.55015 102.997 5.55015H104.339C104.623 5.55015 104.857 5.4581 105.042 5.27214C105.227 5.08805 105.32 4.85793 105.32 4.58179C105.32 4.3069 105.227 4.07678 105.042 3.89144C104.857 3.70673 104.623 3.61406 104.339 3.61406H102.932C102.717 3.61406 102.536 3.54129 102.39 3.39452C102.243 3.24836 102.171 3.06801 102.171 2.85282V2.8267C102.171 2.60343 102.243 2.42058 102.39 2.27815C102.536 2.13635 102.717 2.06483 102.932 2.06483H104.984C105.268 2.06483 105.502 1.97279 105.687 1.78746C105.872 1.60274 105.965 1.37262 105.965 1.09773C105.965 0.821589 105.872 0.59209 105.687 0.406754C105.502 0.221418 105.268 0.129374 104.984 0.129374H100.17V9.16418H104.984C105.268 9.16418 105.502 9.07152 105.687 8.88618Z" fill="#BCBCE1"/>
<path d="M111.65 2.36895C111.852 2.57108 111.954 2.82235 111.954 3.12336V9.16418H114.018V3.12336C114.018 2.82235 114.119 2.57108 114.321 2.36895C114.523 2.1662 114.776 2.06483 115.077 2.06483H117.052V0.129374H108.92V2.06483H110.896C111.196 2.06483 111.448 2.1662 111.65 2.36895Z" fill="#BCBCE1"/>
<path d="M125.976 8.88618C126.161 8.70147 126.254 8.47135 126.254 8.19583C126.254 7.92032 126.161 7.69021 125.976 7.50487C125.791 7.32016 125.557 7.22749 125.273 7.22749H123.285C123.044 7.22749 122.846 7.15038 122.691 6.99551C122.536 6.84065 122.459 6.64288 122.459 6.40157V6.37607C122.459 6.13539 122.536 5.93699 122.691 5.78212C122.846 5.62726 123.044 5.55015 123.285 5.55015H124.628C124.912 5.55015 125.146 5.4581 125.331 5.27214C125.515 5.08805 125.609 4.85793 125.609 4.58179C125.609 4.3069 125.515 4.07678 125.331 3.89144C125.146 3.70673 124.912 3.61406 124.628 3.61406H123.221C123.005 3.61406 122.825 3.54129 122.679 3.39452C122.532 3.24836 122.459 3.06801 122.459 2.85282V2.8267C122.459 2.60343 122.532 2.42058 122.679 2.27815C122.825 2.13635 123.005 2.06483 123.221 2.06483H125.273C125.557 2.06483 125.791 1.97279 125.976 1.78746C126.161 1.60274 126.254 1.37262 126.254 1.09773C126.254 0.821589 126.161 0.59209 125.976 0.406754C125.791 0.221418 125.557 0.129374 125.273 0.129374H120.458V9.16418H125.273C125.557 9.16418 125.791 9.07152 125.976 8.88618Z" fill="#BCBCE1"/>
<path d="M44.3328 90.6696C69.0514 87.1588 73.9106 78.6912 74.4193 72.6529C74.42 72.4427 74.4231 72.2262 74.4324 71.993C74.4486 71.5676 74.4337 71.1609 74.4019 70.7647C74.3914 70.659 74.3883 70.5464 74.3752 70.4432C74.359 70.297 74.3354 70.1552 74.3124 70.0134C74.2831 69.8299 74.2471 69.6533 74.2104 69.4779C73.2084 64.9304 69.0931 62.5452 66.7733 61.5421C61.0889 59.3224 52.9478 59.3765 45.3011 66.4398C44.5237 67.1575 43.7313 67.8099 42.9309 68.4132C40.6528 70.3045 38.7347 71.409 37.2608 72.0608C37.1569 72.1099 37.0561 72.1597 36.9398 72.2082C34.0423 73.4172 32.0618 73.3034 32.0618 73.3034H32.0519C30.5422 73.4378 28.7129 73.3986 26.5419 72.9962C17.3777 71.46 14.9317 64.1324 14.9317 64.1324C12.653 57.7943 11.4987 46.737 22.8849 34.5316C26.9185 30.6401 35.8614 24.4674 52.1287 24.3182L52.1262 24.3281C52.1262 24.3281 57.0071 24.2846 61.1591 25.3369C61.6641 25.4706 62.1393 25.6143 62.5958 25.7636C62.7395 25.8127 62.8869 25.8581 63.0268 25.9109C63.2233 25.9843 63.3925 26.044 63.5486 26.0975C66.6446 27.2636 68.5228 28.7582 69.6286 30.0045C70.4626 30.9442 70.9415 31.9972 71.0391 33.0389C71.1374 34.0925 70.7338 35.1162 70.0602 35.9321C67.5837 38.9336 64.6413 39.0188 53.8769 37.691C42.1336 36.2431 37.0282 37.691 37.0282 37.691C16.4783 42.7597 19.0389 55.2804 19.0389 55.2804L19.0411 55.2811C19.0411 55.3321 19.0455 55.3818 19.0464 55.4328C19.3759 57.5076 20.6047 61.5458 25.1708 63.6318C26.6335 64.2512 28.4587 64.6959 30.7232 64.6959C37.3429 64.6959 40.8674 60.723 42.6063 58.8267C42.7338 58.6874 42.8557 58.5462 42.9782 58.4025C43.1511 58.1992 43.4882 57.8335 43.9975 57.382C46.2359 55.245 51.8961 50.397 58.2174 49.2763C65.5692 47.9734 75.4356 47.0193 77.1341 39.2943C77.5551 37.3806 77.358 35.2791 76.5607 33.279C75.3006 30.1171 72.7712 27.2008 69.2492 25.1373C60.4464 20.3322 50.2436 20.1046 42.9944 20.8316C41.4128 21.0188 39.9027 21.2583 38.4325 21.5251C18.655 25.9122 8.92765 37.0865 4.72401 43.8158C3.26128 46.4011 2.1216 48.9859 1.24629 51.4481C-1.26134 59.8442 -0.693082 70.6882 10.4036 81.6554C15.6769 86.295 26.3809 92.6045 44.3328 90.6696Z" fill="#BCBCE1"/>
<path d="M159.467 28.4447C157.922 28.4447 156.705 27.1529 156.705 25.6081C156.705 24.0339 157.922 22.7708 159.467 22.7708C161.041 22.7708 162.245 24.0339 162.245 25.6081C162.245 27.1529 161.041 28.4447 159.467 28.4447ZM159.468 22.0948C157.514 22.0948 155.955 23.6689 155.955 25.6081C155.955 27.5472 157.514 29.1207 159.468 29.1207C161.421 29.1207 162.981 27.5472 162.981 25.6081C162.981 23.6689 161.421 22.0948 159.468 22.0948Z" fill="#BCBCE1"/>
<path d="M159.494 25.5017C159.243 25.5017 159.045 25.3039 159.045 25.0657C159.045 24.8281 159.243 24.6167 159.494 24.6167C159.745 24.6167 159.93 24.8281 159.93 25.0657C159.93 25.3039 159.745 25.5017 159.494 25.5017ZM160.63 25.0657C160.63 24.4848 160.195 24.0221 159.521 24.0221H158.424V27.1934H159.124V26.0838H159.454L160.076 27.1934H160.882L160.155 25.9252C160.446 25.753 160.63 25.4364 160.63 25.0657Z" fill="#BCBCE1"/>
</svg>
