<?xml version="1.0" encoding="UTF-8" standalone="no"?>
<svg
   xmlns:dc="http://purl.org/dc/elements/1.1/"
   xmlns:cc="http://creativecommons.org/ns#"
   xmlns:rdf="http://www.w3.org/1999/02/22-rdf-syntax-ns#"
   xmlns:svg="http://www.w3.org/2000/svg"
   xmlns="http://www.w3.org/2000/svg"
   viewBox="0 0 632.8667 619.73334"
   height="619.73334"
   width="632.8667"
   xml:space="preserve"
   id="svg2"
   version="1.1"><metadata
     id="metadata8"><rdf:RDF><cc:Work
         rdf:about=""><dc:format>image/svg+xml</dc:format><dc:type
           rdf:resource="http://purl.org/dc/dcmitype/StillImage" /></cc:Work></rdf:RDF></metadata><defs
     id="defs6" /><g
     transform="matrix(1.3333333,0,0,-1.3333333,0,619.73333)"
     id="g10"><g
       transform="scale(0.1)"
       id="g12"><path
         id="path14"
         style="fill:#0e0f0e;fill-opacity:1;fill-rule:nonzero;stroke:none"
         d="m 3771.06,3466.45 c -87.99,175.86 -231.94,204.84 -291.47,209.04 -8.52,0.02 -17.54,0.15 -27.11,0.4 -29.87,-0.38 -57.34,-2.66 -83.14,-6.35 -114.05,-20.71 -197.9,-88.13 -254.68,-153.65 -41.11,-47.44 -72.62,-102.22 -97.45,-159.88 -38.81,-90.13 -73.35,-192.83 -120.2,-299.39 -136.83,-311.24 -475.83,-255.15 -476.92,-18.11 -6.57,82.06 11.06,236.43 169.19,438.12 120.4,165.91 359.08,418.54 718.01,463.24 l -1.14,-0.52 c 0,0 176.28,24.89 333.46,-56.04 80.68,-41.53 143.78,-116.74 158.71,-201.03 20,-112.9 -27.26,-215.83 -27.26,-215.83 z m 454.23,4.14 c 65.62,94.75 104.05,223.63 47.78,344.17 -74.04,158.62 -270.84,228.58 -438.51,253.34 -14.02,2.07 -28.57,4.15 -43.18,6.2 -67.75,8.27 -210.13,19.98 -388.91,3.19 -1.94,-0.51 -4.08,-0.74 -6,-1.28 -2.9,0.01 -5.75,-0.12 -8.65,-0.15 -6.78,-0.68 -13.96,-1.75 -20.83,-2.52 -80.93,-11.09 -383.14,-64.56 -645.31,-267.57 -48.54,-41.3 -140.6,-125.27 -213.72,-225.5 -226.53,-278.83 -276.11,-491.38 -276.11,-491.38 -58.33,-186.53 -124.08,-561.15 177.32,-797.22 113.63,-88.99 266.91,-132.05 417.28,-114.61 l 2.32,0.27 c 132.52,29.03 401.3,132.91 447.86,499.39 10.94,86.09 6.14,173.28 -9.72,258.85 -1.23,6.58 -2.46,13.16 -3.7,19.71 -2.7,14.23 -4.93,27.66 -6.96,40.73 -0.14,0.68 -0.32,1.18 -0.45,1.88 -17.36,87.89 -13.66,160.07 -5.75,210.11 7.13,73.66 44.41,199.7 216.91,194.62 10.48,-0.31 20.14,-1.47 29.26,-3.15 l 0.03,0.22 c 1.37,-0.35 2.55,-0.83 3.88,-1.21 17.3,-3.62 32.1,-9.68 44.75,-17.7 170.93,-91.23 35.54,-358.08 35.54,-358.08 -0.42,-1.33 -0.72,-2.27 -0.72,-2.27 l -0.17,0.02 C 3568.29,2991.4 3553.14,2959.64 3533,2924.94 3414.42,2720.7 3413.39,2562 3425.03,2480.86 l -0.05,0.01 c 0,0 1.78,-13.41 5.79,-32.98 l -0.61,0.03 c 12.91,-80.37 51.52,-139.14 51.52,-139.14 19.46,-31.8 43.9,-59.13 72.12,-82.22 188.61,-154.3 544.64,-120.76 689.56,11.15 188.86,171.9 107.93,374.33 -164.63,430.76 -19.74,4.09 -37.53,9.3 -54.36,15.09 -22.68,12.66 -43.29,27.55 -58.13,49.09 -16.48,23.92 -22.84,51.83 -27.11,78.71 -22.35,140.69 2.49,280.16 69.64,390.99 59.9,98.87 150.89,173.5 216.52,268.24" /><path
         id="path16"
         style="fill:#0e0f0e;fill-opacity:1;fill-rule:nonzero;stroke:none"
         d="m 882.371,1022.67 c 185.429,184.57 785.619,213.66 1160.979,382.1 226.97,111.73 227.94,268.31 198.74,367.25 -21.02,71.25 -74.39,137.72 -149.69,180.91 -217.65,124.82 -479.61,3.22 -578.86,-96.93 -0.65,-0.53 -1.29,-0.83 -1.95,-1.42 -50.42,-44.75 -173.31,-219.64 -241.54,-319.12 l -0.31,-0.11 c 0,0 -35.13,-54.22 -76.52,-100.91 -71.18,-74.07 -145.01,-147.3 -302.954,-130.63 -46.641,4.92 -76.821,18.88 -94.989,38.15 -20.781,17.01 -75.75,78.78 27.344,198.23 0.559,0.67 1.199,1.35 1.781,2.01 2.731,3.13 5.411,6.25 8.375,9.46 l 0.047,-0.06 c 10.406,11.04 22.528,22.18 36.614,33.34 13.191,11.45 33.625,27.66 56.812,47.04 24.254,20.26 45.68,42.94 62.156,68.41 10.395,16.06 19.884,34.32 26.504,54.23 43.18,146.66 -115.515,204.09 -165.199,218.22 -9,2.57 -14.41,3.71 -14.41,3.71 C 758.805,1996.8 465.266,2043.8 168.84,1688.59 38.1055,1521 14.3125,1381.78 14.3125,1381.78 l -0.9336,0.19 c -0.0351,-0.15 -0.0664,-0.31 -0.1094,-0.46 -8.52341,-36.73 -12.21481,-75.23 -10.457,-114.56 4.03906,-90 33.3711,-219.13 162.7655,-257.86 1.727,-0.52 3.168,-1.03 4.817,-1.55 28.589,-6.29 57.632,-8.239 85.32,-7.39 51.312,1.55 99.652,13.75 143.051,32.35 170.89,73.26 182.75,143.03 265.312,183.31 0,0 99.992,59.48 146.094,8.93 l -0.113,-0.07 c 9.75,-8.52 17.246,-21 20.55,-39.18 6.891,-40.35 -59.261,-93.61 -131.879,-139.01 -2.359,-1.28 -4.558,-2.22 -7.066,-3.78 C 621.668,999.211 512.352,952.48 474.711,936.84 419.336,917.199 324.758,878.652 230.824,816.898 124.832,747.23 54.0664,646.5 40.0547,528.371 -0.644531,24.9492 558.703,27.332 558.703,27.332 c 6.887,0.3203 10.629,0.5899 10.629,0.5899 606.108,0 576.958,475.7581 703.588,735.2691 57.67,118.149 127.98,164.579 187.47,180.09 l 0.95,0.25 c 102.55,26.449 216.69,-63.351 189.2,-150.429 -25.95,-82.223 -76.88,-151.352 -119.75,-198.743 -35.73,-39.5 -67.97,-81.3 -93.63,-126.609 -44.27,-78.168 -85.31,-183.711 -67.33,-287.621 C 1402.59,64.5625 1506.2,-24.9883 1722.44,6.28906 2133.83,65.832 2217.75,198.219 2230.36,336.609 c 4.2,101.231 -66.67,141.45 -116.77,157.211 -21.89,6.879 -44.64,9.41 -66.87,9.469 -73.63,0.223 -329.65,17.801 -199.15,259.902 17.04,31.598 29.79,60.418 39.05,86.739 8.07,22.949 12.4,47.101 12.68,71.73 -0.54,25.371 -4.12,48.078 -10.27,68.25 -0.67,2.172 -1.35,4.332 -2.08,6.43 -1.33,3.93 -2.73,7.79 -4.26,11.52 -0.65,1.63 -1.34,3.19 -2.02,4.78 -27.82,63.65 -82.22,99.1 -134.58,118.76 -2.99,0.96 -6.02,1.92 -9.01,2.87 -16.45,4.45 -32.47,8.2 -48.03,11.22 -7.24,0.75 -11.54,0.85 -11.54,0.85 l 1.78,0.82 c -355.26,63.13 -483.27,-231.59 -632.42,-405.609 -47.862,-55.852 -92.409,-90.332 -131.577,-111.11 -89.082,-47.25 -225.199,18.981 -228.789,113.18 -5.695,149.098 195.867,279.049 195.867,279.049" /><path
         id="path18"
         style="fill:#0e0f0e;fill-opacity:1;fill-rule:nonzero;stroke:none"
         d="m 4369.34,1812.56 c -70.92,155.65 -227.88,179.05 -310.11,179.78 -81.62,-2.48 -171.59,-18.51 -262.24,-44.15 -57.39,-16.22 -112.98,-24.47 -165.51,-27.66 l -1.92,0.79 c 0,0 -87.51,-1.04 -215.69,22.54 -40.72,7.49 -81.23,16.94 -120.76,29.28 -276.23,86.24 -492.08,23.73 -570.49,-6.52 -317.8,-108.03 -298.92,-402.01 -298.92,-402.01 0.02,-392.74 309.46,-531.02 655.39,-447.32 172.52,41.74 269.79,44.66 325.28,31.04 51.88,-8.35 108.1,-29.09 118.88,-79.49 20.1,-93.988 -147.07,-105.141 -217.45,-95.18 l -0.79,-0.148 -124.54,20.289 c -174.15,20.129 -520.58,34.799 -725.62,-126.969 -95.58,-75.41 -148.41,-192.16 -136.09,-324.152 5.75,-61.528 24.17,-130.211 61.95,-205.211 147.18,-269.7581 391.37,-305.2073 554.26,-305.1292 37.62,1.1094 89.03,4 143.49,11.0508 56.11,7.2696 111.31,20.8008 164.63,39.7188 108.6,38.5426 215.22,78.9026 455.6,24.1716 119.47,-27.199 211.63,-28.8318 281.88,-18.2302 4.53,0.7578 10.01,1.7812 16.25,3.1406 154.01,33.3006 246.9,158.4686 224.16,301.8596 -10.11,63.781 -41.95,113.5 -74.09,148.961 -49.29,48.468 -113.43,79.879 -169.58,99.789 -367.54,120.711 -537.92,-62.832 -741.05,-205.321 -94.5,-66.3 -166.43,-77.558 -220.66,-55.308 -51.57,15.078 -122.04,55.359 -153.1,163.449 -51.82,180.27 53.57,346.02 293.67,363.289 l 1.54,-1.078 c 76.73,3.887 170.92,-10.203 284.71,-49.98 90.72,-31.723 171.77,-50.661 243.35,-58.942 37.05,-2.25 112.57,-4.691 183.84,6.11 53.54,8.121 105.26,27.531 148.43,60.222 65.7,49.75 109.89,124.278 89.3,220.588 -37.32,174.53 -198.83,225.73 -232.64,234.63 -142.24,49.87 -338.6,26.77 -498.36,-22.7 -18.63,-5.77 -37.39,-10.85 -56.15,-15.35 -8.07,-1.15 -16.76,-2.78 -26.88,-5.63 -34.28,-7.1 -68.18,-11.95 -101.2,-14.45 -70.15,-0.74 -117.3,17.61 -117.3,17.61 l -0.05,-0.54 c -111.48,34.23 -157.69,95.48 -176.01,148.29 -23.53,67.85 -4.32,142.69 49.64,190.07 112.34,98.63 324.98,35.05 443.57,-0.45 62.9,-18.82 127.65,-46.28 181.56,-71.78 146.36,-69.24 307,-106.04 461.89,-100.89 180.85,6.02 286.81,65.43 333.17,157.53 33.05,88.64 20.88,160.92 0.76,210.39" /><path
         id="path20"
         style="fill:#0e0f0e;fill-opacity:1;fill-rule:nonzero;stroke:none"
         d="m 1301.57,4390.88 c -25.47,0 -48.13,5.73 -68.01,17.16 -19.87,11.42 -35.35,26.94 -46.42,46.59 -11.05,19.62 -16.6,41.22 -16.6,64.8 0,23.55 5.55,45.16 16.6,64.78 11.07,19.64 26.55,35.18 46.42,46.6 19.88,11.43 42.54,17.14 68.01,17.14 17.61,0 34.16,-3.39 49.63,-10.18 15.47,-6.79 28.8,-16.25 39.99,-28.38 l -36.43,-40.71 c -6.9,6.91 -14.93,12.32 -24.09,16.25 -9.17,3.93 -18.87,5.9 -29.1,5.9 -13.09,0 -24.93,-3.11 -35.52,-9.29 -10.6,-6.18 -18.93,-14.75 -25,-25.71 -6.06,-10.95 -9.1,-23.08 -9.1,-36.4 0,-13.34 3.04,-25.48 9.1,-36.43 6.07,-10.95 14.4,-19.52 25,-25.71 10.59,-6.2 22.43,-9.27 35.52,-9.27 10.23,0 19.93,1.95 29.1,5.88 9.16,3.93 17.19,9.34 24.09,16.25 l 36.78,-40.69 c -11.19,-12.15 -24.58,-21.61 -40.16,-28.4 -15.6,-6.79 -32.2,-10.18 -49.81,-10.18" /><path
         id="path22"
         style="fill:#0e0f0e;fill-opacity:1;fill-rule:nonzero;stroke:none"
         d="m 1594.69,4448.02 c 12.62,0 24.16,3.21 34.63,9.63 10.48,6.43 18.8,15.12 25,26.07 6.18,10.94 9.27,22.85 9.27,35.71 0,12.85 -3.09,24.74 -9.27,35.7 -6.2,10.93 -14.52,19.62 -25,26.05 -10.47,6.42 -22.01,9.65 -34.63,9.65 -12.61,0 -24.16,-3.23 -34.62,-9.65 -10.49,-6.43 -18.8,-15.12 -25,-26.05 -6.18,-10.96 -9.28,-22.85 -9.28,-35.7 0,-12.86 3.1,-24.77 9.28,-35.71 6.2,-10.95 14.51,-19.64 25,-26.07 10.46,-6.42 22.01,-9.63 34.62,-9.63 z m 0,-57.14 c -24.74,0 -47.12,5.73 -67.11,17.16 -20,11.42 -35.66,26.94 -46.95,46.59 -11.3,19.62 -16.97,41.22 -16.97,64.8 0,23.55 5.67,45.16 16.97,64.78 11.29,19.64 26.95,35.18 46.95,46.6 19.99,11.43 42.37,17.14 67.11,17.14 24.75,0 47.13,-5.71 67.12,-17.14 20,-11.42 35.66,-26.96 46.96,-46.6 11.29,-19.62 16.95,-41.23 16.95,-64.78 0,-23.58 -5.66,-45.18 -16.95,-64.8 -11.3,-19.65 -26.96,-35.17 -46.96,-46.59 -19.99,-11.43 -42.37,-17.16 -67.12,-17.16" /><path
         id="path24"
         style="fill:#0e0f0e;fill-opacity:1;fill-rule:nonzero;stroke:none"
         d="m 2002.42,4390.88 c -15.01,0 -28.45,3.39 -40.36,10.18 -11.89,6.79 -21.23,16.13 -28.02,28.03 -6.79,11.91 -10.17,25.23 -10.17,39.98 v 103.55 c 0,7.13 -2.03,12.85 -6.08,17.13 -4.05,4.29 -9.16,6.42 -15.34,6.42 -6.2,0 -11.3,-2.13 -15.35,-6.42 -4.05,-4.28 -6.07,-10 -6.07,-17.13 v -178.16 h -57.12 v 174.58 c 0,15.23 3.38,28.86 10.16,40.89 6.79,12.01 16.13,21.36 28.03,28.02 11.91,6.66 25.35,10 40.35,10 14.99,0 28.43,-3.34 40.34,-10 11.9,-6.66 21.24,-16.01 28.02,-28.02 6.79,-12.03 10.19,-25.66 10.19,-40.89 v -102.45 c 0,-7.14 2.01,-12.86 6.06,-17.14 4.05,-4.29 9.16,-6.43 15.36,-6.43 6.18,0 11.29,2.14 15.34,6.43 4.05,4.28 6.08,10 6.08,17.14 v 177.78 h 57.12 v -175.3 c 0,-14.75 -3.39,-28.07 -10.18,-39.98 -6.79,-11.9 -16.13,-21.24 -28.02,-28.03 -11.92,-6.79 -25.36,-10.18 -40.34,-10.18" /><path
         id="path26"
         style="fill:#0e0f0e;fill-opacity:1;fill-rule:nonzero;stroke:none"
         d="m 2310.16,4390.88 c -25.47,0 -48.14,5.73 -68.01,17.16 -19.88,11.42 -35.35,26.94 -46.42,46.59 -11.06,19.62 -16.6,41.22 -16.6,64.8 0,23.55 5.54,45.16 16.6,64.78 11.07,19.64 26.54,35.18 46.42,46.6 19.87,11.43 42.54,17.14 68.01,17.14 17.6,0 34.15,-3.39 49.63,-10.18 15.47,-6.79 28.79,-16.25 39.98,-28.38 l -36.42,-40.71 c -6.91,6.91 -14.94,12.32 -24.09,16.25 -9.18,3.93 -18.87,5.9 -29.1,5.9 -13.09,0 -24.93,-3.11 -35.52,-9.29 -10.6,-6.18 -18.93,-14.75 -25,-25.71 -6.06,-10.95 -9.1,-23.08 -9.1,-36.4 0,-13.34 3.04,-25.48 9.1,-36.43 6.07,-10.95 14.4,-19.52 25,-25.71 10.59,-6.2 22.43,-9.27 35.52,-9.27 10.23,0 19.92,1.95 29.1,5.88 9.15,3.93 17.18,9.34 24.09,16.25 l 36.78,-40.69 c -11.19,-12.15 -24.58,-21.61 -40.16,-28.4 -15.61,-6.79 -32.21,-10.18 -49.81,-10.18" /><path
         id="path28"
         style="fill:#0e0f0e;fill-opacity:1;fill-rule:nonzero;stroke:none"
         d="m 2572.91,4537.27 c 4.77,0 9.1,1.19 13.03,3.57 3.93,2.37 7.08,5.65 9.46,9.82 2.39,4.16 3.58,8.62 3.58,13.39 0,4.75 -1.19,9.22 -3.58,13.39 -2.38,4.15 -5.53,7.42 -9.46,9.81 -3.93,2.38 -8.26,3.58 -13.03,3.58 h -0.36 c -4.99,0 -9.52,-1.2 -13.56,-3.58 -4.04,-2.39 -7.27,-5.59 -9.64,-9.64 -2.38,-4.06 -3.58,-8.57 -3.58,-13.56 0,-5.01 1.2,-9.53 3.58,-13.58 2.37,-4.05 5.6,-7.26 9.64,-9.63 4.04,-2.38 8.57,-3.57 13.56,-3.57 z m -80.68,107.1 h 84.61 c 15.24,0 29.28,-3.56 42.13,-10.7 12.86,-7.14 22.97,-16.85 30.35,-29.1 7.37,-12.27 11.07,-25.77 11.07,-40.52 0,-15.24 -3.7,-28.98 -11.07,-41.25 -7.38,-12.25 -17.44,-21.82 -30.18,-28.73 -12.73,-6.9 -26.83,-10.35 -42.3,-10.35 h -6.07 l 42.84,21.78 64.27,-111.04 h -68.2 l -53.91,96.03 11.07,-6.77 h -17.49 v -89.26 h -57.12 v 249.91" /><path
         id="path30"
         style="fill:#0e0f0e;fill-opacity:1;fill-rule:nonzero;stroke:none"
         d="m 2770.35,4644.37 h 133.16 c 7.87,0 14.33,-2.55 19.46,-7.67 5.12,-5.13 7.68,-11.48 7.68,-19.11 0,-7.61 -2.56,-13.98 -7.68,-19.09 -5.13,-5.12 -11.59,-7.67 -19.46,-7.67 h -56.77 c -5.94,0 -10.93,-1.97 -14.98,-5.9 -4.05,-3.93 -6.07,-8.99 -6.07,-15.17 v -0.72 c 0,-5.95 2.02,-10.94 6.07,-14.99 4.05,-4.05 9.04,-6.07 14.98,-6.07 h 38.93 c 7.85,0 14.33,-2.57 19.46,-7.67 5.1,-5.13 7.67,-11.49 7.67,-19.1 0,-7.63 -2.57,-14 -7.67,-19.11 -5.13,-5.12 -11.61,-7.67 -19.46,-7.67 h -37.13 c -6.67,0 -12.15,-2.14 -16.43,-6.42 -4.29,-4.29 -6.42,-9.78 -6.42,-16.44 v -0.7 c 0,-6.67 2.13,-12.15 6.42,-16.43 4.28,-4.28 9.76,-6.42 16.43,-6.42 h 54.97 c 7.87,0 14.33,-2.57 19.46,-7.68 5.12,-5.12 7.68,-11.49 7.68,-19.1 0,-7.63 -2.56,-13.99 -7.68,-19.1 -5.13,-5.13 -11.59,-7.68 -19.46,-7.68 h -133.16 v 249.91" /><path
         id="path32"
         style="fill:#0e0f0e;fill-opacity:1;fill-rule:nonzero;stroke:none"
         d="m 3096.3,4561.54 c 0,8.34 -2.8,15.29 -8.38,20.89 -5.6,5.59 -12.57,8.4 -20.88,8.4 h -54.64 v 53.54 h 224.93 v -53.54 h -54.62 c -8.33,0 -15.31,-2.81 -20.9,-8.4 -5.6,-5.6 -8.39,-12.55 -8.39,-20.89 v -167.08 h -57.12 v 167.08" /><path
         id="path34"
         style="fill:#0e0f0e;fill-opacity:1;fill-rule:nonzero;stroke:none"
         d="m 3331.58,4644.37 h 133.16 c 7.87,0 14.34,-2.55 19.46,-7.67 5.12,-5.13 7.68,-11.48 7.68,-19.11 0,-7.61 -2.56,-13.98 -7.68,-19.09 -5.12,-5.12 -11.59,-7.67 -19.46,-7.67 h -56.77 c -5.94,0 -10.93,-1.97 -14.98,-5.9 -4.05,-3.93 -6.07,-8.99 -6.07,-15.17 v -0.72 c 0,-5.95 2.02,-10.94 6.07,-14.99 4.05,-4.05 9.04,-6.07 14.98,-6.07 h 38.93 c 7.85,0 14.33,-2.57 19.46,-7.67 5.1,-5.13 7.67,-11.49 7.67,-19.1 0,-7.63 -2.57,-14 -7.67,-19.11 -5.13,-5.12 -11.61,-7.67 -19.46,-7.67 h -37.13 c -6.67,0 -12.15,-2.14 -16.43,-6.42 -4.28,-4.29 -6.42,-9.78 -6.42,-16.44 v -0.7 c 0,-6.67 2.14,-12.15 6.42,-16.43 4.28,-4.28 9.76,-6.42 16.43,-6.42 h 54.97 c 7.87,0 14.34,-2.57 19.46,-7.68 5.12,-5.12 7.68,-11.49 7.68,-19.1 0,-7.63 -2.56,-13.99 -7.68,-19.1 -5.12,-5.13 -11.59,-7.68 -19.46,-7.68 h -133.16 v 249.91" /><path
         id="path36"
         style="fill:#0e0f0e;fill-opacity:1;fill-rule:nonzero;stroke:none"
         d="m 2117.26,3727.39 c -34.87,87.46 -104.83,168.12 -202.26,225.21 -243.49,132.92 -525.73,139.22 -726.26,119.09 -43.75,-5.17 -85.52,-11.78 -126.19,-19.17 C 515.461,3931.16 246.379,3622.06 130.102,3435.92 89.6328,3364.4 58.1094,3292.89 33.8945,3224.78 -35.4766,2992.52 -19.7578,2692.56 287.199,2389.17 c 145.879,-128.33 441.973,-302.86 938.571,-249.35 683.76,97.13 818.18,331.35 832.26,498.39 0.01,5.81 0.1,11.81 0.35,18.25 0.45,11.77 0.03,23.02 -0.84,33.99 -0.29,2.92 -0.38,6.03 -0.73,8.89 -0.46,4.05 -1.11,7.96 -1.74,11.89 -0.81,5.08 -1.81,9.95 -2.83,14.81 -27.71,125.79 -141.54,191.76 -205.72,219.51 -157.25,61.42 -382.45,59.92 -593.97,-135.47 -21.5,-19.86 -43.42,-37.91 -65.57,-54.6 -63.01,-52.31 -116.08,-82.86 -156.85,-100.9 -2.88,-1.36 -5.65,-2.73 -8.87,-4.07 -80.158,-33.45 -134.94,-30.3 -134.94,-30.3 l -0.277,0.01 c -41.758,-3.73 -92.359,-2.64 -152.414,8.49 -253.5,42.49 -321.168,245.19 -321.168,245.19 -63.035,175.34 -94.965,481.2 220.012,818.83 111.574,107.65 358.953,278.4 808.937,282.53 l -0.06,-0.27 c 0,0 135,1.19 249.87,-27.92 13.97,-3.69 27.12,-7.66 39.74,-11.79 3.98,-1.36 8.06,-2.63 11.92,-4.08 5.44,-2.04 10.11,-3.69 14.43,-5.17 85.65,-32.25 137.6,-73.59 168.2,-108.07 23.06,-25.99 36.31,-55.12 39.01,-83.94 2.72,-29.14 -8.44,-57.47 -27.07,-80.04 -68.51,-83.02 -149.91,-85.37 -447.68,-48.65 -324.83,40.06 -466.07,0 -466.07,0 C 455.246,3465.12 526.082,3118.78 526.082,3118.78 l 0.051,-0.02 c 0.004,-1.41 0.129,-2.8 0.156,-4.2 9.109,-57.4 43.098,-169.1 169.41,-226.81 40.461,-17.14 90.953,-29.43 153.598,-29.43 183.113,0 280.603,109.89 328.703,162.35 3.53,3.86 6.9,7.76 10.29,11.74 4.79,5.62 14.1,15.75 28.2,28.22 61.92,59.12 218.49,193.22 393.35,224.22 203.37,36.06 476.3,62.44 523.28,276.13 11.64,52.93 6.19,111.07 -15.86,166.41" /><path
         id="path38"
         style="fill:#000000;fill-opacity:1;fill-rule:nonzero;stroke:none"
         d="m 4567.83,3917.8 c -79.47,0 -142.09,66.45 -142.09,145.91 0,80.97 62.62,145.92 142.09,145.92 80.97,0 142.85,-64.95 142.85,-145.92 0,-79.46 -61.88,-145.91 -142.85,-145.91 z m 0.02,324.62 c -99.36,0 -178.69,-80.07 -178.69,-178.71 0,-98.63 79.33,-178.68 178.69,-178.68 99.35,0 178.68,80.05 178.68,178.68 0,98.64 -79.33,178.71 -178.68,178.71" /><path
         id="path40"
         style="fill:#000000;fill-opacity:1;fill-rule:nonzero;stroke:none"
         d="m 4568.13,4069.8 c -14.43,0 -25.81,11.39 -25.81,25.07 0,13.68 11.38,25.83 25.81,25.83 14.45,0 25.07,-12.15 25.07,-25.83 0,-13.68 -10.62,-25.07 -25.07,-25.07 z m 37.99,-24.3 c 16.72,9.87 27.34,28.09 27.34,49.37 0,33.41 -25.05,60.01 -63.8,60.01 h -63.05 v -182.31 h 40.26 v 63.8 h 18.98 l 35.71,-63.8 h 46.35 l -41.79,72.93" /></g></g></svg>