<svg width="270" height="30" viewBox="0 0 270 30" fill="none" xmlns="http://www.w3.org/2000/svg">
<path d="M16.038 29.7111C13.0968 29.7111 10.4734 29.0485 8.17676 27.7322C5.88011 26.4159 4.09183 24.6186 2.81188 22.3491C1.53193 20.0797 0.896484 17.5834 0.896484 14.8601C0.896484 12.1368 1.53193 9.64043 2.81188 7.37101C4.09183 5.1016 5.88011 3.30422 8.17676 1.98796C10.4734 0.671702 13.0878 0.0090332 16.038 0.0090332C18.0714 0.0090332 19.9868 0.399372 21.7751 1.18913C23.5634 1.96981 25.0975 3.0682 26.3956 4.46616L22.1836 9.16839C21.3848 8.36956 20.4588 7.7432 19.3968 7.28931C18.3347 6.83543 17.2181 6.60849 16.029 6.60849C14.513 6.60849 13.1513 6.96252 11.9258 7.67965C10.7003 8.39679 9.73812 9.38625 9.03914 10.648C8.34016 11.9098 7.98613 13.3169 7.98613 14.8601C7.98613 16.4033 8.34016 17.8012 9.03914 19.0721C9.73812 20.3339 10.7003 21.3234 11.9258 22.0405C13.1513 22.7576 14.5221 23.1117 16.029 23.1117C17.209 23.1117 18.3347 22.8847 19.3968 22.4308C20.4588 21.977 21.3848 21.3506 22.1836 20.5518L26.4319 25.254C25.1338 26.661 23.5906 27.7504 21.7932 28.531C19.9959 29.3117 18.0714 29.7111 16.038 29.7111Z" fill="#BCBCE1"/>
<path d="M49.9072 29.7111C47.0477 29.7111 44.4606 29.0485 42.1549 27.7322C39.84 26.4159 38.0336 24.6186 36.7264 22.3491C35.4192 20.0797 34.7656 17.5834 34.7656 14.8601C34.7656 12.1368 35.4192 9.64043 36.7264 7.37101C38.0336 5.1016 39.84 3.30422 42.1549 1.98796C44.4697 0.671702 47.0477 0.0090332 49.9072 0.0090332C52.7666 0.0090332 55.3538 0.671702 57.6595 1.98796C59.9743 3.30422 61.7807 5.1016 63.0879 7.37101C64.3951 9.64043 65.0487 12.1368 65.0487 14.8601C65.0487 17.5834 64.3951 20.0797 63.0879 22.3491C61.7807 24.6186 59.9743 26.4159 57.6595 27.7322C55.3447 29.0485 52.7666 29.7111 49.9072 29.7111ZM49.9072 23.1117C51.3687 23.1117 52.7031 22.7395 53.9104 21.9951C55.1177 21.2508 56.08 20.2522 56.7971 18.9813C57.5143 17.7195 57.8683 16.3397 57.8683 14.8601C57.8683 13.3804 57.5052 12.0006 56.7971 10.7388C56.08 9.47703 55.1177 8.46941 53.9104 7.72504C52.7031 6.98067 51.3687 6.60849 49.9072 6.60849C48.4456 6.60849 47.1203 6.98067 45.9039 7.72504C44.6966 8.46941 43.7343 9.46795 43.0172 10.7388C42.3001 12.0006 41.9461 13.3804 41.9461 14.8601C41.9461 16.3397 42.3001 17.7195 43.0172 18.9813C43.7343 20.2431 44.6966 21.2508 45.9039 21.9951C47.1113 22.7395 48.4456 23.1117 49.9072 23.1117Z" fill="#BCBCE1"/>
<path d="M97.0195 29.7112C95.2856 29.7112 93.7333 29.3208 92.3535 28.5311C90.9737 27.7504 89.9026 26.6702 89.1128 25.2904C88.3321 23.9196 87.9327 22.3764 87.9327 20.6698V8.70547C87.9327 7.87941 87.6967 7.21674 87.2337 6.72654C86.7617 6.22727 86.1716 5.98218 85.4636 5.98218C84.7555 5.98218 84.1564 6.22727 83.6934 6.72654C83.2214 7.22582 82.9945 7.87941 82.9945 8.70547V29.2936H76.395V9.12305C76.395 7.36198 76.7853 5.79155 77.5751 4.39359C78.3558 3.0047 79.436 1.92446 80.8158 1.15286C82.1956 0.381262 83.7479 0 85.4817 0C87.2156 0 88.7679 0.390339 90.1477 1.15286C91.5275 1.91539 92.5986 3.0047 93.3884 4.39359C94.1691 5.78247 94.5685 7.36198 94.5685 9.12305V20.9603C94.5685 21.7864 94.8045 22.449 95.2675 22.9392C95.7304 23.4294 96.3295 23.6836 97.0376 23.6836C97.7457 23.6836 98.3448 23.4385 98.8078 22.9392C99.2707 22.44 99.5067 21.7864 99.5067 20.9603V0.417572H106.106V20.6698C106.106 22.3764 105.716 23.9196 104.935 25.2904C104.155 26.6702 103.074 27.7504 101.694 28.5311C100.315 29.3118 98.7624 29.7112 97.0285 29.7112H97.0195Z" fill="#BCBCE1"/>
<path d="M132.577 29.7111C129.635 29.7111 127.012 29.0485 124.715 27.7322C122.419 26.4159 120.63 24.6186 119.35 22.3491C118.07 20.0797 117.435 17.5834 117.435 14.8601C117.435 12.1368 118.07 9.64043 119.35 7.37101C120.63 5.1016 122.419 3.30422 124.715 1.98796C127.012 0.671702 129.626 0.0090332 132.577 0.0090332C134.61 0.0090332 136.525 0.399372 138.314 1.18913C140.102 1.96981 141.636 3.0682 142.934 4.46616L138.722 9.16839C137.923 8.36956 136.997 7.7432 135.935 7.28931C134.873 6.83543 133.757 6.60849 132.567 6.60849C131.052 6.60849 129.69 6.96252 128.464 7.67965C127.239 8.39679 126.277 9.38625 125.578 10.648C124.879 11.9098 124.525 13.3169 124.525 14.8601C124.525 16.4033 124.879 17.8012 125.578 19.0721C126.277 20.3339 127.239 21.3234 128.464 22.0405C129.69 22.7576 131.061 23.1117 132.567 23.1117C133.748 23.1117 134.873 22.8847 135.935 22.4308C136.997 21.977 137.923 21.3506 138.722 20.5518L142.971 25.254C141.672 26.661 140.129 27.7504 138.332 28.531C136.534 29.3117 134.61 29.7111 132.577 29.7111Z" fill="#BCBCE1"/>
<path d="M153.619 0.41748H163.395C165.156 0.41748 166.781 0.825975 168.261 1.65204C169.75 2.47811 170.921 3.59466 171.765 5.01078C172.618 6.42689 173.045 7.98825 173.045 9.69485C173.045 11.4014 172.618 13.0445 171.765 14.4606C170.912 15.8767 169.75 16.9842 168.279 17.783C166.809 18.5819 165.175 18.9813 163.395 18.9813H162.696L167.644 16.4668L175.069 29.2935H167.19L160.963 18.1915L162.242 18.9722H160.218V29.2844H153.619V0.41748ZM162.941 12.7994C163.495 12.7994 163.994 12.6632 164.448 12.3909C164.902 12.1186 165.265 11.7373 165.547 11.2562C165.819 10.7751 165.955 10.2577 165.955 9.713C165.955 9.16834 165.819 8.65092 165.547 8.1698C165.274 7.68868 164.902 7.30742 164.448 7.03509C163.994 6.76276 163.495 6.6266 162.941 6.6266H162.896C162.315 6.6266 161.798 6.76276 161.326 7.03509C160.854 7.30742 160.481 7.67961 160.209 8.15165C159.937 8.61461 159.801 9.14111 159.801 9.72208C159.801 10.303 159.937 10.8205 160.209 11.2925C160.481 11.7646 160.854 12.1367 161.326 12.4091C161.789 12.6814 162.315 12.8176 162.896 12.8176H162.941V12.7994Z" fill="#BCBCE1"/>
<path d="M185.754 0.41748H201.14C202.048 0.41748 202.802 0.717043 203.392 1.30709C203.982 1.89714 204.281 2.63243 204.281 3.51296C204.281 4.39349 203.982 5.12878 203.392 5.71883C202.802 6.30888 202.048 6.60844 201.14 6.60844H194.577C193.887 6.60844 193.315 6.83538 192.843 7.28927C192.371 7.74315 192.144 8.32412 192.144 9.04125V9.12295C192.144 9.81286 192.38 10.3847 192.843 10.8568C193.315 11.3288 193.887 11.5558 194.577 11.5558H199.071C199.978 11.5558 200.723 11.8553 201.313 12.4454C201.903 13.0354 202.202 13.7707 202.202 14.6512C202.202 15.5318 201.903 16.2671 201.313 16.8571C200.723 17.4472 199.969 17.7467 199.071 17.7467H194.777C194.005 17.7467 193.37 17.9918 192.88 18.4911C192.389 18.9904 192.135 19.6167 192.135 20.3883V20.47C192.135 21.2416 192.38 21.8771 192.88 22.3673C193.379 22.8574 194.005 23.1116 194.777 23.1116H201.131C202.039 23.1116 202.792 23.4112 203.383 24.0012C203.973 24.5913 204.272 25.3266 204.272 26.2071C204.272 27.0876 203.973 27.8229 203.383 28.413C202.792 29.003 202.039 29.3026 201.131 29.3026H185.745V0.41748H185.754Z" fill="#BCBCE1"/>
<path d="M223.417 9.99441C223.417 9.03218 223.09 8.22427 222.445 7.57975C221.801 6.93524 220.993 6.60844 220.031 6.60844H213.722V0.41748H239.711V6.60844H233.402C232.44 6.60844 231.632 6.93524 230.987 7.57975C230.343 8.22427 230.016 9.03218 230.016 9.99441V29.3026H223.417V9.99441Z" fill="#BCBCE1"/>
<path d="M250.614 0.41748H266C266.908 0.41748 267.661 0.717043 268.251 1.30709C268.842 1.89714 269.141 2.63243 269.141 3.51296C269.141 4.39349 268.842 5.12878 268.251 5.71883C267.661 6.30888 266.908 6.60844 266 6.60844H259.437C258.747 6.60844 258.175 6.83538 257.703 7.28927C257.231 7.74315 257.004 8.32412 257.004 9.04125V9.12295C257.004 9.81286 257.24 10.3847 257.703 10.8568C258.175 11.3288 258.747 11.5558 259.437 11.5558H263.93C264.838 11.5558 265.583 11.8553 266.173 12.4454C266.763 13.0354 267.062 13.7707 267.062 14.6512C267.062 15.5318 266.763 16.2671 266.173 16.8571C265.583 17.4472 264.829 17.7467 263.93 17.7467H259.637C258.865 17.7467 258.23 17.9918 257.74 18.4911C257.249 18.9904 256.995 19.6167 256.995 20.3883V20.47C256.995 21.2416 257.24 21.8771 257.74 22.3673C258.239 22.8574 258.865 23.1116 259.637 23.1116H265.991C266.899 23.1116 267.652 23.4112 268.242 24.0012C268.832 24.5913 269.132 25.3266 269.132 26.2071C269.132 27.0876 268.832 27.8229 268.242 28.413C267.652 29.003 266.899 29.3026 265.991 29.3026H250.604V0.41748H250.614Z" fill="#BCBCE1"/>
</svg>
