<svg width="45" height="45" viewBox="0 0 45 45" fill="none" xmlns="http://www.w3.org/2000/svg">
<path d="M22.7017 0.697388C10.5558 0.697388 0.86084 10.4831 0.86084 22.5382C0.86084 34.5934 10.5558 44.3791 22.7017 44.3791C34.8476 44.3791 44.5425 34.5934 44.5425 22.5382C44.5425 10.4831 34.8476 0.697388 22.7017 0.697388ZM22.7017 40.3758C12.9886 40.3758 5.33612 32.2513 5.33612 22.5382C5.33612 12.8251 12.9886 4.70064 22.7017 4.70064C32.4148 4.70064 40.1671 12.6436 40.1671 22.5382C40.1671 32.4329 32.6054 40.3758 22.7017 40.3758Z" fill="#BCBCE1"/>
<path d="M27.3765 24.7624C29.419 23.5551 30.7171 21.331 30.7171 18.7257C30.7171 14.6408 27.6579 11.391 22.9193 11.391H15.2124V33.6766H20.1325V25.8789H22.4564L26.8228 33.6766H32.4872L27.3765 24.7624ZM22.7378 21.794C20.9768 21.794 19.5788 20.4051 19.5788 18.7257C19.5788 17.0464 20.9677 15.5667 22.7378 15.5667C24.508 15.5667 25.8061 17.0554 25.8061 18.7257C25.8061 20.396 24.508 21.794 22.7378 21.794Z" fill="#BCBCE1"/>
</svg>
