<svg width="792" height="186" viewBox="0 0 792 186" fill="none" xmlns="http://www.w3.org/2000/svg">
<g clip-path="url(#clip0_169_27)">
<path d="M40.6515 79.7504C32.738 79.7504 25.7279 77.979 19.5489 74.4361C13.3698 70.8933 8.60005 66.0851 5.16726 59.9755C1.73446 53.8659 0.0361328 47.1778 0.0361328 39.8752C0.0361328 32.5726 1.7706 25.8484 5.16726 19.7749C8.60005 13.6653 13.406 8.85714 19.5489 5.31429C25.7279 1.77143 32.738 0 40.6515 0C46.1079 0 51.239 1.0484 56.0449 3.14519C60.8508 5.24198 64.9702 8.17026 68.4391 11.9662L57.1651 24.5831C55.0331 22.4501 52.5398 20.751 49.6852 19.558C46.8305 18.3289 43.8314 17.7143 40.6515 17.7143C36.6044 17.7143 32.9187 18.6904 29.6304 20.6064C26.3422 22.5224 23.7766 25.1977 21.8976 28.5959C20.0186 31.9942 19.0791 35.7539 19.0791 39.8752C19.0791 43.9965 20.0186 47.7924 21.8976 51.1907C23.7766 54.5889 26.3783 57.2641 29.6304 59.1802C32.9187 61.0962 36.6044 62.0723 40.6515 62.0723C43.8314 62.0723 46.8305 61.4577 49.6852 60.2286C52.5398 58.9994 55.0331 57.3364 57.1651 55.2035L68.5836 67.8204C65.1147 71.5802 60.9592 74.5085 56.1172 76.6414C51.2751 78.7382 46.144 79.7866 40.6877 79.7866L40.6515 79.7504Z" fill="black"/>
<path d="M131.53 79.7504C123.834 79.7504 116.896 77.979 110.717 74.4361C104.502 70.8933 99.6596 66.0851 96.1546 59.9755C92.6495 53.8659 90.8789 47.1778 90.8789 39.8752C90.8789 32.5726 92.6495 25.8484 96.1546 19.7749C99.6596 13.6653 104.502 8.85714 110.717 5.31429C116.932 1.77143 123.87 0 131.53 0C139.191 0 146.129 1.77143 152.344 5.31429C158.559 8.85714 163.401 13.6653 166.906 19.7749C170.411 25.8484 172.182 32.5726 172.182 39.8752C172.182 47.1778 170.411 53.902 166.906 59.9755C163.401 66.049 158.559 70.8933 152.344 74.4361C146.129 77.979 139.191 79.7504 131.53 79.7504ZM131.53 62.0361C135.433 62.0361 139.01 61.0239 142.262 59.0356C145.515 57.0472 148.08 54.3359 149.995 50.9376C151.91 47.5394 152.886 43.8519 152.886 39.8752C152.886 35.8985 151.91 32.2111 149.995 28.8128C148.08 25.4146 145.478 22.7032 142.262 20.7149C139.046 18.7265 135.433 17.7143 131.53 17.7143C127.628 17.7143 124.051 18.7265 120.798 20.7149C117.546 22.7032 114.981 25.4146 113.066 28.8128C111.15 32.2111 110.175 35.8985 110.175 39.8752C110.175 43.8519 111.15 47.5394 113.066 50.9376C114.981 54.3359 117.582 57.0111 120.798 59.0356C124.051 61.0239 127.628 62.0361 131.53 62.0361Z" fill="black"/>
<path d="M257.966 79.7505C253.304 79.7505 249.149 78.7021 245.463 76.6053C241.777 74.5085 238.887 71.6163 236.755 67.8927C234.659 64.2053 233.611 60.084 233.611 55.4927V23.3901C233.611 21.1849 232.997 19.4134 231.732 18.0758C230.467 16.7382 228.877 16.0875 226.962 16.0875C225.047 16.0875 223.457 16.7382 222.192 18.0758C220.928 19.4134 220.313 21.1849 220.313 23.3901V78.6659H202.607V24.4747C202.607 19.7388 203.655 15.5091 205.751 11.7854C207.847 8.06183 210.738 5.1697 214.46 3.07291C218.145 1.01226 222.337 -0.0361328 226.962 -0.0361328C231.587 -0.0361328 235.779 1.01226 239.465 3.07291C243.151 5.13355 246.041 8.02567 248.137 11.7854C250.233 15.5091 251.281 19.7388 251.281 24.4747V56.2519C251.281 58.4572 251.895 60.2286 253.16 61.5662C254.425 62.9038 256.014 63.5545 257.93 63.5545C259.845 63.5545 261.435 62.9038 262.699 61.5662C263.964 60.2286 264.578 58.4572 264.578 56.2519V1.12072H282.284V55.4927C282.284 60.084 281.237 64.2053 279.141 67.8927C277.045 71.5802 274.154 74.4723 270.468 76.6053C266.783 78.7021 262.591 79.7505 257.966 79.7505Z" fill="black"/>
<path d="M353.397 79.7504C345.484 79.7504 338.474 77.979 332.294 74.4361C326.115 70.8933 321.346 66.0851 317.913 59.9755C314.48 53.8659 312.782 47.1778 312.782 39.8752C312.782 32.5726 314.516 25.8484 317.913 19.7749C321.346 13.6653 326.152 8.85714 332.294 5.31429C338.474 1.77143 345.484 0 353.397 0C358.853 0 363.985 1.0484 368.79 3.14519C373.596 5.24198 377.716 8.17026 381.185 11.9662L369.911 24.5831C367.779 22.4501 365.285 20.751 362.431 19.558C359.576 18.3289 356.577 17.7143 353.397 17.7143C349.35 17.7143 345.664 18.6904 342.376 20.6064C339.088 22.5224 336.522 25.1977 334.643 28.5959C332.764 31.9942 331.825 35.7539 331.825 39.8752C331.825 43.9965 332.764 47.7924 334.643 51.1907C336.522 54.5889 339.124 57.2641 342.376 59.1802C345.628 61.0962 349.35 62.0723 353.397 62.0723C356.577 62.0723 359.576 61.4577 362.431 60.2286C365.285 58.9994 367.779 57.3364 369.911 55.2035L381.329 67.8204C377.86 71.5802 373.705 74.5085 368.863 76.6414C364.021 78.7382 358.89 79.7866 353.433 79.7866L353.397 79.7504Z" fill="black"/>
<path d="M409.876 1.12073H436.11C440.843 1.12073 445.18 2.24143 449.191 4.44668C453.201 6.65192 456.309 9.68866 458.586 13.4846C460.862 17.2805 462.018 21.4741 462.018 26.0653C462.018 30.6566 460.862 35.0671 458.586 38.863C456.309 42.6589 453.165 45.6233 449.227 47.7924C445.288 49.9254 440.916 51.0099 436.11 51.0099H434.231L447.528 44.2496L467.475 78.7021H446.336L429.606 48.9131L433.038 51.0099H427.618V78.7021H409.912V1.12073H409.876ZM434.881 34.344C436.363 34.344 437.7 33.9825 438.928 33.2233C440.157 32.5003 441.132 31.4519 441.855 30.1866C442.578 28.9213 442.975 27.5114 442.975 26.0292C442.975 24.547 442.614 23.1732 441.855 21.8717C441.132 20.5703 440.157 19.558 438.928 18.835C437.7 18.112 436.363 17.7143 434.881 17.7143H434.773C433.219 17.7143 431.81 18.0758 430.581 18.835C429.316 19.558 428.341 20.5703 427.582 21.8356C426.859 23.1009 426.462 24.5108 426.462 26.0292C426.462 27.5475 426.823 28.9936 427.582 30.2228C428.305 31.4881 429.316 32.4642 430.581 33.2233C431.846 33.9464 433.255 34.344 434.773 34.344H434.881Z" fill="black"/>
<path d="M496.129 1.12073H537.431C539.852 1.12073 541.876 1.91606 543.466 3.50673C545.056 5.0974 545.851 7.08574 545.851 9.4356C545.851 11.7854 545.056 13.7738 543.466 15.3645C541.876 16.9551 539.852 17.7505 537.431 17.7505H519.834C517.991 17.7505 516.437 18.365 515.172 19.5942C513.908 20.8234 513.293 22.3779 513.293 24.2939V24.5108C513.293 26.3545 513.908 27.9091 515.172 29.1744C516.437 30.4397 517.991 31.0543 519.834 31.0543H531.903C534.324 31.0543 536.347 31.8496 537.937 33.4403C539.527 35.0309 540.322 37.0193 540.322 39.3691C540.322 41.719 539.527 43.7073 537.937 45.298C536.347 46.8887 534.324 47.684 531.903 47.684H520.376C518.316 47.684 516.618 48.3347 515.281 49.6723C513.944 51.0099 513.293 52.7091 513.293 54.7697V54.9866C513.293 57.0473 513.944 58.7464 515.281 60.084C516.618 61.4216 518.316 62.0723 520.376 62.0723H537.431C539.852 62.0723 541.876 62.8677 543.466 64.4583C545.056 66.049 545.851 68.0373 545.851 70.3872C545.851 72.7371 545.056 74.7254 543.466 76.3161C541.876 77.9067 539.852 78.7021 537.431 78.7021H496.129V1.12073Z" fill="black"/>
<path d="M597.198 26.7884C597.198 24.2216 596.331 22.0525 594.596 20.3172C592.862 18.582 590.694 17.7143 588.128 17.7143H571.181V1.12073H640.921V17.7505H623.974C621.372 17.7505 619.24 18.6181 617.506 20.3534C615.771 22.0887 614.904 24.2578 614.904 26.8245V78.6659H597.198V26.7884Z" fill="black"/>
<path d="M670.154 1.12073H711.456C713.877 1.12073 715.9 1.91606 717.49 3.50673C719.08 5.0974 719.875 7.08574 719.875 9.4356C719.875 11.7854 719.08 13.7738 717.49 15.3645C715.9 16.9551 713.877 17.7505 711.456 17.7505H693.858C692.015 17.7505 690.461 18.365 689.197 19.5942C687.932 20.8234 687.318 22.3779 687.318 24.2939V24.5108C687.318 26.3545 687.932 27.9091 689.197 29.1744C690.461 30.4397 692.015 31.0543 693.858 31.0543H705.927C708.348 31.0543 710.372 31.8496 711.962 33.4403C713.552 35.0309 714.347 37.0193 714.347 39.3691C714.347 41.719 713.552 43.7073 711.962 45.298C710.372 46.8887 708.348 47.684 705.927 47.684H694.4C692.34 47.684 690.642 48.3347 689.305 49.6723C687.968 51.0099 687.318 52.7091 687.318 54.7697V54.9866C687.318 57.0473 687.968 58.7464 689.305 60.084C690.642 61.4216 692.34 62.0723 694.4 62.0723H711.456C713.877 62.0723 715.9 62.8677 717.49 64.4583C719.08 66.049 719.875 68.0373 719.875 70.3872C719.875 72.7371 719.08 74.7254 717.49 76.3161C715.9 77.9067 713.877 78.7021 711.456 78.7021H670.154V1.12073Z" fill="black"/>
<path d="M232.96 185.819C225.047 185.819 218.036 184.048 211.857 180.505C205.678 176.962 200.909 172.154 197.476 166.044C194.043 159.935 192.345 153.247 192.345 145.944C192.345 138.641 194.079 131.917 197.476 125.844C200.909 119.734 205.715 114.926 211.857 111.383C218.036 107.84 225.047 106.069 232.96 106.069C238.416 106.069 243.548 107.117 248.354 109.214C253.159 111.311 257.279 114.239 260.748 118.035L249.474 130.652C247.342 128.519 244.848 126.82 241.994 125.627C239.139 124.398 236.14 123.783 232.96 123.783C228.913 123.783 225.227 124.759 221.939 126.675C218.651 128.591 216.085 131.267 214.206 134.665C212.327 138.063 211.388 141.823 211.388 145.944C211.388 150.065 212.327 153.861 214.206 157.26C216.085 160.658 218.687 163.333 221.939 165.249C225.191 167.165 228.913 168.141 232.96 168.141C236.14 168.141 239.139 167.527 241.994 166.297C244.848 165.068 247.342 163.405 249.474 161.272L260.892 173.889C257.423 177.649 253.268 180.577 248.426 182.71C243.584 184.807 238.453 185.855 232.996 185.855L232.96 185.819Z" fill="black"/>
<path d="M307.47 118.035C310.578 110.046 315.311 106.069 321.635 106.069C327.958 106.069 332.692 110.046 335.8 118.035L361.491 184.699H342.015L319.539 124H323.189L300.713 184.699H281.778L307.47 118.035ZM301.146 151.692H342.123V167.743H301.146V151.692Z" fill="black"/>
<path d="M388.592 107.153H406.298V139.726L403.877 138.714L431.448 109.359C433.435 107.226 435.712 106.069 438.241 105.888C440.771 105.707 443.047 106.503 445.071 108.274C446.986 110.045 447.925 112.251 447.853 114.854C447.781 117.457 446.733 119.843 444.746 122.012L422.595 145.619L444.962 169.443C446.95 171.648 447.962 174.07 447.998 176.637C448.034 179.203 447.058 181.481 445.071 183.397C443.011 185.313 440.662 186.181 438.025 186C435.387 185.819 433.11 184.662 431.123 182.529L403.877 153.5L406.298 152.487V184.735H388.592V107.189V107.153Z" fill="black"/>
<path d="M477.845 107.153H519.147C521.568 107.153 523.592 107.949 525.182 109.539C526.772 111.13 527.567 113.118 527.567 115.468C527.567 117.818 526.772 119.806 525.182 121.397C523.592 122.988 521.568 123.783 519.147 123.783H501.55C499.707 123.783 498.153 124.398 496.888 125.627C495.623 126.856 495.009 128.41 495.009 130.326V130.543C495.009 132.387 495.623 133.942 496.888 135.207C498.153 136.472 499.707 137.087 501.55 137.087H513.619C516.04 137.087 518.063 137.882 519.653 139.473C521.243 141.064 522.038 143.052 522.038 145.402C522.038 147.752 521.243 149.74 519.653 151.331C518.063 152.921 516.04 153.717 513.619 153.717H502.092C500.032 153.717 498.334 154.367 496.997 155.705C495.66 157.043 495.009 158.742 495.009 160.802V161.019C495.009 163.08 495.66 164.779 496.997 166.117C498.334 167.454 500.032 168.105 502.092 168.105H519.147C521.568 168.105 523.592 168.9 525.182 170.491C526.772 172.082 527.567 174.07 527.567 176.42C527.567 178.77 526.772 180.758 525.182 182.349C523.592 183.939 521.568 184.735 519.147 184.735H477.845V107.189V107.153Z" fill="black"/>
<path d="M768.946 0C756.118 0 745.892 10.3394 745.892 23.0647C745.892 35.7901 756.118 46.1294 768.946 46.1294C781.774 46.1294 792 35.7901 792 23.0647C792 10.3394 781.774 0 768.946 0ZM768.946 41.8997C758.684 41.8997 750.59 33.3318 750.59 23.0647C750.59 12.7977 758.684 4.22974 768.946 4.22974C779.208 4.22974 787.375 12.6169 787.375 23.0647C787.375 33.5125 779.389 41.8997 768.946 41.8997Z" fill="black"/>
<path d="M773.897 25.4146C776.065 24.1492 777.438 21.7994 777.438 19.0519C777.438 14.7498 774.222 11.3154 769.199 11.3154H761.069V34.8501H766.272V26.6076H768.729L773.355 34.8501H779.353L773.969 25.4507L773.897 25.4146ZM768.982 22.3055C767.103 22.3055 765.658 20.8233 765.658 19.0519C765.658 17.2804 767.139 15.7259 768.982 15.7259C770.825 15.7259 772.235 17.2804 772.235 19.0519C772.235 20.8233 770.861 22.3055 768.982 22.3055Z" fill="black"/>
</g>
<defs>
<clipPath id="clip0_169_27">
<rect width="792" height="186" fill="white"/>
</clipPath>
</defs>
</svg>
