<svg width="474" height="102" viewBox="0 0 474 102" fill="none" xmlns="http://www.w3.org/2000/svg">
<path d="M472.761 45.0967C470.224 23.001 452.176 4.79327 429.438 1.56899C419.72 0.193931 410.385 1.42674 402.151 4.69844C385.636 11.2892 367.11 12.6643 350.833 5.64675C349.541 5.12518 348.248 4.6036 346.956 4.17686C341.403 2.1854 335.371 1 329.052 1C321.441 1 314.212 2.61214 307.75 5.45709C299.899 8.91844 291.33 10.6728 282.809 10.6728H282.713C276.346 10.6728 269.931 9.6771 263.852 7.73305C263.852 7.73305 263.756 7.73305 263.708 7.73305C261.698 7.06923 259.735 6.35799 257.82 5.5045C251.31 2.61214 244.129 1.04742 236.518 1.04742C228.906 1.04742 221.677 2.65955 215.215 5.5045C198.843 12.7591 180.078 11.3841 163.419 4.74585C162.844 4.50877 162.174 4.36652 161.599 4.12945C161.408 4.08203 161.264 4.03461 161.073 3.9872C153.413 1.37933 144.988 0.336178 136.132 1.61641C129.239 2.61214 122.824 4.98293 117.079 8.39687C102.383 12.7591 86.3463 10.9573 71.8892 5.22001C63.6554 1.94832 54.3685 0.668089 44.6028 2.09056C21.9119 5.22001 3.86458 23.4751 1.32741 45.5235C-2.1193 75.5851 22.1034 101 52.4536 101C60.0651 101 67.2936 99.3879 73.7562 96.5429C89.5057 89.5728 107.984 89.5728 123.733 96.5429C130.244 99.4353 137.425 101 145.036 101C152.648 101 159.876 99.3879 166.339 96.5429C182.088 89.5728 200.566 89.5728 216.316 96.5429C222.826 99.4353 230.007 101 237.619 101C245.23 101 252.459 99.3879 258.921 96.5429C274.671 89.5728 293.149 89.5728 308.898 96.5429C315.409 99.4353 322.59 101 330.201 101C340.062 101 349.254 98.2973 357.057 93.6505C371.179 89.2883 386.785 90.0944 400.38 96.1162C406.89 99.0085 414.071 100.573 421.682 100.573C452.033 100.573 476.207 75.1584 472.809 45.0967H472.761Z" stroke="black" stroke-miterlimit="10"/>
</svg>
