<svg width="595" height="471" viewBox="0 0 595 471" fill="none" xmlns="http://www.w3.org/2000/svg">
<g clip-path="url(#clip0_879_674)">
<path d="M595 471C592.977 470.289 590.966 469.558 588.964 468.827C504.262 438.109 421.605 402.936 348.503 361.751C308.212 339.054 265.76 312.859 243.993 280.85C235.817 268.825 230.723 255.44 234.479 242.329C241.135 219.099 285.557 205.673 316.977 198.541C354.656 189.986 422.921 179.868 439.219 152.901C450.242 134.658 420.331 117.864 400.598 107.964C337.384 76.2419 137.706 18.4268 63.5879 0H-2.95639e-05C-2.95639e-05 0 368.129 121.868 258.29 148.056C140.018 176.253 -168.013 178.556 161.463 471.007H595V471Z" fill="url(#paint0_linear_879_674)"/>
</g>
<defs>
<linearGradient id="paint0_linear_879_674" x1="311.412" y1="-184.046" x2="299.517" y2="471.043" gradientUnits="userSpaceOnUse">
<stop stop-color="white" stop-opacity="0"/>
<stop offset="1" stop-color="#008244"/>
</linearGradient>
<clipPath id="clip0_879_674">
<rect width="595" height="471" fill="white" transform="matrix(-1 0 0 1 595 0)"/>
</clipPath>
</defs>
</svg>
