<svg width="146" height="88" viewBox="0 0 146 88" fill="none" xmlns="http://www.w3.org/2000/svg">
<path d="M106.611 1.2457C101.984 0.749288 97.4918 1.02006 93.269 1.92262C79.882 4.7657 65.9109 4.7657 52.5687 1.92262C48.301 1.02006 43.8536 0.749288 39.2266 1.2457C19.4604 3.3216 3.42287 19.297 1.26657 39.0631C-1.56359 64.9216 18.517 86.7636 43.674 86.7636C45.9201 86.7636 48.1663 86.5831 50.3226 86.2221C65.3269 83.8303 80.421 83.8303 95.4253 86.2221C97.5817 86.5831 99.8278 86.7636 102.074 86.7636C127.231 86.7636 147.311 64.9216 144.481 39.0631C142.325 19.297 126.288 3.27647 106.566 1.2457H106.611Z" stroke="black" stroke-width="2" stroke-miterlimit="10"/>
</svg>
