<svg width="375" height="102" viewBox="0 0 375 102" fill="none" xmlns="http://www.w3.org/2000/svg">
<path d="M327.705 1.258C317.644 0.380805 308.114 2.34159 299.853 6.41796C286.14 13.1775 269.62 13.2291 255.959 6.41796C248.97 2.96078 241.08 1 232.767 1C224.454 1 216.512 2.96078 209.576 6.41796C195.915 13.1775 179.395 13.1775 165.787 6.41796C158.798 2.96078 150.908 1 142.595 1C134.282 1 126.34 2.96078 119.404 6.41796C105.743 13.1775 89.1697 13.1259 75.5089 6.41796C67.2489 2.34159 57.7181 0.380805 47.6578 1.258C23.6719 3.32198 3.9749 22.0526 1.32746 45.324C-2.11422 75.4582 22.0305 101 52.2643 101C60.6303 101 68.5196 99.0392 75.456 95.582C89.1168 88.8225 105.637 88.8225 119.245 95.582C126.234 99.0392 134.123 101 142.436 101C150.749 101 158.692 99.0392 165.628 95.582C179.289 88.8225 195.809 88.8225 209.417 95.582C216.406 99.0392 224.295 101 232.608 101C240.921 101 248.864 99.0392 255.8 95.582C269.461 88.8225 285.981 88.8225 299.589 95.582C306.578 99.0392 314.467 101 322.78 101C353.014 101 377.159 75.4582 373.717 45.324C371.07 22.0526 351.373 3.32198 327.44 1.258H327.705Z" stroke="black" stroke-miterlimit="10"/>
</svg>
