<svg width="32" height="32" viewBox="0 0 32 32" fill="none" xmlns="http://www.w3.org/2000/svg">
<g clip-path="url(#clip0_231_262)">
<path d="M24.9967 1.91135L23.8489 1.14526L23.0828 2.29309L24.2306 3.05918L24.9967 1.91135Z" fill="#BCBCE1"/>
<path d="M26.1458 2.68015L24.9979 1.91406L24.2318 3.06189L25.3797 3.82798L26.1458 2.68015Z" fill="#BCBCE1"/>
<path d="M24.2361 3.05588L23.0883 2.28979L22.3222 3.43762L23.4701 4.20371L24.2361 3.05588Z" fill="#BCBCE1"/>
<path d="M25.3824 3.82077L24.2346 3.05469L23.4685 4.20252L24.6164 4.9686L25.3824 3.82077Z" fill="#BCBCE1"/>
<path d="M23.4673 4.20505L22.3195 3.43896L21.5534 4.58679L22.7012 5.35288L23.4673 4.20505Z" fill="#BCBCE1"/>
<path d="M24.6219 4.96555L23.4741 4.19946L22.708 5.34729L23.8558 6.11338L24.6219 4.96555Z" fill="#BCBCE1"/>
<path d="M26.5315 4.58982L25.3837 3.82373L24.6176 4.97156L25.7654 5.73765L26.5315 4.58982Z" fill="#BCBCE1"/>
<path d="M25.7527 5.73874L24.6048 4.97266L23.8387 6.12049L24.9866 6.88657L25.7527 5.73874Z" fill="#BCBCE1"/>
<path d="M23.0871 2.28708L21.9392 1.521L21.1732 2.66883L22.321 3.43491L23.0871 2.28708Z" fill="#BCBCE1"/>
<path d="M22.3265 3.44162L21.1787 2.67554L20.4126 3.82337L21.5605 4.58945L22.3265 3.44162Z" fill="#BCBCE1"/>
<path d="M22.7123 5.35129L21.5645 4.58521L20.7984 5.73303L21.9462 6.49912L22.7123 5.35129Z" fill="#BCBCE1"/>
<path d="M23.843 6.11447L22.6952 5.34839L21.9291 6.49622L23.077 7.2623L23.843 6.11447Z" fill="#BCBCE1"/>
<path d="M25.76 0.77048L24.6122 0.00439453L23.8461 1.15222L24.9939 1.91831L25.76 0.77048Z" fill="black"/>
<path d="M26.9063 1.52561L25.7585 0.759521L24.9924 1.90735L26.1402 2.67344L26.9063 1.52561Z" fill="black"/>
<path d="M27.2921 3.43503L26.1442 2.66895L25.3781 3.81677L26.526 4.58286L27.2921 3.43503Z" fill="black"/>
<path d="M27.6706 5.35861L26.5228 4.59253L25.7567 5.74036L26.9045 6.50644L27.6706 5.35861Z" fill="black"/>
<path d="M23.8504 1.14621L22.7026 0.380127L21.9365 1.52796L23.0843 2.29404L23.8504 1.14621Z" fill="black"/>
<path d="M21.9325 1.52658L20.7846 0.760498L20.0186 1.90833L21.1664 2.67441L21.9325 1.52658Z" fill="black"/>
<path d="M21.1719 2.68112L20.0241 1.91504L19.258 3.06287L20.4058 3.82895L21.1719 2.68112Z" fill="black"/>
<path d="M21.5577 4.59079L20.4099 3.82471L19.6438 4.97254L20.7916 5.73862L21.5577 4.59079Z" fill="black"/>
<path d="M21.9334 6.50022L20.7856 5.73413L20.0195 6.88196L21.1674 7.64805L21.9334 6.50022Z" fill="black"/>
<path d="M23.0881 7.26096L21.9402 6.49487L21.1742 7.6427L22.322 8.40879L23.0881 7.26096Z" fill="black"/>
<path d="M24.9977 6.87522L23.8499 6.10913L23.0838 7.25696L24.2316 8.02305L24.9977 6.87522Z" fill="black"/>
<path d="M26.9073 6.49924L25.7595 5.73315L24.9934 6.88098L26.1412 7.64707L26.9073 6.49924Z" fill="black"/>
<path d="M9.60895 24.9765L8.46112 24.2104L7.69503 25.3583L8.84286 26.1244L9.60895 24.9765Z" fill="#BCBCE1"/>
<path d="M10.7636 25.747L9.61572 24.981L8.84964 26.1288L9.99747 26.8949L10.7636 25.747Z" fill="#BCBCE1"/>
<path d="M8.84564 26.1172L7.69781 25.3511L6.93173 26.4989L8.07956 27.265L8.84564 26.1172Z" fill="#BCBCE1"/>
<path d="M9.98471 26.886L8.83688 26.1199L8.0708 27.2677L9.21863 28.0338L9.98471 26.886Z" fill="#BCBCE1"/>
<path d="M8.07508 27.2719L6.92725 26.5059L6.16116 27.6537L7.30899 28.4198L8.07508 27.2719Z" fill="#BCBCE1"/>
<path d="M9.22415 28.0407L8.07632 27.2747L7.31024 28.4225L8.45807 29.1886L9.22415 28.0407Z" fill="#BCBCE1"/>
<path d="M11.1338 27.665L9.98593 26.8989L9.21984 28.0468L10.3677 28.8128L11.1338 27.665Z" fill="#BCBCE1"/>
<path d="M10.3705 28.7956L9.22263 28.0295L8.45654 29.1774L9.60437 29.9435L10.3705 28.7956Z" fill="#BCBCE1"/>
<path d="M7.69934 25.3623L6.55151 24.5962L5.78543 25.744L6.93326 26.5101L7.69934 25.3623Z" fill="#BCBCE1"/>
<path d="M6.93048 26.5112L5.78265 25.7451L5.01657 26.8929L6.1644 27.659L6.93048 26.5112Z" fill="#BCBCE1"/>
<path d="M7.30622 28.4209L6.15839 27.6548L5.3923 28.8026L6.54013 29.5687L7.30622 28.4209Z" fill="#BCBCE1"/>
<path d="M8.46085 29.1814L7.31302 28.4153L6.54693 29.5631L7.69476 30.3292L8.46085 29.1814Z" fill="#BCBCE1"/>
<path d="M10.3695 23.8318L9.22165 23.0657L8.45556 24.2135L9.60339 24.9796L10.3695 23.8318Z" fill="black"/>
<path d="M11.5186 24.6008L10.3707 23.8347L9.60464 24.9825L10.7525 25.7486L11.5186 24.6008Z" fill="black"/>
<path d="M11.8943 26.5102L10.7465 25.7441L9.9804 26.892L11.1282 27.6581L11.8943 26.5102Z" fill="black"/>
<path d="M12.2801 28.4199L11.1323 27.6538L10.3662 28.8016L11.514 29.5677L12.2801 28.4199Z" fill="black"/>
<path d="M8.45987 24.2075L7.31204 23.4414L6.54596 24.5892L7.69378 25.3553L8.45987 24.2075Z" fill="black"/>
<path d="M6.55026 24.5932L5.40244 23.8271L4.63635 24.975L5.78418 25.7411L6.55026 24.5932Z" fill="black"/>
<path d="M5.78971 25.738L4.64188 24.9719L3.87579 26.1198L5.02362 26.8858L5.78971 25.738Z" fill="black"/>
<path d="M6.16547 27.6477L5.01764 26.8816L4.25155 28.0294L5.39938 28.7955L6.16547 27.6477Z" fill="black"/>
<path d="M6.55124 29.5571L5.40341 28.791L4.63733 29.9388L5.78515 30.7049L6.55124 29.5571Z" fill="black"/>
<path d="M7.69199 30.3305L6.54416 29.5645L5.77807 30.7123L6.9259 31.4784L7.69199 30.3305Z" fill="black"/>
<path d="M9.60993 29.9504L8.4621 29.1843L7.69601 30.3322L8.84384 31.0982L9.60993 29.9504Z" fill="black"/>
<path d="M11.5195 29.5744L10.3717 28.8083L9.60562 29.9562L10.7534 30.7223L11.5195 29.5744Z" fill="black"/>
<path d="M28.8398 21.146L27.692 20.3799L26.9259 21.5277L28.0738 22.2938L28.8398 21.146Z" fill="#BCBCE1"/>
<path d="M29.9889 21.915L28.8411 21.1489L28.075 22.2968L29.2228 23.0628L29.9889 21.915Z" fill="#BCBCE1"/>
<path d="M28.0793 22.3008L26.9315 21.5347L26.1654 22.6825L27.3132 23.4486L28.0793 22.3008Z" fill="#BCBCE1"/>
<path d="M29.2284 23.0696L28.0806 22.3035L27.3145 23.4513L28.4623 24.2174L29.2284 23.0696Z" fill="#BCBCE1"/>
<path d="M27.3105 23.4497L26.1626 22.6836L25.3965 23.8314L26.5444 24.5975L27.3105 23.4497Z" fill="#BCBCE1"/>
<path d="M28.4551 24.2102L27.3073 23.4441L26.5412 24.5919L27.689 25.358L28.4551 24.2102Z" fill="#BCBCE1"/>
<path d="M30.3647 23.8244L29.2169 23.0583L28.4508 24.2062L29.5986 24.9723L30.3647 23.8244Z" fill="#BCBCE1"/>
<path d="M29.6042 24.9792L28.4563 24.2131L27.6902 25.361L28.8381 26.1271L29.6042 24.9792Z" fill="#BCBCE1"/>
<path d="M26.9302 21.5317L25.7824 20.7656L25.0163 21.9135L26.1642 22.6795L26.9302 21.5317Z" fill="#BCBCE1"/>
<path d="M26.1697 22.6765L25.0219 21.9104L24.2558 23.0582L25.4036 23.8243L26.1697 22.6765Z" fill="#BCBCE1"/>
<path d="M26.5455 24.5862L25.3976 23.8201L24.6316 24.9679L25.7794 25.734L26.5455 24.5862Z" fill="#BCBCE1"/>
<path d="M27.6945 25.365L26.5467 24.5989L25.7806 25.7467L26.9284 26.5128L27.6945 25.365Z" fill="#BCBCE1"/>
<path d="M29.6032 20.0053L28.4554 19.2393L27.6893 20.3871L28.8371 21.1532L29.6032 20.0053Z" fill="black"/>
<path d="M30.7578 20.7759L29.61 20.0098L28.8439 21.1576L29.9917 21.9237L30.7578 20.7759Z" fill="black"/>
<path d="M31.1436 22.6855L29.9957 21.9194L29.2296 23.0673L30.3775 23.8333L31.1436 22.6855Z" fill="black"/>
<path d="M31.5138 24.6035L30.3659 23.8374L29.5999 24.9852L30.7477 25.7513L31.5138 24.6035Z" fill="black"/>
<path d="M27.6935 20.3911L26.5457 19.625L25.7796 20.7728L26.9275 21.5389L27.6935 20.3911Z" fill="black"/>
<path d="M25.7839 20.7668L24.6361 20.0007L23.87 21.1486L25.0179 21.9146L25.7839 20.7668Z" fill="black"/>
<path d="M25.0151 21.916L23.8672 21.1499L23.1012 22.2977L24.249 23.0638L25.0151 21.916Z" fill="black"/>
<path d="M25.4008 23.8254L24.253 23.0593L23.4869 24.2072L24.6348 24.9732L25.4008 23.8254Z" fill="black"/>
<path d="M25.7766 25.7351L24.6288 24.969L23.8627 26.1168L25.0105 26.8829L25.7766 25.7351Z" fill="black"/>
<path d="M26.9312 26.4956L25.7834 25.7295L25.0173 26.8773L26.1651 27.6434L26.9312 26.4956Z" fill="black"/>
<path d="M28.8409 26.1198L27.693 25.3538L26.9269 26.5016L28.0748 27.2677L28.8409 26.1198Z" fill="black"/>
<path d="M30.7505 25.7341L29.6026 24.968L28.8365 26.1158L29.9844 26.8819L30.7505 25.7341Z" fill="black"/>
<path d="M5.73636 5.72678L4.58853 4.96069L3.82245 6.10852L4.97027 6.87461L5.73636 5.72678Z" fill="#BCBCE1"/>
<path d="M6.88544 6.50559L5.73761 5.7395L4.97152 6.88733L6.11935 7.65342L6.88544 6.50559Z" fill="#BCBCE1"/>
<path d="M4.9675 6.87571L3.81967 6.10962L3.05359 7.25745L4.20141 8.02353L4.9675 6.87571Z" fill="#BCBCE1"/>
<path d="M6.12213 7.6362L4.9743 6.87012L4.20822 8.01795L5.35605 8.78403L6.12213 7.6362Z" fill="#BCBCE1"/>
<path d="M4.21253 8.02219L3.0647 7.2561L2.29861 8.40393L3.44644 9.17002L4.21253 8.02219Z" fill="#BCBCE1"/>
<path d="M5.3516 8.79099L4.20377 8.0249L3.43768 9.17273L4.58551 9.93882L5.3516 8.79099Z" fill="#BCBCE1"/>
<path d="M7.2612 8.41526L6.11337 7.64917L5.34729 8.797L6.49512 9.56309L7.2612 8.41526Z" fill="#BCBCE1"/>
<path d="M6.4979 9.54587L5.35007 8.77979L4.58398 9.92761L5.73181 10.6937L6.4979 9.54587Z" fill="#BCBCE1"/>
<path d="M3.82675 6.11252L2.67892 5.34644L1.91284 6.49426L3.06067 7.26035L3.82675 6.11252Z" fill="#BCBCE1"/>
<path d="M3.05789 7.26145L1.91006 6.49536L1.14398 7.64319L2.29181 8.40928L3.05789 7.26145Z" fill="#BCBCE1"/>
<path d="M3.43366 9.17112L2.28583 8.40503L1.51974 9.55286L2.66757 10.3189L3.43366 9.17112Z" fill="#BCBCE1"/>
<path d="M4.58274 9.93991L3.43491 9.17383L2.66882 10.3217L3.81665 11.0877L4.58274 9.93991Z" fill="#BCBCE1"/>
<path d="M6.50522 4.58762L5.35739 3.82153L4.59131 4.96936L5.73913 5.73545L6.50522 4.58762Z" fill="black"/>
<path d="M7.646 5.35105L6.49817 4.58496L5.73208 5.73279L6.87991 6.49888L7.646 5.35105Z" fill="black"/>
<path d="M8.03174 7.26047L6.88391 6.49438L6.11783 7.64221L7.26565 8.4083L8.03174 7.26047Z" fill="black"/>
<path d="M8.4075 9.17014L7.25967 8.40405L6.49359 9.55188L7.64142 10.318L8.4075 9.17014Z" fill="black"/>
<path d="M4.58176 4.96604L3.43393 4.19995L2.66784 5.34778L3.81567 6.11387L4.58176 4.96604Z" fill="black"/>
<path d="M2.67215 5.35202L1.52432 4.58594L0.758236 5.73377L1.90607 6.49985L2.67215 5.35202Z" fill="black"/>
<path d="M1.91715 6.48825L0.769318 5.72217L0.00323158 6.87L1.15106 7.63608L1.91715 6.48825Z" fill="black"/>
<path d="M2.30292 8.39792L1.15509 7.63184L0.389005 8.77966L1.53683 9.54575L2.30292 8.39792Z" fill="black"/>
<path d="M2.67313 10.3156L1.5253 9.54956L0.759213 10.6974L1.90704 11.4635L2.67313 10.3156Z" fill="black"/>
<path d="M3.82773 11.0864L2.6799 10.3203L1.91382 11.4681L3.06164 12.2342L3.82773 11.0864Z" fill="black"/>
<path d="M5.73737 10.7007L4.58954 9.93457L3.82345 11.0824L4.97128 11.8485L5.73737 10.7007Z" fill="black"/>
<path d="M7.64697 10.3247L6.49915 9.55859L5.73306 10.7064L6.88089 11.4725L7.64697 10.3247Z" fill="black"/>
<path d="M17.1303 15.4671L16.8604 14.1138L15.5071 14.3837L15.777 15.737L17.1303 15.4671Z" fill="#BCBCE1"/>
<path d="M17.3992 16.8258L17.1293 15.4724L15.776 15.7423L16.0459 17.0957L17.3992 16.8258Z" fill="#BCBCE1"/>
<path d="M23.8684 21.1478L23.5985 19.7944L22.2452 20.0644L22.5151 21.4177L23.8684 21.1478Z" fill="#BCBCE1"/>
<path d="M22.2527 20.0777L21.9827 18.7244L20.6294 18.9943L20.8993 20.3476L22.2527 20.0777Z" fill="#BCBCE1"/>
<path d="M20.6349 18.9976L20.365 17.6443L19.0116 17.9142L19.2816 19.2676L20.6349 18.9976Z" fill="#BCBCE1"/>
<path d="M19.0172 17.9078L18.7472 16.5544L17.3939 16.8244L17.6638 18.1777L19.0172 17.9078Z" fill="#BCBCE1"/>
<path d="M14.6807 17.3516L13.3274 17.6216L13.5973 18.9749L14.9507 18.705L14.6807 17.3516Z" fill="#BCBCE1"/>
<path d="M13.6083 18.9698L12.2549 19.2397L12.5249 20.5931L13.8782 20.3232L13.6083 18.9698Z" fill="#BCBCE1"/>
<path d="M12.536 20.5897L11.1827 20.8596L11.4526 22.213L12.806 21.943L12.536 20.5897Z" fill="#BCBCE1"/>
<path d="M11.4537 22.2096L10.1004 22.4795L10.3703 23.8328L11.7237 23.5629L11.4537 22.2096Z" fill="#BCBCE1"/>
<path d="M21.168 7.64974L19.8147 7.91968L20.0846 9.27302L21.4379 9.00309L21.168 7.64974Z" fill="#BCBCE1"/>
<path d="M20.0957 9.26962L18.7424 9.53955L19.0123 10.8929L20.3657 10.623L20.0957 9.26962Z" fill="#BCBCE1"/>
<path d="M19.0115 10.8797L17.6582 11.1497L17.9281 12.503L19.2814 12.2331L19.0115 10.8797Z" fill="#BCBCE1"/>
<path d="M17.9293 12.4996L16.5759 12.7695L16.8459 14.1229L18.1992 13.8529L17.9293 12.4996Z" fill="#BCBCE1"/>
<path d="M14.1538 14.6658L13.8838 13.3125L12.5305 13.5824L12.8004 14.9358L14.1538 14.6658Z" fill="#BCBCE1"/>
<path d="M12.536 13.586L12.2661 12.2327L10.9127 12.5026L11.1827 13.8559L12.536 13.586Z" fill="#BCBCE1"/>
<path d="M10.9085 12.5079L10.6385 11.1545L9.28518 11.4245L9.55511 12.7778L10.9085 12.5079Z" fill="#BCBCE1"/>
<path d="M9.29267 11.4278L9.02274 10.0745L7.66939 10.3444L7.93933 11.6977L9.29267 11.4278Z" fill="#BCBCE1"/>
<path d="M15.7715 15.7459L15.5016 14.3926L14.1482 14.6625L14.4181 16.0159L15.7715 15.7459Z" fill="#BCBCE1"/>
<path d="M16.0504 17.0948L15.7805 15.7415L14.4271 16.0114L14.697 17.3647L16.0504 17.0948Z" fill="#BCBCE1"/>
<path d="M14.4226 16.0147L14.1527 14.6614L12.7994 14.9313L13.0693 16.2847L14.4226 16.0147Z" fill="black"/>
<path d="M14.6915 17.3636L14.4216 16.0103L13.0683 16.2802L13.3382 17.6335L14.6915 17.3636Z" fill="black"/>
<path d="M18.4792 15.1981L18.2093 13.8447L16.8559 14.1147L17.1258 15.468L18.4792 15.1981Z" fill="black"/>
<path d="M18.7383 16.5589L18.4684 15.2056L17.115 15.4755L17.3849 16.8288L18.7383 16.5589Z" fill="black"/>
<path d="M16.3133 18.4484L17.6667 18.1785L17.3968 16.8251L16.0434 17.0951L16.3133 18.4484Z" fill="black"/>
<path d="M14.9545 18.7094L16.3078 18.4395L16.0379 17.0861L14.6845 17.356L14.9545 18.7094Z" fill="black"/>
<path d="M15.5019 14.3915L16.8552 14.1216L16.5853 12.7682L15.2319 13.0382L15.5019 14.3915Z" fill="black"/>
<path d="M14.1529 14.6625L15.5063 14.3926L15.2364 13.0392L13.883 13.3092L14.1529 14.6625Z" fill="black"/>
</g>
<defs>
<clipPath id="clip0_231_262">
<rect width="31.51" height="31.47" fill="white"/>
</clipPath>
</defs>
</svg>
