<svg width="555" height="102" viewBox="0 0 555 102" fill="none" xmlns="http://www.w3.org/2000/svg">
<path d="M553.324 44.7143C550.844 22.8101 533.197 4.76037 510.963 1.56406C501.461 0.200922 492.334 1.42304 484.283 4.66636C468.134 11.2 450.02 12.5631 434.105 5.60645C432.841 5.0894 431.577 4.57235 430.314 4.14931C424.884 2.17512 418.986 1 412.807 1C405.365 1 398.297 2.59816 391.978 5.41843C390.293 6.17051 388.608 6.78157 386.876 7.39263C381.54 9.03779 376.063 10.0719 370.54 10.4479C369.557 10.4949 368.574 10.5889 367.591 10.5889H367.498C361.272 10.5889 355 9.60184 349.055 7.67465C349.055 7.67465 348.962 7.67465 348.915 7.67465C346.949 7.01659 345.03 6.31152 343.157 5.46544C336.838 2.59816 329.77 1.047 322.328 1.047C314.886 1.047 307.818 2.64516 301.498 5.46544C285.49 12.6571 267.142 11.294 250.852 4.71336C250.291 4.47834 249.635 4.33733 249.074 4.1023C248.887 4.0553 248.746 4.0083 248.559 3.91429C241.07 1.32903 232.831 0.294931 224.172 1.56406C218.649 2.36313 213.453 4.1023 208.679 6.59355C203.296 8.80277 197.679 10.1189 191.921 10.5419C191.594 10.5419 191.219 10.5419 190.892 10.5889C189.956 10.6359 188.973 10.5889 188.036 10.6359C179.003 10.5419 169.922 8.56774 161.356 5.0894C154.943 2.50415 147.875 1.28203 140.433 1.51705C137.999 1.51705 135.565 1.65806 133.084 1.9871C126.344 2.97419 120.072 5.32442 114.455 8.70876C100.085 13.0332 84.404 11.247 70.268 5.55945C62.2171 2.31613 53.1364 1.047 43.5876 2.45714C21.4475 5.70046 3.80096 23.7502 1.32014 45.6544C-2.05002 75.4553 21.6347 100.65 51.3109 100.65C58.7533 100.65 65.8213 99.0516 72.1403 96.2313C87.5401 89.3217 105.608 89.3217 121.008 96.2313C127.327 99.0986 134.395 100.65 141.837 100.65C149.28 100.65 156.348 99.0516 162.667 96.2313C178.066 89.3217 196.134 89.3217 211.534 96.2313C217.9 99.0986 224.921 100.65 232.363 100.65C239.806 100.65 246.874 99.0516 253.193 96.2313C268.593 89.3217 286.66 89.3217 302.06 96.2313C308.426 99.0986 315.447 100.65 322.89 100.65C330.987 100.65 338.523 98.6756 345.311 95.3382C352.098 92.424 359.353 90.9198 366.655 90.6378C375.174 90.5908 383.693 92.2359 391.51 95.7613C397.876 98.6286 404.897 100.18 412.339 100.18C412.714 100.18 413.088 100.133 413.463 100.133C413.603 100.133 413.744 100.133 413.931 100.133C414.914 100.133 415.85 99.9917 416.833 99.9447C417.207 99.9447 417.629 99.9447 418.003 99.8507C426.101 99.1926 433.637 96.7954 440.19 92.847C453.998 88.5226 469.258 89.3217 482.551 95.2912C488.917 98.1585 495.938 99.7097 503.381 99.7097C533.057 99.7097 556.695 74.5152 553.371 44.7143H553.324Z" stroke="black" stroke-width="2" stroke-miterlimit="10"/>
</svg>
