<svg width="14" height="19" viewBox="0 0 14 19" fill="none" xmlns="http://www.w3.org/2000/svg">
<path d="M13 8.87871C13 8.39065 12.4857 8.13035 12.0786 8.39065C11.725 8.61841 11.3821 8.85702 11.0286 9.09562C10.975 9.12816 10.9321 9.1607 10.8679 9.19324C10.8357 9.11732 10.8143 9.06309 10.7821 9.00886C10.4071 8.13035 10.0321 7.241 9.65714 6.36249C8.97143 4.73563 8.28571 3.10876 7.58929 1.49274C7.525 1.3409 7.40714 1.17821 7.27857 1.09145C6.94643 0.874532 6.58214 1.05891 6.4 1.4819C5.33929 3.99811 4.27857 6.51433 3.20714 9.0197C3.18571 9.08478 3.15357 9.13901 3.12143 9.20408C2.725 8.93294 2.33929 8.67264 1.95357 8.41234C1.675 8.22796 1.36429 8.2605 1.16071 8.49911C1.09643 8.57503 1.05357 8.66179 1 8.74856L1 12.2409C1.06429 12.447 1.10714 12.6639 1.19286 12.87C1.47143 13.5532 1.96429 14.0088 2.65 14.2365C2.78929 14.2799 2.84286 14.345 2.86429 14.486C3.175 16.2213 4.43929 17.5336 6.13214 17.9132C6.28214 17.9458 6.43214 17.9783 6.58214 18H7.40714C7.40714 18 7.46071 17.9675 7.49286 17.9675C9.4 17.6963 10.7714 16.3731 11.125 14.4534C11.1464 14.3233 11.2 14.2691 11.3286 14.2257C12.2714 13.922 12.9571 13.0543 12.9786 12.0674C13.0107 10.9936 12.9893 9.93075 12.9786 8.85702L13 8.87871ZM5.81071 11.9264C6.13214 11.9264 6.4 12.2084 6.4 12.5337C6.4 12.87 6.12143 13.1519 5.78929 13.1411C5.46786 13.1411 5.2 12.8483 5.21071 12.5229C5.21071 12.1867 5.48929 11.9264 5.81071 11.9264ZM8.21071 13.1411C7.87857 13.1411 7.6 12.8591 7.61071 12.5229C7.61071 12.1867 7.88929 11.9264 8.21071 11.9264C8.53214 11.9264 8.81071 12.1975 8.81071 12.5337C8.81071 12.8591 8.54286 13.1411 8.22143 13.1411H8.21071Z" stroke="black" stroke-width="0.5" stroke-miterlimit="10"/>
</svg>
