<svg width="40" height="47" viewBox="0 0 40 47" fill="none" xmlns="http://www.w3.org/2000/svg">
<g clip-path="url(#clip0_308_3)">
<path d="M21.1772 0H18.8242V2.35H21.1772V0Z" fill="black"/>
<path d="M18.8236 2.3501H16.4707V4.7001H18.8236V2.3501Z" fill="black"/>
<path d="M18.8236 4.7002H16.4707V7.0502H18.8236V4.7002Z" fill="black"/>
<path d="M16.4701 7.0498H14.1172V9.3998H16.4701V7.0498Z" fill="black"/>
<path d="M16.4701 9.3999H14.1172V11.7499H16.4701V9.3999Z" fill="black"/>
<path d="M14.1186 11.75H11.7656V14.1H14.1186V11.75Z" fill="black"/>
<path d="M14.1186 14.1001H11.7656V16.4501H14.1186V14.1001Z" fill="black"/>
<path d="M11.7651 16.4502H9.41211V18.8002H11.7651V16.4502Z" fill="black"/>
<path d="M11.7651 18.7998H9.41211V21.1498H11.7651V18.7998Z" fill="black"/>
<path d="M9.41153 21.1499H7.05859V23.4999H9.41153V21.1499Z" fill="black"/>
<path d="M7.05802 21.1499H4.70508V23.4999H7.05802V21.1499Z" fill="black"/>
<path d="M4.70646 18.7998H2.35352V21.1498H4.70646V18.7998Z" fill="black"/>
<path d="M2.35294 18.7998H0V21.1498H2.35294V18.7998Z" fill="black"/>
<path d="M2.35294 21.1499H0V23.4999H2.35294V21.1499Z" fill="black"/>
<path d="M2.35294 23.5H0V25.85H2.35294V23.5Z" fill="black"/>
<path d="M2.35294 25.8501H0V28.2001H2.35294V25.8501Z" fill="black"/>
<path d="M2.35294 28.2002H0V30.5502H2.35294V28.2002Z" fill="black"/>
<path d="M4.70646 30.5498H2.35352V32.8998H4.70646V30.5498Z" fill="black"/>
<path d="M7.05802 32.8999H4.70508V35.2499H7.05802V32.8999Z" fill="black"/>
<path d="M9.41153 35.25H7.05859V37.6H9.41153V35.25Z" fill="black"/>
<path d="M9.41153 37.6001H7.05859V39.9501H9.41153V37.6001Z" fill="black"/>
<path d="M14.1186 42.2998H11.7656V44.6498H14.1186V42.2998Z" fill="black"/>
<path d="M16.4701 44.6499H14.1172V46.9999H16.4701V44.6499Z" fill="black"/>
<path d="M18.8236 44.6499H16.4707V46.9999H18.8236V44.6499Z" fill="black"/>
<path d="M21.1772 44.6499H18.8242V46.9999H21.1772V44.6499Z" fill="black"/>
<path d="M23.5287 44.6499H21.1758V46.9999H23.5287V44.6499Z" fill="black"/>
<path d="M25.8822 44.624H23.5293V46.974H25.8822V44.624Z" fill="black"/>
<path d="M28.2358 42.2998H25.8828V44.6498H28.2358V42.2998Z" fill="black"/>
<path d="M30.5873 39.9502H28.2344V42.3002H30.5873V39.9502Z" fill="black"/>
<path d="M32.9154 37.4565H30.5625V39.8065H32.9154V37.4565Z" fill="black"/>
<path d="M11.7651 39.9502H9.41211V42.3002H11.7651V39.9502Z" fill="black"/>
<path d="M23.5287 2.3501H21.1758V4.7001H23.5287V2.3501Z" fill="black"/>
<path d="M23.5287 4.7002H21.1758V7.0502H23.5287V4.7002Z" fill="black"/>
<path d="M25.8822 7.0498H23.5293V9.3998H25.8822V7.0498Z" fill="black"/>
<path d="M25.8822 9.3999H23.5293V11.7499H25.8822V9.3999Z" fill="black"/>
<path d="M28.2358 11.75H25.8828V14.1H28.2358V11.75Z" fill="black"/>
<path d="M28.2358 14.1001H25.8828V16.4501H28.2358V14.1001Z" fill="black"/>
<path d="M30.5873 16.4502H28.2344V18.8002H30.5873V16.4502Z" fill="black"/>
<path d="M30.5873 18.7998H28.2344V21.1498H30.5873V18.7998Z" fill="black"/>
<path d="M32.9408 21.1499H30.5879V23.4999H32.9408V21.1499Z" fill="black"/>
<path d="M35.2943 21.1499H32.9414V23.4999H35.2943V21.1499Z" fill="black"/>
<path d="M37.6479 18.7998H35.2949V21.1498H37.6479V18.7998Z" fill="black"/>
<path d="M39.9994 18.7998H37.6465V21.1498H39.9994V18.7998Z" fill="black"/>
<path d="M39.9994 21.1499H37.6465V23.4999H39.9994V21.1499Z" fill="black"/>
<path d="M39.9994 23.5H37.6465V25.85H39.9994V23.5Z" fill="black"/>
<path d="M39.9994 25.8501H37.6465V28.2001H39.9994V25.8501Z" fill="black"/>
<path d="M39.9994 28.2002H37.6465V30.5502H39.9994V28.2002Z" fill="black"/>
<path d="M37.6479 30.5498H35.2949V32.8998H37.6479V30.5498Z" fill="black"/>
<path d="M35.2943 32.8999H32.9414V35.2499H35.2943V32.8999Z" fill="black"/>
<path d="M32.9408 35.25H30.5879V37.6H32.9408V35.25Z" fill="black"/>
<path d="M16.4701 30.5498H14.1172V32.8998H16.4701V30.5498Z" fill="black"/>
<path d="M26.1576 30.3936H23.8047V32.7436H26.1576V30.3936Z" fill="black"/>
</g>
<defs>
<clipPath id="clip0_308_3">
<rect width="40" height="47" fill="white"/>
</clipPath>
</defs>
</svg>
