<svg width="22" height="25" viewBox="0 0 22 25" fill="none" xmlns="http://www.w3.org/2000/svg">
<path d="M20.5179 11.8292C19.7874 11.6393 19.0716 11.4348 18.3411 11.2302C17.0701 10.865 15.8283 10.4413 14.6304 9.88619C13.9145 9.55018 13.4324 9.02425 13.1549 8.27918C12.5267 6.59912 12.1614 4.86063 11.8254 3.10752C11.7232 2.56698 11.6355 2.01183 11.5478 1.47129C11.4894 1.12067 11.1826 0.916142 10.8612 1.03302C10.6129 1.12067 10.5398 1.3252 10.4814 1.55895C10.1892 3.04909 9.91161 4.55383 9.59021 6.04397C9.38568 6.97896 9.10811 7.88473 8.68444 8.74667C8.49452 9.14112 8.23156 9.46253 7.83711 9.65245C7.32579 9.9008 6.82907 10.1638 6.30314 10.3683C4.75457 10.9819 3.14755 11.4202 1.54054 11.8146C1.17531 11.9023 1 12.0776 1 12.3551C1 12.6327 1.17531 12.7934 1.52593 12.8811C2.46092 13.1294 3.39591 13.3778 4.31629 13.6554C5.4412 13.9914 6.56611 14.3858 7.61797 14.9264C8.17312 15.2186 8.55296 15.6276 8.80131 16.212C9.23959 17.2785 9.54638 18.3888 9.78013 19.5137C10.0431 20.7554 10.2622 21.9972 10.496 23.239C10.5544 23.5458 10.7443 23.7065 11.0219 23.7065C11.2995 23.7065 11.4748 23.5166 11.5332 23.2098C11.7232 22.1579 11.8985 21.0915 12.1176 20.0396C12.366 18.8124 12.6874 17.5999 13.1256 16.4165C13.4032 15.6714 13.8707 15.1309 14.6012 14.8241C14.6304 14.8241 14.645 14.8095 14.6742 14.7949C15.7407 14.2836 16.851 13.9037 17.9759 13.5823C18.8232 13.334 19.6852 13.1148 20.5471 12.8811C20.8393 12.808 21 12.6181 21 12.3551C21 12.0776 20.8393 11.9169 20.5179 11.8292Z" stroke="#BCBCE1" stroke-miterlimit="10"/>
</svg>
