<svg width="242" height="53" viewBox="0 0 242 53" fill="none" xmlns="http://www.w3.org/2000/svg">
<path d="M240.634 23.3993C239.346 12.1755 230.178 2.92682 218.628 1.28902C213.692 0.590551 208.95 1.21677 204.768 2.87865C196.379 6.22649 186.968 6.92497 178.7 3.36035C178.044 3.09541 177.387 2.83048 176.731 2.61371C173.91 1.60213 170.846 1 167.637 1C163.77 1 160.098 1.8189 156.816 3.26401C152.828 5.02223 148.475 5.91339 144.147 5.91339H144.098C140.864 5.91339 137.606 5.4076 134.518 4.4201C134.518 4.4201 134.469 4.4201 134.445 4.4201C133.423 4.08291 132.426 3.72163 131.454 3.2881C128.147 1.8189 124.499 1.02409 120.633 1.02409C116.767 1.02409 113.095 1.84298 109.812 3.2881C101.496 6.97314 91.9638 6.27466 83.5017 2.90273C83.2099 2.78231 82.8695 2.71005 82.5777 2.58963C82.4804 2.56554 82.4075 2.54145 82.3102 2.51737C78.4196 1.19268 74.1399 0.662807 69.6413 1.31311C66.1398 1.8189 62.8814 3.02316 59.9634 4.7573C52.4983 6.97314 44.3523 6.0579 37.0087 3.14358C32.8263 1.4817 28.1089 0.831403 23.1484 1.55396C11.6224 3.14359 2.45508 12.4164 1.16631 23.616C-0.584469 38.8861 11.7196 51.7957 27.1362 51.7957C31.0026 51.7957 34.6743 50.9768 37.9571 49.5317C45.9572 45.9912 55.3433 45.9912 63.3434 49.5317C66.6504 51.0009 70.2979 51.7957 74.1642 51.7957C78.0305 51.7957 81.7023 50.9768 84.985 49.5317C92.9851 45.9912 102.371 45.9912 110.371 49.5317C113.678 51.0009 117.326 51.7957 121.192 51.7957C125.058 51.7957 128.73 50.9768 132.013 49.5317C140.013 45.9912 149.399 45.9912 157.399 49.5317C160.706 51.0009 164.354 51.7957 168.22 51.7957C173.229 51.7957 177.898 50.4229 181.862 48.0625C189.035 45.8467 196.962 46.2561 203.868 49.315C207.175 50.7842 210.822 51.579 214.689 51.579C230.105 51.579 242.385 38.6693 240.659 23.3993H240.634Z" stroke="black" stroke-miterlimit="10"/>
<path d="M44.2737 28.0829L45.0537 20.8979H46.5837L45.4437 30.4379C45.3687 31.1879 44.9487 31.5479 44.3937 31.5479C43.8237 31.5479 43.4937 31.2029 43.2987 30.3629L42.0387 24.8729L40.7787 30.3629C40.5837 31.2029 40.2537 31.5479 39.6837 31.5479C39.1437 31.5479 38.7237 31.1879 38.6487 30.4379L37.5087 20.8979H39.0837L39.8637 28.0229L40.9737 22.9529C41.1087 22.3379 41.5137 21.9479 42.0537 21.9479C42.5787 21.9479 43.0287 22.3379 43.1637 22.9529L44.2737 28.0829ZM55.0904 31.3979H47.5904V29.9129H49.7504C50.2004 29.9129 50.5604 29.5529 50.5604 29.1029V23.1779C50.5604 22.7429 50.2004 22.3829 49.7504 22.3829H47.5904V20.8979H55.0904V22.3829H52.9454C52.5104 22.3829 52.1354 22.7429 52.1354 23.1779V29.1029C52.1354 29.5529 52.5104 29.9129 52.9454 29.9129H55.0904V31.3979ZM61.4372 31.3979H59.8622V23.5979C59.8622 22.9079 59.3222 22.3829 58.6322 22.3829H56.3672V20.8979H64.9172V22.3829H62.6672C61.9772 22.3829 61.4372 22.9079 61.4372 23.5979V31.3979ZM67.6939 31.3979H66.1189V20.8979H67.6939V24.3029C67.6939 24.8729 68.1139 25.2929 68.6839 25.2929H71.2039C71.7739 25.2929 72.1939 24.8729 72.1939 24.3029V20.8979H73.7689V31.3979H72.1939V27.7679C72.1939 27.1979 71.7739 26.7779 71.2039 26.7779H68.6839C68.1139 26.7779 67.6939 27.1979 67.6939 27.7679V31.3979ZM88.5475 31.5479C87.4375 31.5479 86.6275 30.7229 86.6275 29.6129V22.5629C86.6275 22.3079 86.4475 22.0979 86.2075 22.0979C85.9675 22.0979 85.7725 22.3079 85.7725 22.5629V31.3979H84.2725V22.6829C84.2725 21.5729 85.0975 20.7479 86.2075 20.7479C87.3175 20.7479 88.1275 21.5729 88.1275 22.6829V29.7329C88.1275 29.9879 88.3075 30.1979 88.5475 30.1979C88.7875 30.1979 88.9675 29.9879 88.9675 29.7329V22.6829C88.9675 21.5729 89.7925 20.7479 90.9025 20.7479C92.0125 20.7479 92.8225 21.5729 92.8225 22.6829V31.3979H91.3225V22.5629C91.3225 22.3079 91.1425 22.0979 90.9025 22.0979C90.6625 22.0979 90.4675 22.3079 90.4675 22.5629V29.6129C90.4675 30.7229 89.6575 31.5479 88.5475 31.5479ZM100.774 31.3979H94.3992V20.8979H100.774C101.194 20.8979 101.524 21.2129 101.524 21.6329C101.524 22.0679 101.194 22.3829 100.774 22.3829H96.7692C96.2892 22.3829 95.9442 22.7279 95.9442 23.2079V24.4979C95.9442 24.9779 96.2892 25.3229 96.7692 25.3229H99.8742C100.294 25.3229 100.624 25.6379 100.624 26.0729C100.624 26.5079 100.294 26.8079 99.8742 26.8079H96.7992C96.3042 26.8079 95.9442 27.1679 95.9442 27.6779V29.0429C95.9442 29.5379 96.3042 29.9129 96.7992 29.9129H100.774C101.194 29.9129 101.524 30.2279 101.524 30.6479C101.524 31.0829 101.194 31.3979 100.774 31.3979ZM107.946 31.3979H106.371V23.5979C106.371 22.9079 105.831 22.3829 105.141 22.3829H102.876V20.8979H111.426V22.3829H109.176C108.486 22.3829 107.946 22.9079 107.946 23.5979V31.3979ZM114.203 31.3979H112.628V20.8979H114.203V24.3029C114.203 24.8729 114.623 25.2929 115.193 25.2929H117.713C118.283 25.2929 118.703 24.8729 118.703 24.3029V20.8979H120.278V31.3979H118.703V27.7679C118.703 27.1979 118.283 26.7779 117.713 26.7779H115.193C114.623 26.7779 114.203 27.1979 114.203 27.7679V31.3979ZM129.894 20.8979C130.254 21.1679 130.314 21.6629 130.014 22.0529L126.534 26.5079V31.3979H124.959V26.4779L121.509 22.0679C121.194 21.6629 121.284 21.1679 121.644 20.8979C122.019 20.6279 122.499 20.7479 122.829 21.1829L125.784 24.9779L128.769 21.1379C129.069 20.7629 129.534 20.6429 129.894 20.8979ZM138.386 31.3979H131.606V20.8979H133.181V28.8629C133.181 29.4929 133.631 29.9129 134.231 29.9129H138.386C138.836 29.9129 139.181 30.2429 139.181 30.6479C139.181 31.0829 138.836 31.3979 138.386 31.3979ZM144.178 26.8529V25.3679H148.498V26.1479C148.498 29.2979 146.893 31.5479 144.328 31.5479C141.763 31.5479 140.128 29.2979 140.128 26.1479C140.128 22.9829 141.763 20.7479 144.328 20.7479C145.738 20.7479 146.938 21.5279 147.688 22.7729L146.398 23.6879C145.918 22.8779 145.183 22.3229 144.328 22.3229C142.813 22.3229 141.838 23.8079 141.838 26.1479C141.838 28.5629 142.828 29.9729 144.358 29.9729C145.813 29.9729 146.698 28.7729 146.818 26.8529H144.178ZM156.99 31.3979H150.21V20.8979H151.785V28.8629C151.785 29.4929 152.235 29.9129 152.835 29.9129H156.99C157.44 29.9129 157.785 30.2429 157.785 30.6479C157.785 31.0829 157.44 31.3979 156.99 31.3979ZM167.102 20.8979C167.462 21.1679 167.522 21.6629 167.222 22.0529L163.742 26.5079V31.3979H162.167V26.4779L158.717 22.0679C158.402 21.6629 158.492 21.1679 158.852 20.8979C159.227 20.6279 159.707 20.7479 160.037 21.1829L162.992 24.9779L165.977 21.1379C166.277 20.7629 166.742 20.6429 167.102 20.8979ZM172.263 31.5479C169.713 31.5479 168.063 29.2979 168.063 26.1479C168.063 22.9829 169.713 20.7479 172.263 20.7479C174.813 20.7479 176.463 22.9829 176.463 26.1479C176.463 29.2979 174.813 31.5479 172.263 31.5479ZM172.263 29.9729C173.823 29.9729 174.768 28.3979 174.768 26.1479C174.768 23.8829 173.823 22.3229 172.263 22.3229C170.718 22.3229 169.773 23.8829 169.773 26.1479C169.773 28.3979 170.718 29.9729 172.263 29.9729ZM182.585 26.1179L185.945 30.1979C186.23 30.5579 186.215 31.0379 185.855 31.3379C185.495 31.6529 185 31.6079 184.7 31.2329L181.55 27.3779L178.4 31.2329C178.1 31.5929 177.635 31.6529 177.275 31.3529C176.93 31.0679 176.9 30.6029 177.2 30.2279L180.545 26.1479L177.2 22.0529C176.9 21.6929 176.93 21.1979 177.29 20.9129C177.65 20.6279 178.115 20.6729 178.415 21.0329L181.58 24.8729L184.715 21.0629C185.015 20.7029 185.495 20.6279 185.84 20.9279C186.185 21.2129 186.23 21.6779 185.915 22.0529L182.585 26.1179ZM195.277 31.3979H193.522L192.622 28.5179H189.067L188.167 31.3979H186.472L189.592 21.8729C189.832 21.0779 190.267 20.7479 190.882 20.7479C191.482 20.7479 191.917 21.0779 192.157 21.8729L195.277 31.3979ZM190.852 22.8179L189.517 27.0629H192.172L190.852 22.8179ZM203.499 31.3979H196.719V20.8979H198.294V28.8629C198.294 29.4929 198.744 29.9129 199.344 29.9129H203.499C203.949 29.9129 204.294 30.2429 204.294 30.6479C204.294 31.0829 203.949 31.3979 203.499 31.3979Z" fill="black"/>
</svg>
