<svg width="39" height="39" viewBox="0 0 39 39" fill="none" xmlns="http://www.w3.org/2000/svg">
<g clip-path="url(#clip0_231_664)">
<path d="M19.42 16.5601H17.99V17.9901H19.42V16.5601Z" fill="#BCBCE1"/>
<path d="M20.85 16.5601H19.42V17.9901H20.85V16.5601Z" fill="#BCBCE1"/>
<path d="M19.42 17.99H17.99V19.42H19.42V17.99Z" fill="#BCBCE1"/>
<path d="M20.85 17.99H19.42V19.42H20.85V17.99Z" fill="#BCBCE1"/>
<path d="M19.42 19.4199H17.99V20.8499H19.42V19.4199Z" fill="#BCBCE1"/>
<path d="M20.85 19.4199H19.42V20.8499H20.85V19.4199Z" fill="#BCBCE1"/>
<path d="M22.27 17.99H20.84V19.42H22.27V17.99Z" fill="#BCBCE1"/>
<path d="M22.27 19.4199H20.84V20.8499H22.27V19.4199Z" fill="#BCBCE1"/>
<path d="M23.7 22.27H22.27V23.7H23.7V22.27Z" fill="#BCBCE1"/>
<path d="M25.13 23.7H23.7V25.1299H25.13V23.7Z" fill="#BCBCE1"/>
<path d="M26.56 25.1299H25.13V26.5599H26.56V25.1299Z" fill="#BCBCE1"/>
<path d="M27.98 26.55H26.55V27.98H27.98V26.55Z" fill="#BCBCE1"/>
<path d="M29.41 27.98H27.98V29.41H29.41V27.98Z" fill="#BCBCE1"/>
<path d="M10.86 9.42993H9.42999V10.8599H10.86V9.42993Z" fill="#BCBCE1"/>
<path d="M12.29 10.8601H10.86V12.2901H12.29V10.8601Z" fill="#BCBCE1"/>
<path d="M13.71 12.28H12.28V13.71H13.71V12.28Z" fill="#BCBCE1"/>
<path d="M15.14 13.71H13.71V15.14H15.14V13.71Z" fill="#BCBCE1"/>
<path d="M16.57 15.1399H15.14V16.5699H16.57V15.1399Z" fill="#BCBCE1"/>
<path d="M17.99 17.99H16.56V19.42H17.99V17.99Z" fill="#BCBCE1"/>
<path d="M17.99 19.4199H16.56V20.8499H17.99V19.4199Z" fill="#BCBCE1"/>
<path d="M19.42 20.8401H17.99V22.2701H19.42V20.8401Z" fill="#BCBCE1"/>
<path d="M20.85 20.8401H19.42V22.2701H20.85V20.8401Z" fill="#BCBCE1"/>
<path d="M19.42 15.1399H17.99V16.5699H19.42V15.1399Z" fill="black"/>
<path d="M20.85 15.1399H19.42V16.5699H20.85V15.1399Z" fill="black"/>
<path d="M22.27 16.5601H20.84V17.9901H22.27V16.5601Z" fill="black"/>
<path d="M23.7 17.99H22.27V19.42H23.7V17.99Z" fill="black"/>
<path d="M17.99 16.5601H16.56V17.9901H17.99V16.5601Z" fill="black"/>
<path d="M16.57 17.99H15.14V19.42H16.57V17.99Z" fill="black"/>
<path d="M16.57 19.4199H15.14V20.8499H16.57V19.4199Z" fill="black"/>
<path d="M17.99 20.8401H16.56V22.2701H17.99V20.8401Z" fill="black"/>
<path d="M19.42 22.27H17.99V23.7H19.42V22.27Z" fill="black"/>
<path d="M20.85 22.27H19.42V23.7H20.85V22.27Z" fill="black"/>
<path d="M22.27 20.8401H20.84V22.2701H22.27V20.8401Z" fill="black"/>
<path d="M23.7 19.4199H22.27V20.8499H23.7V19.4199Z" fill="black"/>
<path d="M30.84 29.4099H29.41V30.8399H30.84V29.4099Z" fill="#BCBCE1"/>
<path d="M32.26 29.4099H30.83V30.8399H32.26V29.4099Z" fill="#BCBCE1"/>
<path d="M30.84 30.8301H29.41V32.2601H30.84V30.8301Z" fill="#BCBCE1"/>
<path d="M32.26 30.8301H30.83V32.2601H32.26V30.8301Z" fill="#BCBCE1"/>
<path d="M30.84 32.26H29.41V33.69H30.84V32.26Z" fill="black"/>
<path d="M32.26 32.26H30.83V33.69H32.26V32.26Z" fill="black"/>
<path d="M30.84 27.98H29.41V29.41H30.84V27.98Z" fill="black"/>
<path d="M32.26 27.98H30.83V29.41H32.26V27.98Z" fill="black"/>
<path d="M33.69 30.8399V29.4099H32.26V30.8399H33.69Z" fill="black"/>
<path d="M33.69 32.2601V30.8301H32.26V32.2601H33.69Z" fill="black"/>
<path d="M29.4 30.8399V29.4099H27.97V30.8399H29.4Z" fill="black"/>
<path d="M29.41 32.2601V30.8301H27.98V32.2601H29.41Z" fill="black"/>
<path d="M22.28 15.1301V16.5601H23.71V15.1301H22.28Z" fill="#BCBCE1"/>
<path d="M23.7 13.6999V15.1299H25.13V13.6999H23.7Z" fill="#BCBCE1"/>
<path d="M25.12 12.27V13.7H26.55V12.27H25.12Z" fill="#BCBCE1"/>
<path d="M26.56 10.85V12.28H27.99V10.85H26.56Z" fill="#BCBCE1"/>
<path d="M27.98 9.4201V10.8501H29.41V9.4201H27.98Z" fill="#BCBCE1"/>
<path d="M29.41 7.98992V9.41992H30.84V7.98992H29.41Z" fill="#BCBCE1"/>
<path d="M29.4 6.57V8H30.83V6.57H29.4Z" fill="#BCBCE1"/>
<path d="M30.83 7.99993V9.42993H32.26V7.99993H30.83Z" fill="#BCBCE1"/>
<path d="M30.83 6.57V8H32.26V6.57H30.83Z" fill="#BCBCE1"/>
<path d="M32.26 7.99993V9.42993H33.69V7.99993H32.26Z" fill="black"/>
<path d="M32.26 6.57V8H33.69V6.57H32.26Z" fill="black"/>
<path d="M27.98 7.99993V9.42993H29.41V7.99993H27.98Z" fill="black"/>
<path d="M27.98 6.57V8H29.41V6.57H27.98Z" fill="black"/>
<path d="M30.84 5.1499H29.41V6.5799H30.84V5.1499Z" fill="black"/>
<path d="M32.26 5.1499H30.83V6.5799H32.26V5.1499Z" fill="black"/>
<path d="M30.84 9.42993H29.41V10.8599H30.84V9.42993Z" fill="black"/>
<path d="M32.26 9.42993H30.83V10.8599H32.26V9.42993Z" fill="black"/>
<path d="M16.56 23.71V22.28H15.13V23.71H16.56Z" fill="#BCBCE1"/>
<path d="M15.13 25.13V23.7H13.7V25.13H15.13Z" fill="#BCBCE1"/>
<path d="M13.7 26.5501V25.1201H12.27V26.5501H13.7Z" fill="#BCBCE1"/>
<path d="M12.28 27.9901V26.5601H10.85V27.9901H12.28Z" fill="#BCBCE1"/>
<path d="M10.85 29.41V27.98H9.42001V29.41H10.85Z" fill="#BCBCE1"/>
<path d="M9.42001 30.8399V29.4099H7.99001V30.8399H9.42001Z" fill="#BCBCE1"/>
<path d="M9.42999 32.2601V30.8301H7.99999V32.2601H9.42999Z" fill="#BCBCE1"/>
<path d="M8 30.8299V29.3999H6.57V30.8299H8Z" fill="#BCBCE1"/>
<path d="M8 32.2601V30.8301H6.57V32.2601H8Z" fill="#BCBCE1"/>
<path d="M6.57001 30.8399V29.4099H5.14001V30.8399H6.57001Z" fill="black"/>
<path d="M6.57999 32.2701V30.8401H5.14999V32.2701H6.57999Z" fill="black"/>
<path d="M10.85 30.8399V29.4099H9.42001V30.8399H10.85Z" fill="black"/>
<path d="M10.86 32.2701V30.8401H9.42999V32.2701H10.86Z" fill="black"/>
<path d="M7.99999 33.6899H9.42999V32.2599H7.99999V33.6899Z" fill="black"/>
<path d="M6.57 33.6899H8V32.2599H6.57V33.6899Z" fill="black"/>
<path d="M7.99999 29.4099H9.42999V27.9799H7.99999V29.4099Z" fill="black"/>
<path d="M6.57 29.4099H8V27.9799H6.57V29.4099Z" fill="black"/>
<path d="M20.2604 24.7075L19.2492 23.6963L18.238 24.7075L19.2492 25.7186L20.2604 24.7075Z" fill="#BCBCE1"/>
<path d="M20.252 26.7258L19.2408 25.7146L18.2297 26.7258L19.2408 27.7369L20.252 26.7258Z" fill="#BCBCE1"/>
<path d="M20.2537 28.7441L19.2425 27.7329L18.2313 28.7441L19.2425 29.7552L20.2537 28.7441Z" fill="#BCBCE1"/>
<path d="M20.2553 30.7624L19.2441 29.7512L18.233 30.7624L19.2441 31.7735L20.2553 30.7624Z" fill="#BCBCE1"/>
<path d="M20.257 32.7807L19.2458 31.7695L18.2346 32.7807L19.2458 33.7919L20.257 32.7807Z" fill="#BCBCE1"/>
<path d="M20.2486 34.799L19.2374 33.7878L18.2263 34.799L19.2374 35.8102L20.2486 34.799Z" fill="#BCBCE1"/>
<path d="M21.2656 35.8105L20.2545 34.7993L19.2433 35.8105L20.2545 36.8216L21.2656 35.8105Z" fill="#BCBCE1"/>
<path d="M19.2473 35.8019L18.2361 34.7908L17.225 35.8019L18.2361 36.8131L19.2473 35.8019Z" fill="#BCBCE1"/>
<path d="M20.2573 36.8205L19.2461 35.8093L18.235 36.8205L19.2461 37.8317L20.2573 36.8205Z" fill="#BCBCE1"/>
<path d="M18.2389 36.8119L17.2278 35.8008L16.2166 36.8119L17.2278 37.8231L18.2389 36.8119Z" fill="black"/>
<path d="M19.249 37.8205L18.2378 36.8093L17.2266 37.8205L18.2378 38.8317L19.249 37.8205Z" fill="black"/>
<path d="M21.257 33.799L20.2458 32.7878L19.2346 33.799L20.2458 34.8102L21.257 33.799Z" fill="black"/>
<path d="M22.2669 34.8075L21.2558 33.7964L20.2446 34.8075L21.2558 35.8187L22.2669 34.8075Z" fill="black"/>
<path d="M21.2612 37.8356L22.2724 36.8245L21.2612 35.8133L20.2501 36.8245L21.2612 37.8356Z" fill="black"/>
<path d="M20.2512 38.8373L21.2624 37.8262L20.2512 36.815L19.2401 37.8262L20.2512 38.8373Z" fill="black"/>
<path d="M18.2292 34.7985L19.2404 33.7874L18.2292 32.7762L17.2181 33.7874L18.2292 34.7985Z" fill="black"/>
<path d="M17.2192 35.8002L18.2304 34.7891L17.2192 33.7779L16.2081 34.7891L17.2192 35.8002Z" fill="black"/>
<path d="M18.2285 14.1238L19.2396 15.135L20.2508 14.1238L19.2396 13.1127L18.2285 14.1238Z" fill="#BCBCE1"/>
<path d="M18.2372 12.105L19.2483 13.1162L20.2595 12.105L19.2483 11.0939L18.2372 12.105Z" fill="#BCBCE1"/>
<path d="M18.2388 10.0836L19.25 11.0947L20.2611 10.0836L19.25 9.0724L18.2388 10.0836Z" fill="#BCBCE1"/>
<path d="M18.2304 8.07185L19.2416 9.08301L20.2528 8.07185L19.2416 7.06068L18.2304 8.07185Z" fill="#BCBCE1"/>
<path d="M18.2321 6.05012L19.2433 7.06128L20.2544 6.05012L19.2433 5.03896L18.2321 6.05012Z" fill="#BCBCE1"/>
<path d="M18.2337 4.03864L19.2449 5.0498L20.2561 4.03864L19.2449 3.02748L18.2337 4.03864Z" fill="#BCBCE1"/>
<path d="M17.2237 3.02692L18.2349 4.03809L19.2461 3.02692L18.2349 2.01576L17.2237 3.02692Z" fill="#BCBCE1"/>
<path d="M19.2354 3.02863L20.2466 4.03979L21.2577 3.02863L20.2466 2.01747L19.2354 3.02863Z" fill="#BCBCE1"/>
<path d="M18.2354 2.01691L19.2466 3.02808L20.2577 2.01691L19.2466 1.00575L18.2354 2.01691Z" fill="#BCBCE1"/>
<path d="M20.247 2.01862L21.2582 3.02979L22.2694 2.01862L21.2582 1.00746L20.247 2.01862Z" fill="black"/>
<path d="M19.2441 0.999825L20.2552 2.01099L21.2664 0.999824L20.2553 -0.0113379L19.2441 0.999825Z" fill="black"/>
<path d="M17.2221 5.04865L18.2333 6.05981L19.2444 5.04865L18.2333 4.03749L17.2221 5.04865Z" fill="black"/>
<path d="M16.2121 4.03693L17.2233 5.0481L18.2344 4.03693L17.2233 3.02577L16.2121 4.03693Z" fill="black"/>
<path d="M17.2247 1.00373L16.2136 2.01489L17.2247 3.02606L18.2359 2.01489L17.2247 1.00373Z" fill="black"/>
<path d="M18.2418 0.00250898L17.2307 1.01367L18.2418 2.02483L19.253 1.01367L18.2418 0.00250898Z" fill="black"/>
<path d="M20.2498 4.03376L19.2386 5.04492L20.2498 6.05608L21.261 5.04492L20.2498 4.03376Z" fill="black"/>
<path d="M21.2598 3.02546L20.2486 4.03662L21.2598 5.04778L22.271 4.03662L21.2598 3.02546Z" fill="black"/>
<path d="M24.7073 18.2381L23.6962 19.2493L24.7073 20.2604L25.7185 19.2493L24.7073 18.2381Z" fill="#BCBCE1"/>
<path d="M26.7257 18.2296L25.7145 19.2407L26.7257 20.2519L27.7369 19.2407L26.7257 18.2296Z" fill="#BCBCE1"/>
<path d="M28.744 18.2313L27.7329 19.2424L28.744 20.2536L29.7552 19.2424L28.744 18.2313Z" fill="#BCBCE1"/>
<path d="M30.7624 18.233L29.7513 19.2441L30.7624 20.2553L31.7736 19.2441L30.7624 18.233Z" fill="#BCBCE1"/>
<path d="M32.7808 18.2347L31.7696 19.2458L32.7808 20.257L33.7919 19.2458L32.7808 18.2347Z" fill="#BCBCE1"/>
<path d="M34.7991 18.2261L33.788 19.2373L34.7991 20.2485L35.8103 19.2373L34.7991 18.2261Z" fill="#BCBCE1"/>
<path d="M35.8021 17.2249L34.7909 18.2361L35.8021 19.2472L36.8132 18.2361L35.8021 17.2249Z" fill="#BCBCE1"/>
<path d="M35.8104 19.2432L34.7993 20.2544L35.8104 21.2656L36.8216 20.2544L35.8104 19.2432Z" fill="#BCBCE1"/>
<path d="M36.8204 18.2349L35.8092 19.2461L36.8204 20.2573L37.8316 19.2461L36.8204 18.2349Z" fill="#BCBCE1"/>
<path d="M36.8187 20.2532L35.8076 21.2644L36.8187 22.2756L37.8299 21.2644L36.8187 20.2532Z" fill="black"/>
<path d="M37.8288 19.2449L36.8176 20.2561L37.8288 21.2673L38.8399 20.2561L37.8288 19.2449Z" fill="black"/>
<path d="M33.7908 17.2164L32.7796 18.2275L33.7908 19.2387L34.8019 18.2275L33.7908 17.2164Z" fill="black"/>
<path d="M34.8008 16.2078L33.7896 17.219L34.8008 18.2302L35.8119 17.219L34.8008 16.2078Z" fill="black"/>
<path d="M37.8234 17.2221L36.8122 16.2109L35.8011 17.2221L36.8122 18.2333L37.8234 17.2221Z" fill="black"/>
<path d="M38.8334 18.2304L37.8222 17.2192L36.8111 18.2304L37.8222 19.2416L38.8334 18.2304Z" fill="black"/>
<path d="M34.8054 20.2592L33.7942 19.248L32.7831 20.2592L33.7942 21.2704L34.8054 20.2592Z" fill="black"/>
<path d="M35.8154 21.2675L34.8042 20.2563L33.7931 21.2675L34.8042 22.2787L35.8154 21.2675Z" fill="black"/>
<path d="M14.1238 20.2507L15.135 19.2395L14.1238 18.2283L13.1127 19.2395L14.1238 20.2507Z" fill="#BCBCE1"/>
<path d="M12.1051 20.2595L13.1163 19.2483L12.1051 18.2371L11.094 19.2483L12.1051 20.2595Z" fill="#BCBCE1"/>
<path d="M10.0835 20.2612L11.0946 19.25L10.0835 18.2388L9.07231 19.25L10.0835 20.2612Z" fill="#BCBCE1"/>
<path d="M8.07185 20.2529L9.08301 19.2417L8.07185 18.2305L7.06068 19.2417L8.07185 20.2529Z" fill="#BCBCE1"/>
<path d="M6.05021 20.2543L7.06137 19.2432L6.05021 18.232L5.03905 19.2432L6.05021 20.2543Z" fill="#BCBCE1"/>
<path d="M4.03855 20.256L5.04971 19.2449L4.03855 18.2337L3.02739 19.2449L4.03855 20.256Z" fill="#BCBCE1"/>
<path d="M3.02854 21.2577L4.0397 20.2466L3.02854 19.2354L2.01738 20.2466L3.02854 21.2577Z" fill="#BCBCE1"/>
<path d="M3.02692 19.246L4.03809 18.2349L3.02692 17.2237L2.01576 18.2349L3.02692 19.246Z" fill="#BCBCE1"/>
<path d="M2.01691 20.2577L3.02808 19.2466L2.01691 18.2354L1.00575 19.2466L2.01691 20.2577Z" fill="#BCBCE1"/>
<path d="M2.02528 18.236L3.03644 17.2249L2.02528 16.2137L1.01411 17.2249L2.02528 18.236Z" fill="black"/>
<path d="M1.00819 19.2548L2.01935 18.2437L1.00819 17.2325L-0.00297748 18.2437L1.00819 19.2548Z" fill="black"/>
<path d="M5.0402 21.266L6.05136 20.2549L5.0402 19.2437L4.02904 20.2549L5.0402 21.266Z" fill="black"/>
<path d="M4.0402 22.2678L5.05136 21.2566L4.0402 20.2454L3.02904 21.2566L4.0402 22.2678Z" fill="black"/>
<path d="M1.01066 21.2586L2.02182 22.2698L3.03298 21.2586L2.02182 20.2474L1.01066 21.2586Z" fill="black"/>
<path d="M-0.0064325 20.2498L1.00473 21.261L2.01589 20.2498L1.00473 19.2387L-0.0064325 20.2498Z" fill="black"/>
<path d="M4.03559 18.2386L5.04675 19.2498L6.05792 18.2386L5.04675 17.2274L4.03559 18.2386Z" fill="black"/>
<path d="M3.02558 17.2269L4.03674 18.238L5.04791 17.2269L4.03674 16.2157L3.02558 17.2269Z" fill="black"/>
<path d="M8.00001 6.57007H6.57001V8.00007H8.00001V6.57007Z" fill="#BCBCE1"/>
<path d="M9.43 6.57007H8V8.00007H9.43V6.57007Z" fill="#BCBCE1"/>
<path d="M8.00001 8H6.57001V9.43H8.00001V8Z" fill="#BCBCE1"/>
<path d="M9.43 8H8V9.43H9.43V8Z" fill="#BCBCE1"/>
<path d="M8.00001 9.42993H6.57001V10.8599H8.00001V9.42993Z" fill="black"/>
<path d="M9.43 9.42993H8V10.8599H9.43V9.42993Z" fill="black"/>
<path d="M8.00001 5.1499H6.57001V6.5799H8.00001V5.1499Z" fill="black"/>
<path d="M9.43 5.1499H8V6.5799H9.43V5.1499Z" fill="black"/>
<path d="M10.86 8.01008V6.58008H9.42999V8.01008H10.86Z" fill="black"/>
<path d="M10.86 9.43V8H9.42999V9.43H10.86Z" fill="black"/>
<path d="M6.57999 8.01008V6.58008H5.14999V8.01008H6.57999Z" fill="black"/>
<path d="M6.57001 9.43V8H5.14001V9.43H6.57001Z" fill="black"/>
</g>
<defs>
<clipPath id="clip0_231_664">
<rect width="38.83" height="38.83" fill="white"/>
</clipPath>
</defs>
</svg>
