<svg width="38" height="42" viewBox="0 0 38 42" fill="none" xmlns="http://www.w3.org/2000/svg">
<path d="M35.1804 20.3489C33.9386 20.0271 32.7217 19.6806 31.4799 19.334C29.3192 18.7152 27.2082 17.9973 25.1717 17.0567C23.9547 16.4873 23.1351 15.5962 22.6633 14.3338C21.5953 11.4871 20.9744 8.54141 20.4032 5.57097C20.2294 4.65508 20.0804 3.71444 19.9313 2.79855C19.832 2.20446 19.3104 1.85791 18.7641 2.05594C18.3419 2.20446 18.2177 2.55102 18.1183 2.94707C17.6216 5.47195 17.1497 8.02158 16.6034 10.5465C16.2557 12.1307 15.7838 13.6654 15.0636 15.1259C14.7407 15.7942 14.2936 16.3388 13.6231 16.6606C12.7538 17.0814 11.9094 17.527 11.0153 17.8736C8.38276 18.9132 5.65084 19.6558 2.91892 20.3242C2.29803 20.4727 2 20.7697 2 21.2401C2 21.7104 2.29803 21.9827 2.89408 22.1312C4.48356 22.552 6.07305 22.9728 7.63769 23.4431C9.55004 24.0125 11.4624 24.6808 13.2505 25.5967C14.1943 26.0918 14.84 26.7849 15.2622 27.775C16.0073 29.5821 16.5289 31.4633 16.9262 33.3694C17.3733 35.4734 17.7458 37.5775 18.1432 39.6816C18.2425 40.2014 18.5654 40.4737 19.0373 40.4737C19.5091 40.4737 19.8072 40.1519 19.9065 39.6321C20.2294 37.8498 20.5274 36.0428 20.8999 34.2605C21.3221 32.1812 21.8685 30.1266 22.6136 28.1216C23.0855 26.8592 23.8802 25.9433 25.122 25.4234C25.1717 25.4234 25.1965 25.3987 25.2462 25.3739C27.0592 24.5075 28.9467 23.864 30.859 23.3194C32.2995 22.8986 33.7648 22.5273 35.2301 22.1312C35.7268 22.0074 36 21.6856 36 21.2401C36 20.7697 35.7268 20.4974 35.1804 20.3489Z" stroke="#BCBCE1" stroke-width="3" stroke-miterlimit="10"/>
</svg>
