<svg width="15" height="17" viewBox="0 0 15 17" fill="none" xmlns="http://www.w3.org/2000/svg">
<g clip-path="url(#clip0_169_2)">
<path d="M13.62 7.65992C13.12 7.52992 12.61 7.39992 12.11 7.25992C11.24 7.00992 10.39 6.71992 9.57001 6.33992C9.08001 6.10992 8.75001 5.74992 8.56001 5.23992C8.13001 4.08992 7.88001 2.89992 7.65001 1.69992C7.58001 1.32992 7.52001 0.949923 7.46001 0.579923C7.42001 0.339923 7.21001 0.199923 6.99001 0.279923C6.82001 0.339923 6.77001 0.479923 6.73001 0.639923C6.53001 1.65992 6.34001 2.68992 6.12001 3.70992C5.98001 4.34992 5.79001 4.96992 5.50001 5.55992C5.37001 5.82992 5.19001 6.04992 4.92001 6.17992C4.57001 6.34992 4.23001 6.52992 3.87001 6.66992C2.81001 7.08992 1.71001 7.38992 0.610005 7.65992C0.360005 7.71992 0.240005 7.83992 0.240005 8.02992C0.240005 8.21992 0.360006 8.32992 0.600006 8.38992C1.24001 8.55992 1.88001 8.72992 2.51001 8.91992C3.28001 9.14992 4.05001 9.41992 4.77001 9.78992C5.15001 9.98992 5.41001 10.2699 5.58001 10.6699C5.88001 11.3999 6.09001 12.1599 6.25001 12.9299C6.43001 13.7799 6.58001 14.6299 6.74001 15.4799C6.78001 15.6899 6.91001 15.7999 7.10001 15.7999C7.29001 15.7999 7.41001 15.6699 7.45001 15.4599C7.58001 14.7399 7.70001 14.0099 7.85001 13.2899C8.02001 12.4499 8.24001 11.6199 8.54001 10.8099C8.73001 10.2999 9.05001 9.92992 9.55001 9.71992C9.57001 9.71992 9.58001 9.70992 9.60001 9.69992C10.33 9.34992 11.09 9.08992 11.86 8.86992C12.44 8.69992 13.03 8.54992 13.62 8.38992C13.82 8.33992 13.93 8.20992 13.93 8.02992C13.93 7.83992 13.82 7.72992 13.6 7.66992L13.62 7.65992Z" stroke="#010101" stroke-width="0.5" stroke-miterlimit="10"/>
</g>
<defs>
<clipPath id="clip0_169_2">
<rect width="14.2" height="16.04" fill="white"/>
</clipPath>
</defs>
</svg>
