<svg width="20" height="23" viewBox="0 0 20 23" fill="none" xmlns="http://www.w3.org/2000/svg">
<path d="M19.5179 10.8292C18.7874 10.6393 18.0716 10.4348 17.3411 10.2302C16.0701 9.86501 14.8283 9.44134 13.6304 8.88619C12.9145 8.55018 12.4324 8.02425 12.1549 7.27918C11.5267 5.59912 11.1614 3.86063 10.8254 2.10752C10.7232 1.56698 10.6355 1.01183 10.5478 0.471292C10.4894 0.120671 10.1826 -0.0838581 9.86121 0.0330155C9.61286 0.120671 9.53981 0.3252 9.48137 0.558947C9.18919 2.04909 8.91161 3.55383 8.59021 5.04397C8.38568 5.97896 8.10811 6.88473 7.68444 7.74667C7.49452 8.14112 7.23156 8.46253 6.83711 8.65245C6.32579 8.9008 5.82907 9.16377 5.30314 9.3683C3.75457 9.98188 2.14755 10.4202 0.540541 10.8146C0.17531 10.9023 0 11.0776 0 11.3551C0 11.6327 0.17531 11.7934 0.525931 11.8811C1.46092 12.1294 2.39591 12.3778 3.31629 12.6554C4.4412 12.9914 5.56611 13.3858 6.61797 13.9264C7.17312 14.2186 7.55296 14.6276 7.80131 15.212C8.23959 16.2785 8.54638 17.3888 8.78013 18.5137C9.0431 19.7554 9.26223 20.9972 9.49598 22.239C9.55442 22.5458 9.74434 22.7065 10.0219 22.7065C10.2995 22.7065 10.4748 22.5166 10.5332 22.2098C10.7232 21.1579 10.8985 20.0915 11.1176 19.0396C11.366 17.8124 11.6874 16.5999 12.1256 15.4165C12.4032 14.6714 12.8707 14.1309 13.6012 13.8241C13.6304 13.8241 13.645 13.8095 13.6742 13.7949C14.7407 13.2836 15.851 12.9037 16.9759 12.5823C17.8232 12.334 18.6852 12.1148 19.5471 11.8811C19.8393 11.808 20 11.6181 20 11.3551C20 11.0776 19.8393 10.9169 19.5179 10.8292Z" fill="white"/>
</svg>
