<svg width="37" height="31" viewBox="0 0 37 31" fill="none" xmlns="http://www.w3.org/2000/svg">
<g clip-path="url(#clip0_231_553)">
<path d="M34.233 26.8696L33.8181 25.449L32.3974 25.8639L32.8123 27.2845L34.233 26.8696Z" fill="#BCBCE1"/>
<path d="M34.648 28.3037L34.2332 26.8831L32.8125 27.2979L33.2274 28.7186L34.648 28.3037Z" fill="#BCBCE1"/>
<path d="M32.8117 27.2942L32.3969 25.8735L30.9762 26.2884L31.3911 27.7091L32.8117 27.2942Z" fill="#BCBCE1"/>
<path d="M33.2264 28.7156L32.8115 27.2949L31.3909 27.7098L31.8058 29.1305L33.2264 28.7156Z" fill="#BCBCE1"/>
<path d="M24.62 20.4141L24.2051 18.9934L22.7844 19.4083L23.1993 20.829L24.62 20.4141Z" fill="#BCBCE1"/>
<path d="M25.0346 21.8352L24.6198 20.4146L23.1991 20.8294L23.614 22.2501L25.0346 21.8352Z" fill="#BCBCE1"/>
<path d="M23.1983 20.8259L22.7834 19.4053L21.3628 19.8202L21.7777 21.2408L23.1983 20.8259Z" fill="#BCBCE1"/>
<path d="M23.6106 22.2502L23.1957 20.8296L21.7751 21.2445L22.1899 22.6651L23.6106 22.2502Z" fill="#BCBCE1"/>
<path d="M21.7743 21.241L21.3594 19.8203L19.9387 20.2352L20.3536 21.6559L21.7743 21.241Z" fill="#BCBCE1"/>
<path d="M22.189 22.6621L21.7741 21.2415L20.3534 21.6563L20.7683 23.077L22.189 22.6621Z" fill="#BCBCE1"/>
<path d="M24.0253 23.6716L23.6104 22.251L22.1897 22.6659L22.6046 24.0865L24.0253 23.6716Z" fill="#BCBCE1"/>
<path d="M22.6012 24.0867L22.1863 22.666L20.7657 23.0809L21.1806 24.5016L22.6012 24.0867Z" fill="#BCBCE1"/>
<path d="M22.7837 19.4045L22.3688 17.9839L20.9481 18.3988L21.363 19.8194L22.7837 19.4045Z" fill="#BCBCE1"/>
<path d="M21.362 19.8164L20.9471 18.3958L19.5265 18.8106L19.9414 20.2313L21.362 19.8164Z" fill="#BCBCE1"/>
<path d="M20.3527 21.6528L19.9378 20.2322L18.5171 20.6471L18.932 22.0677L20.3527 21.6528Z" fill="#BCBCE1"/>
<path d="M20.7649 23.0772L20.35 21.6565L18.9294 22.0714L19.3443 23.492L20.7649 23.0772Z" fill="#BCBCE1"/>
<path d="M33.6886 3.8479L33.2737 2.42725L31.853 2.84214L32.2679 4.26279L33.6886 3.8479Z" fill="#BCBCE1"/>
<path d="M34.1133 5.2793L33.6984 3.85864L32.2777 4.27353L32.6926 5.69419L34.1133 5.2793Z" fill="#BCBCE1"/>
<path d="M32.2673 4.27271L31.8524 2.85205L30.4318 3.26694L30.8467 4.6876L32.2673 4.27271Z" fill="#BCBCE1"/>
<path d="M32.6792 5.68433L32.2643 4.26367L30.8437 4.67856L31.2585 6.09922L32.6792 5.68433Z" fill="#BCBCE1"/>
<path d="M30.8429 4.67505L30.428 3.25439L29.0074 3.66929L29.4222 5.08994L30.8429 4.67505Z" fill="#BCBCE1"/>
<path d="M31.258 6.10889L30.8431 4.68823L29.4224 5.10312L29.8373 6.52378L31.258 6.10889Z" fill="#BCBCE1"/>
<path d="M33.1039 7.11548L32.689 5.69482L31.2683 6.10972L31.6832 7.53037L33.1039 7.11548Z" fill="#BCBCE1"/>
<path d="M31.6827 7.54029L31.2678 6.11963L29.8471 6.53452L30.262 7.95518L31.6827 7.54029Z" fill="#BCBCE1"/>
<path d="M31.8523 2.83863L31.4374 1.41797L30.0167 1.83286L30.4316 3.25352L31.8523 2.83863Z" fill="#BCBCE1"/>
<path d="M30.431 3.26343L30.0161 1.84277L28.5955 2.25766L29.0104 3.67832L30.431 3.26343Z" fill="#BCBCE1"/>
<path d="M29.4217 5.09961L29.0068 3.67896L27.5861 4.09385L28.001 5.5145L29.4217 5.09961Z" fill="#BCBCE1"/>
<path d="M29.8363 6.53076L29.4214 5.11011L28.0008 5.525L28.4157 6.94565L29.8363 6.53076Z" fill="#BCBCE1"/>
<path d="M35.1226 3.44287L34.7077 2.02222L33.287 2.43711L33.7019 3.85776L35.1226 3.44287Z" fill="black"/>
<path d="M35.5349 4.85742L35.12 3.43677L33.6993 3.85166L34.1142 5.27231L35.5349 4.85742Z" fill="black"/>
<path d="M34.5255 6.69361L34.1106 5.27295L32.69 5.68784L33.1049 7.1085L34.5255 6.69361Z" fill="black"/>
<path d="M33.519 8.53955L33.1041 7.1189L31.6834 7.53379L32.0983 8.95444L33.519 8.53955Z" fill="black"/>
<path d="M33.2767 2.43628L32.8618 1.01562L31.4412 1.43052L31.856 2.85117L33.2767 2.43628Z" fill="black"/>
<path d="M31.4404 1.427L31.0255 0.00634766L29.6048 0.421239L30.0197 1.84189L31.4404 1.427Z" fill="black"/>
<path d="M30.016 1.82935L29.6011 0.408691L28.1804 0.823582L28.5953 2.24424L30.016 1.82935Z" fill="black"/>
<path d="M29.0094 3.67529L28.5945 2.25464L27.1739 2.66953L27.5887 4.09019L29.0094 3.67529Z" fill="black"/>
<path d="M28 5.52149L27.5851 4.10083L26.1645 4.51572L26.5794 5.93638L28 5.52149Z" fill="black"/>
<path d="M28.4123 6.93604L27.9974 5.51538L26.5768 5.93027L26.9917 7.35093L28.4123 6.93604Z" fill="black"/>
<path d="M30.2486 7.94531L29.8337 6.52466L28.4131 6.93955L28.828 8.36021L30.2486 7.94531Z" fill="black"/>
<path d="M32.0945 8.95191L31.6796 7.53125L30.259 7.94614L30.6739 9.3668L32.0945 8.95191Z" fill="black"/>
<path d="M7.52918 25.3982L7.11429 23.9775L5.69363 24.3924L6.10852 25.8131L7.52918 25.3982Z" fill="#BCBCE1"/>
<path d="M7.95386 26.8193L7.53897 25.3987L6.11831 25.8136L6.53321 27.2342L7.95386 26.8193Z" fill="#BCBCE1"/>
<path d="M6.11756 25.8101L5.70267 24.3894L4.28201 24.8043L4.6969 26.225L6.11756 25.8101Z" fill="#BCBCE1"/>
<path d="M6.52262 27.2439L6.10773 25.8232L4.68707 26.2381L5.10196 27.6588L6.52262 27.2439Z" fill="#BCBCE1"/>
<path d="M4.68631 26.2346L4.27142 24.814L2.85077 25.2289L3.26566 26.6495L4.68631 26.2346Z" fill="#BCBCE1"/>
<path d="M5.10819 27.6563L4.6933 26.2356L3.27264 26.6505L3.68753 28.0711L5.10819 27.6563Z" fill="#BCBCE1"/>
<path d="M6.94449 28.6655L6.5296 27.2449L5.10895 27.6598L5.52384 29.0804L6.94449 28.6655Z" fill="#BCBCE1"/>
<path d="M5.51328 29.0803L5.09839 27.6597L3.67773 28.0746L4.09262 29.4952L5.51328 29.0803Z" fill="#BCBCE1"/>
<path d="M5.69288 24.3887L5.27798 22.968L3.85733 23.3829L4.27222 24.8036L5.69288 24.3887Z" fill="#BCBCE1"/>
<path d="M4.27124 24.8105L3.85635 23.3899L2.4357 23.8048L2.85059 25.2254L4.27124 24.8105Z" fill="#BCBCE1"/>
<path d="M3.26188 26.647L2.84698 25.2263L1.42633 25.6412L1.84122 27.0619L3.26188 26.647Z" fill="#BCBCE1"/>
<path d="M3.67695 28.071L3.26205 26.6504L1.8414 27.0653L2.25629 28.4859L3.67695 28.071Z" fill="#BCBCE1"/>
<path d="M8.9632 24.9829L8.54831 23.5623L7.12765 23.9771L7.54254 25.3978L8.9632 24.9829Z" fill="black"/>
<path d="M9.3751 26.4045L8.96021 24.9839L7.53955 25.3988L7.95444 26.8194L9.3751 26.4045Z" fill="black"/>
<path d="M8.36853 28.2505L7.95364 26.8298L6.53299 27.2447L6.94788 28.6654L8.36853 28.2505Z" fill="black"/>
<path d="M7.35917 30.0869L6.94427 28.6663L5.52362 29.0812L5.93851 30.5018L7.35917 30.0869Z" fill="black"/>
<path d="M7.1269 23.9736L6.71201 22.553L5.29135 22.9679L5.70624 24.3885L7.1269 23.9736Z" fill="black"/>
<path d="M5.28058 22.9644L4.86569 21.5437L3.44503 21.9586L3.85992 23.3792L5.28058 22.9644Z" fill="black"/>
<path d="M3.85657 23.3794L3.44168 21.9587L2.02102 22.3736L2.43591 23.7943L3.85657 23.3794Z" fill="black"/>
<path d="M2.85001 25.2253L2.43512 23.8047L1.01446 24.2196L1.42935 25.6402L2.85001 25.2253Z" fill="black"/>
<path d="M1.84064 27.0615L1.42575 25.6409L0.00509446 26.0558L0.419985 27.4764L1.84064 27.0615Z" fill="black"/>
<path d="M2.25254 28.4832L1.83765 27.0625L0.41699 27.4774L0.831881 28.898L2.25254 28.4832Z" fill="black"/>
<path d="M4.09882 29.4927L3.68393 28.072L2.26327 28.4869L2.67816 29.9076L4.09882 29.4927Z" fill="black"/>
<path d="M5.93515 30.502L5.52026 29.0813L4.09961 29.4962L4.5145 30.9168L5.93515 30.502Z" fill="black"/>
<path d="M26.0412 19.9893L25.6263 18.5686L24.2057 18.9835L24.6205 20.4042L26.0412 19.9893Z" fill="black"/>
<path d="M26.4563 21.4233L26.0414 20.0027L24.6207 20.4176L25.0356 21.8382L26.4563 21.4233Z" fill="black"/>
<path d="M31.3901 27.7061L30.9752 26.2854L29.5546 26.7003L29.9695 28.1209L31.3901 27.7061Z" fill="black"/>
<path d="M31.8024 29.1306L31.3875 27.71L29.9669 28.1249L30.3817 29.5455L31.8024 29.1306Z" fill="black"/>
<path d="M35.6574 26.4573L35.2425 25.0366L33.8219 25.4515L34.2368 26.8722L35.6574 26.4573Z" fill="black"/>
<path d="M36.0693 27.8789L35.6544 26.4583L34.2337 26.8731L34.6486 28.2938L36.0693 27.8789Z" fill="black"/>
<path d="M33.6451 30.1427L35.0658 29.7278L34.6509 28.3071L33.2302 28.722L33.6451 30.1427Z" fill="black"/>
<path d="M32.2229 30.5582L33.6435 30.1433L33.2286 28.7227L31.808 29.1375L32.2229 30.5582Z" fill="black"/>
<path d="M32.392 25.8712L33.8127 25.4563L33.3978 24.0356L31.9771 24.4505L32.392 25.8712Z" fill="black"/>
<path d="M30.9798 26.2867L32.4004 25.8718L31.9855 24.4512L30.5649 24.8661L30.9798 26.2867Z" fill="black"/>
<path d="M25.4565 23.2568L25.0416 21.8362L23.621 22.2511L24.0359 23.6717L25.4565 23.2568Z" fill="black"/>
<path d="M24.4471 25.0933L24.0323 23.6726L22.6116 24.0875L23.0265 25.5082L24.4471 25.0933Z" fill="black"/>
<path d="M24.2049 18.98L23.79 17.5593L22.3693 17.9742L22.7842 19.3949L24.2049 18.98Z" fill="black"/>
<path d="M22.359 17.9734L21.9441 16.5527L20.5234 16.9676L20.9383 18.3883L22.359 17.9734Z" fill="black"/>
<path d="M20.9474 18.3953L20.5325 16.9746L19.1118 17.3895L19.5267 18.8102L20.9474 18.3953Z" fill="black"/>
<path d="M19.938 20.2317L19.5231 18.811L18.1024 19.2259L18.5173 20.6466L19.938 20.2317Z" fill="black"/>
<path d="M18.9286 22.0679L18.5137 20.6472L17.0931 21.0621L17.508 22.4828L18.9286 22.0679Z" fill="black"/>
<path d="M19.3433 23.499L18.9284 22.0784L17.5077 22.4933L17.9226 23.9139L19.3433 23.499Z" fill="black"/>
<path d="M21.1796 24.5085L20.7647 23.0879L19.3441 23.5028L19.7589 24.9234L21.1796 24.5085Z" fill="black"/>
<path d="M23.0259 25.5178L22.611 24.0972L21.1904 24.5121L21.6053 25.9327L23.0259 25.5178Z" fill="black"/>
<path d="M29.2489 9.77881L28.834 8.35815L27.4133 8.77305L27.8282 10.1937L29.2489 9.77881Z" fill="#BCBCE1"/>
<path d="M28.2423 11.6248L27.8274 10.2041L26.4068 10.619L26.8217 12.0396L28.2423 11.6248Z" fill="#BCBCE1"/>
<path d="M27.2329 13.4709L26.8181 12.0503L25.3974 12.4652L25.8123 13.8858L27.2329 13.4709Z" fill="#BCBCE1"/>
<path d="M26.2236 15.3074L25.8087 13.8867L24.3881 14.3016L24.803 15.7223L26.2236 15.3074Z" fill="#BCBCE1"/>
<path d="M25.2142 17.1436L24.7993 15.7229L23.3787 16.1378L23.7936 17.5584L25.2142 17.1436Z" fill="#BCBCE1"/>
<path d="M27.2928 24.2661L26.8779 22.8455L25.4573 23.2603L25.8722 24.681L27.2928 24.2661Z" fill="#BCBCE1"/>
<path d="M29.1291 25.2756L28.7142 23.855L27.2936 24.2699L27.7085 25.6905L29.1291 25.2756Z" fill="#BCBCE1"/>
<path d="M30.9754 26.2849L30.5605 24.8643L29.1399 25.2791L29.5548 26.6998L30.9754 26.2849Z" fill="#BCBCE1"/>
<path d="M9.30847 15.6111L9.72336 17.0317L11.144 16.6168L10.7291 15.1962L9.30847 15.6111Z" fill="#BCBCE1"/>
<path d="M8.89315 14.1924L9.30804 15.613L10.7287 15.1981L10.3138 13.7775L8.89315 14.1924Z" fill="#BCBCE1"/>
<path d="M10.7368 15.2031L11.1517 16.6238L12.5724 16.2089L12.1575 14.7882L10.7368 15.2031Z" fill="#BCBCE1"/>
<path d="M10.3191 13.7776L10.734 15.1982L12.1547 14.7834L11.7398 13.3627L10.3191 13.7776Z" fill="#BCBCE1"/>
<path d="M12.1528 14.7781L12.5677 16.1987L13.9883 15.7838L13.5735 14.3632L12.1528 14.7781Z" fill="black"/>
<path d="M11.7475 13.3594L12.1624 14.78L13.583 14.3651L13.1682 12.9445L11.7475 13.3594Z" fill="black"/>
<path d="M7.8897 16.0266L8.3046 17.4473L9.72525 17.0324L9.31036 15.6117L7.8897 16.0266Z" fill="black"/>
<path d="M7.47439 14.6077L7.88928 16.0283L9.30994 15.6134L8.89505 14.1928L7.47439 14.6077Z" fill="black"/>
<path d="M9.90598 12.3551L8.48532 12.77L8.90021 14.1907L10.3209 13.7758L9.90598 12.3551Z" fill="black"/>
<path d="M11.3213 11.9337L9.90063 12.3486L10.3155 13.7693L11.7362 13.3544L11.3213 11.9337Z" fill="black"/>
<path d="M11.1529 16.6234L9.73221 17.0383L10.1471 18.459L11.5678 18.0441L11.1529 16.6234Z" fill="black"/>
<path d="M12.5682 16.2021L11.1475 16.6169L11.5624 18.0376L12.9831 17.6227L12.5682 16.2021Z" fill="black"/>
<path d="M16.2583 18.2278L16.6732 19.6484L18.0939 19.2335L17.679 17.8129L16.2583 18.2278Z" fill="#BCBCE1"/>
<path d="M14.4146 17.217L14.8295 18.6377L16.2502 18.2228L15.8353 16.8021L14.4146 17.217Z" fill="#BCBCE1"/>
<path d="M12.5805 16.2136L12.9954 17.6343L14.4161 17.2194L14.0012 15.7987L12.5805 16.2136Z" fill="#BCBCE1"/>
<path d="M6.28375 21.1326L6.69864 22.5532L8.1193 22.1383L7.70441 20.7177L6.28375 21.1326Z" fill="#BCBCE1"/>
<path d="M7.29718 19.2986L7.71207 20.7192L9.13272 20.3043L8.71783 18.8837L7.29718 19.2986Z" fill="#BCBCE1"/>
<path d="M8.29782 17.4548L8.71271 18.8755L10.1334 18.4606L9.71847 17.0399L8.29782 17.4548Z" fill="#BCBCE1"/>
</g>
<defs>
<clipPath id="clip0_231_553">
<rect width="36.08" height="30.92" fill="white"/>
</clipPath>
</defs>
</svg>
