<svg width="29" height="29" viewBox="0 0 29 29" fill="none" xmlns="http://www.w3.org/2000/svg">
<g clip-path="url(#clip0_231_455)">
<path d="M6.43288 1.60522H4.82755V3.21056H6.43288V1.60522Z" fill="#BCBCE1"/>
<path d="M8.04979 1.60522H6.44446V3.21056H8.04979V1.60522Z" fill="#BCBCE1"/>
<path d="M12.8773 1.60522H11.272V3.21056H12.8773V1.60522Z" fill="#BCBCE1"/>
<path d="M14.4942 1.60522H12.8889V3.21056H14.4942V1.60522Z" fill="#BCBCE1"/>
<path d="M16.0996 1.60522H14.4942V3.21056H16.0996V1.60522Z" fill="#BCBCE1"/>
<path d="M17.7165 1.60522H16.1111V3.21056H17.7165V1.60522Z" fill="#BCBCE1"/>
<path d="M11.272 24.1609H9.66666V25.7662H11.272V24.1609Z" fill="#BCBCE1"/>
<path d="M9.65511 24.1609H8.04977V25.7662H9.65511V24.1609Z" fill="#BCBCE1"/>
<path d="M8.04979 22.5557H6.44446V24.161H8.04979V22.5557Z" fill="#BCBCE1"/>
<path d="M6.43288 22.5557H4.82755V24.161H6.43288V22.5557Z" fill="#BCBCE1"/>
<path d="M4.82757 20.9387H3.22223V22.5441H4.82757V20.9387Z" fill="#BCBCE1"/>
<path d="M3.21068 19.3333H1.60535V20.9386H3.21068V19.3333Z" fill="#BCBCE1"/>
<path d="M3.21068 17.7166H1.60535V19.3219H3.21068V17.7166Z" fill="#BCBCE1"/>
<path d="M1.60534 16.1111H0V17.7164H1.60534V16.1111Z" fill="#BCBCE1"/>
<path d="M1.60534 14.4941H0V16.0995H1.60534V14.4941Z" fill="#BCBCE1"/>
<path d="M1.60534 12.8889H0V14.4943H1.60534V12.8889Z" fill="#BCBCE1"/>
<path d="M3.21068 8.0498H1.60535V9.65514H3.21068V8.0498Z" fill="#BCBCE1"/>
<path d="M1.60534 9.66675H0V11.2721H1.60534V9.66675Z" fill="#BCBCE1"/>
<path d="M1.60534 11.272H0V12.8773H1.60534V11.272Z" fill="#BCBCE1"/>
<path d="M19.3218 3.22217H17.7165V4.8275H19.3218V3.22217Z" fill="#BCBCE1"/>
<path d="M25.7662 12.8889H24.1609V14.4943H25.7662V12.8889Z" fill="#BCBCE1"/>
<path d="M25.7662 14.4941H24.1609V16.0995H25.7662V14.4941Z" fill="#BCBCE1"/>
<path d="M25.7662 16.1111H24.1609V17.7164H25.7662V16.1111Z" fill="#BCBCE1"/>
<path d="M24.1609 17.7166H22.5555V19.3219H24.1609V17.7166Z" fill="#BCBCE1"/>
<path d="M24.1609 19.3333H22.5555V20.9386H24.1609V19.3333Z" fill="#BCBCE1"/>
<path d="M22.544 20.9387H20.9387V22.5441H22.544V20.9387Z" fill="#BCBCE1"/>
<path d="M20.9387 3.22217H19.3333V4.8275H20.9387V3.22217Z" fill="#BCBCE1"/>
<path d="M6.43288 3.22217H4.82755V4.8275H6.43288V3.22217Z" fill="#BCBCE1"/>
<path d="M8.04979 3.22217H6.44446V4.8275H8.04979V3.22217Z" fill="#BCBCE1"/>
<path d="M6.43288 4.82764H4.82755V6.43297H6.43288V4.82764Z" fill="#BCBCE1"/>
<path d="M8.04979 4.82764H6.44446V6.43297H8.04979V4.82764Z" fill="#BCBCE1"/>
<path d="M9.65511 3.22217H8.04977V4.8275H9.65511V3.22217Z" fill="#BCBCE1"/>
<path d="M9.65511 4.82764H8.04977V6.43297H9.65511V4.82764Z" fill="#BCBCE1"/>
<path d="M4.82757 3.22217H3.22223V4.8275H4.82757V3.22217Z" fill="#BCBCE1"/>
<path d="M4.82757 4.82764H3.22223V6.43297H4.82757V4.82764Z" fill="#BCBCE1"/>
<path d="M6.43288 6.44434H4.82755V8.04967H6.43288V6.44434Z" fill="#BCBCE1"/>
<path d="M8.04979 6.44434H6.44446V8.04967H8.04979V6.44434Z" fill="#BCBCE1"/>
<path d="M6.43288 0H4.82755V1.60534H6.43288V0Z" fill="black"/>
<path d="M8.04979 0H6.44446V1.60534H8.04979V0Z" fill="black"/>
<path d="M9.65511 1.60522H8.04977V3.21056H9.65511V1.60522Z" fill="black"/>
<path d="M11.272 3.22217H9.66666V4.8275H11.272V3.22217Z" fill="black"/>
<path d="M4.82757 1.60522H3.22223V3.21056H4.82757V1.60522Z" fill="black"/>
<path d="M3.21068 3.22217H1.60535V4.8275H3.21068V3.22217Z" fill="black"/>
<path d="M3.21068 4.82764H1.60535V6.43297H3.21068V4.82764Z" fill="black"/>
<path d="M4.82757 6.44434H3.22223V8.04967H4.82757V6.44434Z" fill="black"/>
<path d="M6.43288 8.0498H4.82755V9.65514H6.43288V8.0498Z" fill="black"/>
<path d="M8.04979 8.0498H6.44446V9.65514H8.04979V8.0498Z" fill="black"/>
<path d="M9.65511 6.44434H8.04977V8.04967H9.65511V6.44434Z" fill="black"/>
<path d="M11.272 4.82764H9.66666V6.43297H11.272V4.82764Z" fill="black"/>
<path d="M24.1609 4.82764H22.5555V6.43297H24.1609V4.82764Z" fill="#BCBCE1"/>
<path d="M25.7662 4.82764H24.1609V6.43297H25.7662V4.82764Z" fill="#BCBCE1"/>
<path d="M24.1609 6.44434H22.5555V8.04967H24.1609V6.44434Z" fill="#BCBCE1"/>
<path d="M25.7662 6.44434H24.1609V8.04967H25.7662V6.44434Z" fill="#BCBCE1"/>
<path d="M24.1609 8.0498H22.5555V9.65514H24.1609V8.0498Z" fill="#BCBCE1"/>
<path d="M25.7662 8.0498H24.1609V9.65514H25.7662V8.0498Z" fill="#BCBCE1"/>
<path d="M27.3831 6.44434H25.7778V8.04967H27.3831V6.44434Z" fill="#BCBCE1"/>
<path d="M27.3831 8.0498H25.7778V9.65514H27.3831V8.0498Z" fill="#BCBCE1"/>
<path d="M22.544 6.44434H20.9387V8.04967H22.544V6.44434Z" fill="#BCBCE1"/>
<path d="M22.544 8.0498H20.9387V9.65514H22.544V8.0498Z" fill="#BCBCE1"/>
<path d="M24.1609 9.66675H22.5555V11.2721H24.1609V9.66675Z" fill="#BCBCE1"/>
<path d="M25.7662 9.66675H24.1609V11.2721H25.7662V9.66675Z" fill="#BCBCE1"/>
<path d="M24.1609 3.22217H22.5555V4.8275H24.1609V3.22217Z" fill="black"/>
<path d="M25.7662 3.22217H24.1609V4.8275H25.7662V3.22217Z" fill="black"/>
<path d="M27.3831 4.82764H25.7778V6.43297H27.3831V4.82764Z" fill="black"/>
<path d="M28.9885 6.44434H27.3831V8.04967H28.9885V6.44434Z" fill="black"/>
<path d="M22.544 4.82764H20.9387V6.43297H22.544V4.82764Z" fill="black"/>
<path d="M20.9387 6.44434H19.3333V8.04967H20.9387V6.44434Z" fill="black"/>
<path d="M20.9387 8.0498H19.3333V9.65514H20.9387V8.0498Z" fill="black"/>
<path d="M22.544 9.66675H20.9387V11.2721H22.544V9.66675Z" fill="black"/>
<path d="M24.1609 11.272H22.5555V12.8773H24.1609V11.272Z" fill="black"/>
<path d="M25.7662 11.272H24.1609V12.8773H25.7662V11.272Z" fill="black"/>
<path d="M27.3831 9.66675H25.7778V11.2721H27.3831V9.66675Z" fill="black"/>
<path d="M28.9885 8.0498H27.3831V9.65514H28.9885V8.0498Z" fill="black"/>
<path d="M16.0996 20.9387H14.4942V22.5441H16.0996V20.9387Z" fill="#BCBCE1"/>
<path d="M17.7165 20.9387H16.1111V22.5441H17.7165V20.9387Z" fill="#BCBCE1"/>
<path d="M16.0996 22.5557H14.4942V24.161H16.0996V22.5557Z" fill="#BCBCE1"/>
<path d="M17.7165 22.5557H16.1111V24.161H17.7165V22.5557Z" fill="#BCBCE1"/>
<path d="M16.0996 24.1609H14.4942V25.7662H16.0996V24.1609Z" fill="#BCBCE1"/>
<path d="M17.7165 24.1609H16.1111V25.7662H17.7165V24.1609Z" fill="#BCBCE1"/>
<path d="M19.3218 22.5557H17.7165V24.161H19.3218V22.5557Z" fill="#BCBCE1"/>
<path d="M19.3218 24.1609H17.7165V25.7662H19.3218V24.1609Z" fill="#BCBCE1"/>
<path d="M14.4942 22.5557H12.8889V24.161H14.4942V22.5557Z" fill="#BCBCE1"/>
<path d="M14.4942 24.1609H12.8889V25.7662H14.4942V24.1609Z" fill="#BCBCE1"/>
<path d="M16.0996 25.7778H14.4942V27.3832H16.0996V25.7778Z" fill="#BCBCE1"/>
<path d="M17.7165 25.7778H16.1111V27.3832H17.7165V25.7778Z" fill="#BCBCE1"/>
<path d="M16.0996 19.3333H14.4942V20.9386H16.0996V19.3333Z" fill="black"/>
<path d="M17.7165 19.3333H16.1111V20.9386H17.7165V19.3333Z" fill="black"/>
<path d="M19.3218 20.9387H17.7165V22.5441H19.3218V20.9387Z" fill="black"/>
<path d="M20.9387 22.5557H19.3333V24.161H20.9387V22.5557Z" fill="black"/>
<path d="M14.4942 20.9387H12.8889V22.5441H14.4942V20.9387Z" fill="black"/>
<path d="M12.8773 22.5557H11.272V24.161H12.8773V22.5557Z" fill="black"/>
<path d="M12.8773 24.1609H11.272V25.7662H12.8773V24.1609Z" fill="black"/>
<path d="M14.4942 25.7778H12.8889V27.3832H14.4942V25.7778Z" fill="black"/>
<path d="M16.0996 27.3831H14.4942V28.9884H16.0996V27.3831Z" fill="black"/>
<path d="M17.7165 27.3831H16.1111V28.9884H17.7165V27.3831Z" fill="black"/>
<path d="M19.3218 25.7778H17.7165V27.3832H19.3218V25.7778Z" fill="black"/>
<path d="M20.9387 24.1609H19.3333V25.7662H20.9387V24.1609Z" fill="black"/>
</g>
<defs>
<clipPath id="clip0_231_455">
<rect width="29" height="29" fill="white"/>
</clipPath>
</defs>
</svg>
