<svg width="24" height="29" viewBox="0 0 24 29" fill="none" xmlns="http://www.w3.org/2000/svg">
<g clip-path="url(#clip0_194_992)">
<path d="M21.9524 0.887093L20.552 0.00195312L19.6443 1.36755L21.0447 2.25269L21.9524 0.887093Z" fill="black"/>
<path d="M21.0516 2.25159L19.6512 1.36646L18.7436 2.73206L20.1439 3.6172L21.0516 2.25159Z" fill="black"/>
<path d="M20.1508 3.60438L18.7504 2.71924L17.8427 4.08484L19.2431 4.96998L20.1508 3.60438Z" fill="black"/>
<path d="M19.24 4.96253L17.8396 4.07739L16.9319 5.44299L18.3323 6.32813L19.24 4.96253Z" fill="black"/>
<path d="M18.3326 6.33704L16.9322 5.4519L16.0245 6.81751L17.4249 7.70264L18.3326 6.33704Z" fill="black"/>
<path d="M19.7319 7.21546L18.3315 6.33032L17.4238 7.69592L18.8242 8.58106L19.7319 7.21546Z" fill="black"/>
<path d="M22.0421 6.73572L20.6417 5.85059L19.734 7.21619L21.1344 8.10133L22.0421 6.73572Z" fill="black"/>
<path d="M16.9519 5.44862L15.5515 4.56348L14.6438 5.92908L16.0442 6.81422L16.9519 5.44862Z" fill="black"/>
<path d="M16.4534 3.2057L15.053 2.32056L14.1453 3.68616L15.5457 4.5713L16.4534 3.2057Z" fill="black"/>
<path d="M3.77967 22.2631L2.37927 21.3779L1.47158 22.7435L2.87198 23.6287L3.77967 22.2631Z" fill="black"/>
<path d="M9.36829 25.7931L7.9679 24.908L7.06021 26.2736L8.4606 27.1587L9.36829 25.7931Z" fill="black"/>
<path d="M11.6664 25.3134L10.2661 24.4282L9.35836 25.7938L10.7588 26.679L11.6664 25.3134Z" fill="black"/>
<path d="M13.9766 24.8336L12.5762 23.9485L11.6685 25.3141L13.0689 26.1992L13.9766 24.8336Z" fill="black"/>
<path d="M16.2581 24.3573L14.8577 23.4722L13.95 24.8378L15.3504 25.7229L16.2581 24.3573Z" fill="black"/>
<path d="M17.1755 23.0011L15.7751 22.116L14.8675 23.4816L16.2679 24.3667L17.1755 23.0011Z" fill="black"/>
<path d="M16.6771 20.7582L15.2767 19.873L14.369 21.2386L15.7694 22.1238L16.6771 20.7582Z" fill="black"/>
<path d="M18.9872 20.2784L17.5868 19.3933L16.6791 20.7589L18.0795 21.6441L18.9872 20.2784Z" fill="black"/>
<path d="M21.2873 19.7924L19.8869 18.9072L18.9792 20.2728L20.3796 21.158L21.2873 19.7924Z" fill="black"/>
<path d="M22.1862 18.4459L20.7858 17.5608L19.8781 18.9264L21.2785 19.8115L22.1862 18.4459Z" fill="black"/>
<path d="M21.7062 16.1932L20.3058 15.3081L19.3981 16.6737L20.7985 17.5588L21.7062 16.1932Z" fill="black"/>
<path d="M23.9943 15.7072L22.5939 14.822L21.6862 16.1876L23.0866 17.0728L23.9943 15.7072Z" fill="black"/>
<path d="M23.5124 13.4723L22.112 12.5872L21.2043 13.9528L22.6047 14.8379L23.5124 13.4723Z" fill="black"/>
<path d="M23.0139 11.2294L21.6135 10.3442L20.7058 11.7098L22.1062 12.595L23.0139 11.2294Z" fill="black"/>
<path d="M21.6231 10.3348L20.2227 9.44971L19.315 10.8153L20.7154 11.7004L21.6231 10.3348Z" fill="black"/>
<path d="M20.2239 9.45643L18.8235 8.57129L17.9158 9.93689L19.3162 10.822L20.2239 9.45643Z" fill="black"/>
<path d="M8.46097 27.1674L7.06058 26.2822L6.15289 27.6478L7.55328 28.533L8.46097 27.1674Z" fill="black"/>
<path d="M2.87885 23.6276L1.47845 22.7424L0.570764 24.108L1.97116 24.9932L2.87885 23.6276Z" fill="black"/>
<path d="M3.28772 20.0221L1.88733 19.137L0.979639 20.5026L2.38003 21.3877L3.28772 20.0221Z" fill="black"/>
<path d="M2.79578 17.7694L1.39539 16.8843L0.487695 18.2499L1.88809 19.135L2.79578 17.7694Z" fill="black"/>
<path d="M6.48667 18.1779L5.08627 17.2927L4.17858 18.6583L5.57898 19.5435L6.48667 18.1779Z" fill="black"/>
<path d="M7.47709 22.6618L6.07669 21.7766L5.169 23.1422L6.5694 24.0274L7.47709 22.6618Z" fill="black"/>
<path d="M13.887 18.9852L12.4866 18.1001L11.5789 19.4657L12.9793 20.3508L13.887 18.9852Z" fill="black"/>
<path d="M12.4147 12.2548L11.0143 11.3696L10.1066 12.7352L11.507 13.6204L12.4147 12.2548Z" fill="black"/>
<path d="M7.31446 10.9733L5.91406 10.0881L5.00637 11.4537L6.40677 12.3389L7.31446 10.9733Z" fill="black"/>
<path d="M18.9041 14.4201L17.5037 13.5349L16.596 14.9005L17.9964 15.7857L18.9041 14.4201Z" fill="black"/>
<path d="M12.8236 8.6493L11.4232 7.76416L10.5155 9.12976L11.9159 10.0149L12.8236 8.6493Z" fill="black"/>
<path d="M9.69761 16.3453L8.29721 15.4602L7.38952 16.8258L8.78992 17.7109L9.69761 16.3453Z" fill="black"/>
<path d="M2.30738 15.5446L0.906982 14.6594L-0.000708416 16.025L1.39969 16.9102L2.30738 15.5446Z" fill="black"/>
<path d="M3.2147 14.1703L1.8143 13.2852L0.90661 14.6508L2.307 15.5359L3.2147 14.1703Z" fill="black"/>
<path d="M5.51831 13.7003L4.11792 12.8152L3.21023 14.1808L4.61062 15.0659L5.51831 13.7003Z" fill="black"/>
<path d="M4.53443 9.20643L3.13403 8.32129L2.22634 9.68689L3.62674 10.572L4.53443 9.20643Z" fill="black"/>
<path d="M5.43525 7.84193L4.03485 6.95679L3.12716 8.32239L4.52756 9.20753L5.43525 7.84193Z" fill="black"/>
<path d="M9.55158 4.64149L8.15118 3.75635L7.24349 5.12195L8.64389 6.00709L9.55158 4.64149Z" fill="black"/>
<path d="M11.8517 4.1554L10.4513 3.27026L9.54357 4.63587L10.944 5.521L11.8517 4.1554Z" fill="black"/>
<path d="M13.2425 5.04993L11.8421 4.16479L10.9344 5.5304L12.3348 6.41554L13.2425 5.04993Z" fill="black"/>
<path d="M14.6417 5.92835L13.2413 5.04321L12.3336 6.40881L13.734 7.29395L14.6417 5.92835Z" fill="black"/>
<path d="M7.25345 5.12122L5.85306 4.23608L4.94537 5.60169L6.34576 6.48682L7.25345 5.12122Z" fill="black"/>
<path d="M7.73337 7.36219L6.33298 6.47705L5.42529 7.84265L6.82568 8.72779L7.73337 7.36219Z" fill="black"/>
<path d="M5.02637 11.4476L3.62598 10.5625L2.71829 11.9281L4.11868 12.8132L5.02637 11.4476Z" fill="black"/>
<path d="M3.37079 25.8805L1.9704 24.9954L1.06271 26.361L2.4631 27.2461L3.37079 25.8805Z" fill="black"/>
<path d="M4.75806 26.7589L3.35767 25.8738L2.44998 27.2394L3.85037 28.1245L4.75806 26.7589Z" fill="black"/>
<path d="M6.15735 27.6256L4.75696 26.7405L3.84927 28.1061L5.24966 28.9912L6.15735 27.6256Z" fill="black"/>
</g>
<defs>
<clipPath id="clip0_194_992">
<rect width="24" height="29" fill="white"/>
</clipPath>
</defs>
</svg>
