<svg width="19" height="31" viewBox="0 0 19 31" fill="none" xmlns="http://www.w3.org/2000/svg">
<g clip-path="url(#clip0_231_387)">
<path d="M13.75 1.53003H12.22V3.06003H13.75V1.53003Z" fill="#BCBCE1"/>
<path d="M15.28 1.53003H13.75V3.06003H15.28V1.53003Z" fill="#BCBCE1"/>
<path d="M13.75 3.05005H12.22V4.58005H13.75V3.05005Z" fill="#BCBCE1"/>
<path d="M15.28 3.05005H13.75V4.58005H15.28V3.05005Z" fill="#BCBCE1"/>
<path d="M13.75 4.58008H12.22V6.11008H13.75V4.58008Z" fill="#BCBCE1"/>
<path d="M15.28 4.58008H13.75V6.11008H15.28V4.58008Z" fill="#BCBCE1"/>
<path d="M16.8 3.05005H15.27V4.58005H16.8V3.05005Z" fill="#BCBCE1"/>
<path d="M16.8 4.58008H15.27V6.11008H16.8V4.58008Z" fill="#BCBCE1"/>
<path d="M12.22 3.05005H10.69V4.58005H12.22V3.05005Z" fill="#BCBCE1"/>
<path d="M12.22 4.58008H10.69V6.11008H12.22V4.58008Z" fill="#BCBCE1"/>
<path d="M13.75 6.11011H12.22V7.64011H13.75V6.11011Z" fill="#BCBCE1"/>
<path d="M15.28 6.11011H13.75V7.64011H15.28V6.11011Z" fill="#BCBCE1"/>
<path d="M13.75 0H12.22V1.53H13.75V0Z" fill="black"/>
<path d="M15.28 0H13.75V1.53H15.28V0Z" fill="black"/>
<path d="M16.8 1.53003H15.27V3.06003H16.8V1.53003Z" fill="black"/>
<path d="M18.33 3.05005H16.8V4.58005H18.33V3.05005Z" fill="black"/>
<path d="M12.22 1.53003H10.69V3.06003H12.22V1.53003Z" fill="black"/>
<path d="M10.69 3.05005H9.16V4.58005H10.69V3.05005Z" fill="black"/>
<path d="M10.69 4.58008H9.16V6.11008H10.69V4.58008Z" fill="black"/>
<path d="M12.22 6.11011H10.69V7.64011H12.22V6.11011Z" fill="black"/>
<path d="M13.75 7.63989H12.22V9.16989H13.75V7.63989Z" fill="black"/>
<path d="M15.28 7.63989H13.75V9.16989H15.28V7.63989Z" fill="black"/>
<path d="M16.8 6.11011H15.27V7.64011H16.8V6.11011Z" fill="black"/>
<path d="M18.33 4.58008H16.8V6.11008H18.33V4.58008Z" fill="black"/>
<path d="M13.75 22.9099H12.22V24.4399H13.75V22.9099Z" fill="#BCBCE1"/>
<path d="M15.28 22.9099H13.75V24.4399H15.28V22.9099Z" fill="#BCBCE1"/>
<path d="M13.75 24.4399H12.22V25.9699H13.75V24.4399Z" fill="#BCBCE1"/>
<path d="M15.28 24.4399H13.75V25.9699H15.28V24.4399Z" fill="#BCBCE1"/>
<path d="M13.75 25.96H12.22V27.49H13.75V25.96Z" fill="#BCBCE1"/>
<path d="M15.28 25.96H13.75V27.49H15.28V25.96Z" fill="#BCBCE1"/>
<path d="M16.8 24.4399H15.27V25.9699H16.8V24.4399Z" fill="#BCBCE1"/>
<path d="M16.8 25.96H15.27V27.49H16.8V25.96Z" fill="#BCBCE1"/>
<path d="M12.22 24.4399H10.69V25.9699H12.22V24.4399Z" fill="#BCBCE1"/>
<path d="M12.22 25.96H10.69V27.49H12.22V25.96Z" fill="#BCBCE1"/>
<path d="M13.75 27.49H12.22V29.02H13.75V27.49Z" fill="#BCBCE1"/>
<path d="M15.28 27.49H13.75V29.02H15.28V27.49Z" fill="#BCBCE1"/>
<path d="M13.75 21.3799H12.22V22.9099H13.75V21.3799Z" fill="black"/>
<path d="M15.28 21.3799H13.75V22.9099H15.28V21.3799Z" fill="black"/>
<path d="M16.8 22.9099H15.27V24.4399H16.8V22.9099Z" fill="black"/>
<path d="M18.33 24.4399H16.8V25.9699H18.33V24.4399Z" fill="black"/>
<path d="M12.22 22.9099H10.69V24.4399H12.22V22.9099Z" fill="black"/>
<path d="M10.69 24.4399H9.16V25.9699H10.69V24.4399Z" fill="black"/>
<path d="M10.69 25.96H9.16V27.49H10.69V25.96Z" fill="black"/>
<path d="M12.22 27.49H10.69V29.02H12.22V27.49Z" fill="black"/>
<path d="M13.75 29.02H12.22V30.55H13.75V29.02Z" fill="black"/>
<path d="M15.28 29.02H13.75V30.55H15.28V29.02Z" fill="black"/>
<path d="M16.8 27.49H15.27V29.02H16.8V27.49Z" fill="black"/>
<path d="M18.33 25.96H16.8V27.49H18.33V25.96Z" fill="black"/>
<path d="M1.53 16.8001V18.3301H3.06V16.8001H1.53Z" fill="#BCBCE1"/>
<path d="M1.51999 15.27V16.8H3.04999V15.27H1.51999Z" fill="#BCBCE1"/>
<path d="M3.04999 16.8001V18.3301H4.57999V16.8001H3.04999Z" fill="#BCBCE1"/>
<path d="M3.04999 15.2801V16.8101H4.57999V15.2801H3.04999Z" fill="#BCBCE1"/>
<path d="M4.57999 16.8001V18.3301H6.10999V16.8001H4.57999Z" fill="black"/>
<path d="M4.57999 15.27V16.8H6.10999V15.27H4.57999Z" fill="black"/>
<path d="M0 16.8001L0 18.3301H1.53V16.8001H0Z" fill="black"/>
<path d="M0 15.27L0 16.8H1.53V15.27H0Z" fill="black"/>
<path d="M3.06 13.75H1.53V15.28H3.06V13.75Z" fill="black"/>
<path d="M4.57999 13.75H3.04999V15.28H4.57999V13.75Z" fill="black"/>
<path d="M3.06 18.3301H1.53V19.8601H3.06V18.3301Z" fill="black"/>
<path d="M4.57999 18.3301H3.04999V19.8601H4.57999V18.3301Z" fill="black"/>
<path d="M4.57999 12.22V13.75H6.10999V12.22H4.57999Z" fill="#BCBCE1"/>
<path d="M6.10999 18.3201V19.8501H7.63999V18.3201H6.10999Z" fill="#BCBCE1"/>
<path d="M7.64001 19.8499V21.3799H9.17001V19.8499H7.64001Z" fill="#BCBCE1"/>
<path d="M9.16 21.3799V22.9099H10.69V21.3799H9.16Z" fill="#BCBCE1"/>
<path d="M6.10999 10.69V12.22H7.63999V10.69H6.10999Z" fill="#BCBCE1"/>
<path d="M7.63 9.15994V10.6899H9.16V9.15994H7.63Z" fill="#BCBCE1"/>
<path d="M9.17001 7.63992V9.16992H10.7V7.63992H9.17001Z" fill="#BCBCE1"/>
</g>
<defs>
<clipPath id="clip0_231_387">
<rect width="18.33" height="30.55" fill="white"/>
</clipPath>
</defs>
</svg>
