<svg width="196" height="54" viewBox="0 0 196 54" fill="none" xmlns="http://www.w3.org/2000/svg">
<g clip-path="url(#clip0_2_712)">
<path d="M170.507 0.774456C165.301 0.320467 160.368 1.33527 156.093 3.44498C148.996 6.94336 140.446 6.97007 133.376 3.44498C129.758 1.65573 125.675 0.64093 121.373 0.64093C117.07 0.64093 112.96 1.65573 109.37 3.44498C102.3 6.94336 93.75 6.94336 86.7072 3.44498C83.09 1.65573 79.0068 0.64093 74.7045 0.64093C70.4021 0.64093 66.2916 1.65573 62.7017 3.44498C55.6316 6.94336 47.0543 6.91666 39.9841 3.44498C35.7092 1.33527 30.7765 0.320467 25.5698 0.774456C13.156 1.84267 2.96189 11.5367 1.59172 23.5807C-0.189517 39.1766 12.3065 52.3957 27.954 52.3957C32.2837 52.3957 36.3669 51.3809 39.9567 49.5916C47.0268 46.0932 55.5768 46.0932 62.6195 49.5916C66.2368 51.3809 70.3199 52.3957 74.6223 52.3957C78.9246 52.3957 83.0352 51.3809 86.625 49.5916C93.6951 46.0932 102.245 46.0932 109.288 49.5916C112.905 51.3809 116.988 52.3957 121.291 52.3957C125.593 52.3957 129.703 51.3809 133.293 49.5916C140.363 46.0932 148.913 46.0932 155.956 49.5916C159.573 51.3809 163.656 52.3957 167.959 52.3957C183.606 52.3957 196.102 39.1766 194.321 23.5807C192.951 11.5367 182.757 1.84267 170.37 0.774456H170.507Z" stroke="black" stroke-miterlimit="10"/>
</g>
<path d="M29.4189 31.1305C29.1757 31.1305 28.9546 31.0421 28.7998 30.8873C28.6451 30.7104 28.5345 30.4672 28.4903 30.1577L27.4733 21.7118H28.8662L29.7063 29.4281H29.242L30.5244 23.5248C30.5907 23.2595 30.7013 23.0384 30.8782 22.8836C31.055 22.7288 31.254 22.6404 31.4972 22.6404C31.7404 22.6404 31.9394 22.7288 32.1163 22.8836C32.2932 23.0384 32.4258 23.2595 32.4922 23.5248L33.7745 29.4502H33.3323L34.1725 21.7118H35.5212L34.5042 30.1577C34.4599 30.4672 34.3715 30.7104 34.1946 30.8873C34.0398 31.0642 33.8188 31.1305 33.5534 31.1305C33.2881 31.1305 33.0891 31.0421 32.9344 30.8873C32.7796 30.7326 32.669 30.4451 32.5806 30.0914L31.3425 24.6524H31.6078L30.3696 30.0914C30.2812 30.4672 30.1706 30.7326 30.0159 30.8873C29.8611 31.0421 29.6621 31.1305 29.3968 31.1305H29.4189Z" fill="black"/>
<path d="M37.7322 30.9979V29.6934H39.6336C39.8326 29.6934 40.0095 29.6271 40.1422 29.4723C40.2748 29.3397 40.3411 29.1628 40.3411 28.9638V23.7238C40.3411 23.5248 40.2748 23.3701 40.12 23.2374C39.9874 23.1048 39.8105 23.0384 39.6115 23.0384H37.7101V21.7339H44.343V23.0384H42.4416C42.2426 23.0384 42.0878 23.1048 41.933 23.2374C41.8004 23.3701 41.7119 23.5469 41.7119 23.7238V28.9638C41.7119 29.1628 41.7783 29.3176 41.933 29.4723C42.0657 29.605 42.2426 29.6934 42.4416 29.6934H44.343V30.9979H37.7101H37.7322Z" fill="black"/>
<path d="M49.9146 24.0997C49.9146 23.7901 49.804 23.5469 49.605 23.348C49.406 23.149 49.1407 23.0384 48.8312 23.0384H46.8192V21.7339H54.3807V23.0384H52.3909C52.0813 23.0384 51.816 23.149 51.617 23.348C51.418 23.5469 51.3075 23.8123 51.3075 24.0997V30.9979H49.9146V24.0997Z" fill="black"/>
<path d="M56.7686 30.9979V21.7118H58.1615V24.7187C58.1615 24.9619 58.2499 25.183 58.4047 25.3378C58.5816 25.5147 58.7805 25.581 59.0237 25.581H61.2568C61.5221 25.581 61.7211 25.4926 61.898 25.3378C62.0749 25.183 62.1412 24.9619 62.1412 24.7187V21.7118H63.5341V30.9979H62.1412V27.792C62.1412 27.5266 62.0528 27.3277 61.898 27.1508C61.7432 26.996 61.5221 26.9076 61.2568 26.9076H59.0237C58.7805 26.9076 58.5594 26.996 58.4047 27.1508C58.2278 27.3055 58.1615 27.5266 58.1615 27.792V30.9979H56.7686Z" fill="black"/>
<path d="M75.9377 30.9979V21.7118H80.028C80.6029 21.7118 81.1335 21.8445 81.5978 22.0877C82.0621 22.3309 82.4159 22.6846 82.6812 23.1268C82.9465 23.569 83.0792 24.0554 83.0792 24.5639C83.0792 25.0725 82.9465 25.5589 82.6812 26.0011C82.4159 26.4433 82.0621 26.7749 81.5978 27.0402C81.1335 27.3055 80.625 27.4161 80.028 27.4161H77.3307V30.9979H75.9377ZM79.9175 26.0674C80.227 26.0674 80.5145 26.0011 80.7577 25.8684C81.0009 25.7358 81.1999 25.5589 81.3325 25.3157C81.4652 25.0946 81.5315 24.8293 81.5315 24.5639C81.5315 24.2986 81.4652 24.0333 81.3325 23.8122C81.1999 23.569 81.0009 23.3921 80.7577 23.2595C80.5145 23.1268 80.227 23.0605 79.9175 23.0605H78.8783C78.5688 23.0605 78.2814 23.1268 78.0382 23.2595C77.795 23.3921 77.596 23.569 77.4633 23.8122C77.3307 24.0333 77.2643 24.2986 77.2643 24.5861C77.2643 24.8735 77.3307 25.1167 77.4633 25.3378C77.596 25.5589 77.795 25.7579 78.0382 25.8905C78.2814 26.0232 78.5688 26.0895 78.8783 26.0895H79.9175V26.0674Z" fill="black"/>
<path d="M88.098 30.9979V26.6423L85.0469 22.751C84.9143 22.5741 84.87 22.3972 84.8921 22.1983C84.9143 21.9993 85.0027 21.8445 85.1796 21.7118C85.3564 21.6013 85.5333 21.5571 85.7102 21.6013C85.9092 21.6455 86.064 21.7561 86.2187 21.9551L89.2256 25.8021H88.4518L91.4808 21.9108C91.6135 21.734 91.7683 21.6455 91.9672 21.6013C92.1441 21.5571 92.321 21.6013 92.4758 21.7118C92.6305 21.8445 92.719 21.9993 92.7411 22.1983C92.7411 22.3972 92.6969 22.5741 92.5642 22.751L89.491 26.6865V31.02H88.098V30.9979Z" fill="black"/>
<path d="M98.7549 31.1305C97.9589 31.1305 97.2735 30.9316 96.6766 30.5115C96.0796 30.0914 95.6153 29.5165 95.3058 28.809C94.9962 28.1015 94.8193 27.2613 94.8193 26.377C94.8193 25.4926 94.9741 24.6524 95.3058 23.9228C95.6374 23.1932 96.0796 22.6404 96.6766 22.2203C97.2735 21.8002 97.9589 21.6013 98.7549 21.6013C99.4182 21.6013 100.015 21.756 100.546 22.0877C101.098 22.4193 101.519 22.8836 101.85 23.4585L100.745 24.2102C100.524 23.8343 100.258 23.5469 99.9046 23.3258C99.5729 23.1047 99.1749 22.9942 98.777 22.9942C98.2906 22.9942 97.8484 23.1489 97.4725 23.4364C97.0966 23.7238 96.8092 24.1218 96.6102 24.6524C96.4112 25.1609 96.3228 25.7358 96.3228 26.3991C96.3228 27.0624 96.4112 27.6151 96.6102 28.1457C96.8092 28.6543 97.0966 29.0522 97.4725 29.3618C97.8484 29.6492 98.2906 29.804 98.777 29.804C99.1971 29.804 99.5729 29.6934 99.9267 29.4723C100.28 29.2512 100.546 28.9417 100.745 28.5658L101.85 29.3175C101.519 29.9145 101.098 30.3788 100.546 30.7105C100.015 31.0421 99.396 31.1969 98.7328 31.1969L98.7549 31.1305Z" fill="black"/>
<path d="M109.345 31.1305C108.947 31.1305 108.594 31.0421 108.262 30.8431C107.93 30.6441 107.687 30.3788 107.488 30.0472C107.311 29.7155 107.201 29.3175 107.201 28.9196V23.7017C107.201 23.4585 107.134 23.2595 106.98 23.0826C106.825 22.9057 106.67 22.8394 106.449 22.8394C106.228 22.8394 106.051 22.9278 105.896 23.0826C105.742 23.2374 105.675 23.4364 105.675 23.7017V31.02H104.282V23.7901C104.282 23.37 104.371 22.9942 104.57 22.6625C104.747 22.3309 105.012 22.0656 105.344 21.8887C105.675 21.7118 106.029 21.6013 106.449 21.6013C106.869 21.6013 107.223 21.6897 107.555 21.8887C107.886 22.0877 108.129 22.3309 108.306 22.6625C108.483 22.9942 108.594 23.37 108.594 23.7901V29.008C108.594 29.2733 108.66 29.4723 108.815 29.6492C108.97 29.8261 109.124 29.8924 109.345 29.8924C109.567 29.8924 109.743 29.804 109.876 29.6492C110.009 29.4944 110.075 29.2733 110.075 29.008V21.7339H111.468V28.9196C111.468 29.3397 111.38 29.7155 111.181 30.0472C111.004 30.3788 110.738 30.6441 110.407 30.8431C110.075 31.0421 109.721 31.1305 109.323 31.1305H109.345Z" fill="black"/>
<path d="M117.46 31.1305C116.708 31.1305 116.067 30.9315 115.514 30.5115C114.961 30.1135 114.519 29.5386 114.21 28.809C113.9 28.0794 113.745 27.2613 113.745 26.3327C113.745 25.4041 113.9 24.5861 114.21 23.8564C114.519 23.1268 114.939 22.5741 115.514 22.154C116.067 21.756 116.73 21.5349 117.46 21.5349C118.189 21.5349 118.853 21.7339 119.428 22.154C119.98 22.552 120.422 23.1268 120.732 23.8564C121.042 24.5861 121.196 25.4041 121.196 26.3327C121.196 27.2613 121.042 28.0794 120.732 28.809C120.422 29.5386 120.002 30.0914 119.428 30.5115C118.875 30.9094 118.212 31.1305 117.46 31.1305ZM117.46 29.7376C117.902 29.7376 118.3 29.605 118.632 29.3175C118.963 29.0301 119.229 28.6321 119.405 28.1236C119.582 27.6151 119.671 27.0181 119.671 26.3548C119.671 25.6915 119.582 25.0946 119.405 24.5861C119.229 24.0775 118.963 23.6796 118.632 23.3921C118.3 23.1047 117.902 22.972 117.46 22.972C117.018 22.972 116.62 23.1047 116.288 23.3921C115.956 23.6796 115.691 24.0775 115.514 24.5861C115.337 25.0946 115.249 25.6915 115.249 26.3548C115.249 27.0181 115.337 27.6151 115.514 28.1236C115.691 28.6321 115.956 29.0301 116.288 29.3175C116.62 29.605 117.018 29.7376 117.46 29.7376Z" fill="black"/>
<path d="M126.967 31.1306C126.215 31.1306 125.574 30.9316 124.999 30.5115C124.446 30.1135 124.004 29.5387 123.695 28.8091C123.385 28.0794 123.23 27.2614 123.23 26.3328C123.23 25.4042 123.385 24.5861 123.695 23.8565C124.004 23.1269 124.424 22.5741 124.999 22.154C125.552 21.7561 126.215 21.5571 126.967 21.5571C127.586 21.5571 128.139 21.7118 128.647 22.0435C129.156 22.353 129.598 22.7952 129.93 23.348L128.78 24.166C128.559 23.7901 128.293 23.5027 127.962 23.2816C127.652 23.0605 127.299 22.95 126.945 22.95C126.503 22.95 126.105 23.0826 125.795 23.3701C125.463 23.6354 125.198 24.0334 125.021 24.5419C124.844 25.0504 124.756 25.6474 124.756 26.3328C124.756 27.0182 124.844 27.6372 125.021 28.1458C125.198 28.6543 125.463 29.0523 125.795 29.3176C126.127 29.5829 126.525 29.7155 126.967 29.7155C127.409 29.7155 127.807 29.5829 128.139 29.3397C128.47 29.0965 128.714 28.7206 128.89 28.2342C129.067 27.7478 129.156 27.195 129.156 26.5539L129.753 26.9518H126.812V25.6474H130.637V26.3328C130.637 27.2614 130.482 28.0794 130.195 28.8091C129.885 29.5387 129.465 30.0914 128.913 30.5115C128.36 30.9095 127.696 31.1306 126.967 31.1306Z" fill="black"/>
<path d="M133.511 30.9979V21.7118H139.149C139.326 21.7118 139.503 21.7781 139.614 21.8887C139.746 22.0213 139.813 22.1761 139.813 22.353C139.813 22.5299 139.746 22.7067 139.614 22.8394C139.481 22.972 139.326 23.0163 139.149 23.0163H135.612C135.391 23.0163 135.214 23.0826 135.081 23.2153C134.948 23.3479 134.882 23.5248 134.882 23.7459V24.8956C134.882 25.1167 134.948 25.2715 135.081 25.4262C135.214 25.5589 135.391 25.6252 135.612 25.6252H138.353C138.53 25.6252 138.707 25.6915 138.818 25.8021C138.95 25.9347 139.017 26.0895 139.017 26.2885C139.017 26.4875 138.95 26.6201 138.818 26.7528C138.685 26.8855 138.53 26.9297 138.353 26.9297H135.634C135.413 26.9297 135.236 26.996 135.081 27.1508C134.948 27.3055 134.86 27.4824 134.86 27.7035V28.9196C134.86 29.1407 134.926 29.3175 135.081 29.4723C135.214 29.6271 135.413 29.6934 135.634 29.6934H139.149C139.326 29.6934 139.503 29.7597 139.614 29.8703C139.746 30.0029 139.813 30.1577 139.813 30.3346C139.813 30.5115 139.746 30.6883 139.614 30.821C139.481 30.9536 139.326 30.9979 139.149 30.9979H133.511Z" fill="black"/>
<path d="M147.551 31.1305C147.153 31.1305 146.799 31.0421 146.468 30.8431C146.136 30.6441 145.893 30.3788 145.694 30.0472C145.517 29.7155 145.406 29.3175 145.406 28.9196V23.7017C145.406 23.4585 145.34 23.2595 145.185 23.0826C145.031 22.9057 144.876 22.8394 144.655 22.8394C144.434 22.8394 144.257 22.9278 144.102 23.0826C143.947 23.2374 143.881 23.4364 143.881 23.7017V31.02H142.488V23.7901C142.488 23.37 142.576 22.9942 142.775 22.6625C142.952 22.3309 143.218 22.0656 143.549 21.8887C143.881 21.7118 144.235 21.6013 144.655 21.6013C145.075 21.6013 145.428 21.6897 145.76 21.8887C146.092 22.0877 146.335 22.3309 146.512 22.6625C146.689 22.9942 146.799 23.37 146.799 23.7901V29.008C146.799 29.2733 146.866 29.4723 147.02 29.6492C147.175 29.8261 147.33 29.8924 147.551 29.8924C147.772 29.8924 147.949 29.804 148.082 29.6492C148.214 29.4944 148.281 29.2733 148.281 29.008V21.7339H149.674V28.9196C149.674 29.3397 149.585 29.7155 149.386 30.0472C149.209 30.3788 148.944 30.6441 148.612 30.8431C148.281 31.0421 147.927 31.1305 147.529 31.1305H147.551Z" fill="black"/>
<path d="M155.665 31.1305C154.914 31.1305 154.272 30.9315 153.72 30.5115C153.167 30.1135 152.725 29.5386 152.415 28.809C152.106 28.0794 151.951 27.2613 151.951 26.3327C151.951 25.4041 152.106 24.5861 152.415 23.8564C152.725 23.1268 153.145 22.5741 153.72 22.154C154.272 21.756 154.936 21.5349 155.665 21.5349C156.395 21.5349 157.058 21.7339 157.633 22.154C158.186 22.552 158.628 23.1268 158.938 23.8564C159.247 24.5861 159.402 25.4041 159.402 26.3327C159.402 27.2613 159.247 28.0794 158.938 28.809C158.628 29.5386 158.208 30.0914 157.633 30.5115C157.08 30.9094 156.417 31.1305 155.665 31.1305ZM155.665 29.7376C156.108 29.7376 156.506 29.605 156.837 29.3175C157.169 29.0301 157.434 28.6321 157.611 28.1236C157.788 27.6151 157.876 27.0181 157.876 26.3548C157.876 25.6915 157.788 25.0946 157.611 24.5861C157.434 24.0775 157.169 23.6796 156.837 23.3921C156.506 23.1047 156.108 22.972 155.665 22.972C155.223 22.972 154.825 23.1047 154.494 23.3921C154.162 23.6796 153.897 24.0775 153.72 24.5861C153.543 25.0946 153.454 25.6915 153.454 26.3548C153.454 27.0181 153.543 27.6151 153.72 28.1236C153.897 28.6321 154.162 29.0301 154.494 29.3175C154.825 29.605 155.223 29.7376 155.665 29.7376Z" fill="black"/>
<path d="M162.166 30.9979V21.7118H163.558V28.7648C163.558 29.0301 163.647 29.2512 163.824 29.4281C164.001 29.605 164.222 29.6934 164.487 29.6934H168.157C168.356 29.6934 168.511 29.7597 168.666 29.8924C168.821 30.025 168.865 30.1798 168.865 30.3567C168.865 30.5557 168.798 30.7104 168.666 30.8431C168.533 30.9758 168.356 31.02 168.157 31.02H162.166V30.9979Z" fill="black"/>
<path d="M174.768 31.1527C174.039 31.1527 173.397 30.9537 172.823 30.5336C172.248 30.1135 171.805 29.5608 171.496 28.8311C171.186 28.1015 171.01 27.2835 171.01 26.3549C171.01 25.4263 171.164 24.6303 171.496 23.9007C171.805 23.1711 172.248 22.6183 172.823 22.1982C173.397 21.7781 174.039 21.5792 174.768 21.5792C175.498 21.5792 176.139 21.7781 176.714 22.1982C177.289 22.6183 177.731 23.1711 178.04 23.9007C178.35 24.6303 178.527 25.4484 178.527 26.3549C178.527 27.2614 178.372 28.1015 178.04 28.8311C177.731 29.5608 177.289 30.1135 176.714 30.5336C176.139 30.9537 175.498 31.1527 174.768 31.1527ZM174.768 30.2904C175.299 30.2904 175.785 30.1135 176.227 29.7819C176.647 29.4502 176.979 28.9638 177.222 28.3668C177.466 27.7699 177.576 27.1066 177.576 26.3549C177.576 25.6031 177.466 24.9619 177.222 24.365C176.979 23.768 176.647 23.3037 176.227 22.95C175.807 22.6183 175.321 22.4414 174.768 22.4414C174.215 22.4414 173.751 22.6183 173.331 22.95C172.911 23.2816 172.579 23.768 172.336 24.365C172.093 24.9619 171.96 25.6252 171.96 26.3549C171.96 27.0845 172.093 27.7699 172.336 28.3668C172.579 28.9638 172.911 29.4281 173.331 29.7819C173.751 30.1135 174.238 30.2904 174.768 30.2904ZM173.176 28.8311V23.8565H174.834C175.321 23.8565 175.741 24.0112 176.073 24.3208C176.404 24.6303 176.559 25.0283 176.559 25.5147C176.559 25.8463 176.471 26.1559 176.316 26.4212C176.161 26.6865 175.918 26.8855 175.653 27.0182L176.647 28.8311H175.63L174.746 27.2171H174.061V28.8311H173.198H173.176ZM174.857 26.3549C175.078 26.3549 175.277 26.2664 175.431 26.1117C175.586 25.9569 175.675 25.7579 175.675 25.5368C175.675 25.3157 175.586 25.1167 175.431 24.9619C175.277 24.8072 175.078 24.7187 174.857 24.7187C174.636 24.7187 174.437 24.8072 174.282 24.9619C174.127 25.1167 174.039 25.3157 174.039 25.5368C174.039 25.7579 174.127 25.9569 174.282 26.1117C174.437 26.2664 174.636 26.3549 174.857 26.3549Z" fill="black"/>
<defs>
<clipPath id="clip0_2_712">
<rect width="194.565" height="53.0633" fill="white" transform="translate(0.742188)"/>
</clipPath>
</defs>
</svg>
