<svg width="242" height="53" viewBox="0 0 242 53" fill="none" xmlns="http://www.w3.org/2000/svg">
<path d="M240.634 23.3993C239.346 12.1755 230.178 2.92682 218.628 1.28902C213.692 0.590551 208.95 1.21677 204.768 2.87865C196.379 6.22649 186.968 6.92497 178.7 3.36035C178.044 3.09541 177.387 2.83048 176.731 2.61371C173.91 1.60213 170.846 1 167.637 1C163.77 1 160.098 1.8189 156.816 3.26401C152.828 5.02223 148.475 5.91339 144.147 5.91339H144.098C140.864 5.91339 137.606 5.4076 134.518 4.4201C134.518 4.4201 134.469 4.4201 134.445 4.4201C133.423 4.08291 132.426 3.72163 131.454 3.2881C128.147 1.8189 124.499 1.02409 120.633 1.02409C116.767 1.02409 113.095 1.84298 109.812 3.2881C101.496 6.97314 91.9638 6.27466 83.5017 2.90273C83.2099 2.78231 82.8695 2.71005 82.5777 2.58963C82.4804 2.56554 82.4075 2.54145 82.3102 2.51737C78.4196 1.19268 74.1399 0.662807 69.6413 1.31311C66.1398 1.8189 62.8814 3.02316 59.9634 4.7573C52.4983 6.97314 44.3523 6.0579 37.0087 3.14358C32.8263 1.4817 28.1089 0.831403 23.1484 1.55396C11.6224 3.14359 2.45508 12.4164 1.16631 23.616C-0.584469 38.8861 11.7196 51.7957 27.1362 51.7957C31.0026 51.7957 34.6743 50.9768 37.9571 49.5317C45.9572 45.9912 55.3433 45.9912 63.3434 49.5317C66.6504 51.0009 70.2979 51.7957 74.1642 51.7957C78.0305 51.7957 81.7023 50.9768 84.985 49.5317C92.9851 45.9912 102.371 45.9912 110.371 49.5317C113.678 51.0009 117.326 51.7957 121.192 51.7957C125.058 51.7957 128.73 50.9768 132.013 49.5317C140.013 45.9912 149.399 45.9912 157.399 49.5317C160.706 51.0009 164.354 51.7957 168.22 51.7957C173.229 51.7957 177.898 50.4229 181.862 48.0625C189.035 45.8467 196.962 46.2561 203.868 49.315C207.175 50.7842 210.822 51.579 214.689 51.579C230.105 51.579 242.385 38.6693 240.659 23.3993H240.634Z" stroke="black" stroke-miterlimit="10"/>
<path d="M26.885 28.685L27.665 21.5H29.195L28.055 31.04C27.98 31.79 27.56 32.15 27.005 32.15C26.435 32.15 26.105 31.805 25.91 30.965L24.65 25.475L23.39 30.965C23.195 31.805 22.865 32.15 22.295 32.15C21.755 32.15 21.335 31.79 21.26 31.04L20.12 21.5H21.695L22.475 28.625L23.585 23.555C23.72 22.94 24.125 22.55 24.665 22.55C25.19 22.55 25.64 22.94 25.775 23.555L26.885 28.685ZM37.7018 32H30.2018V30.515H32.3618C32.8118 30.515 33.1718 30.155 33.1718 29.705V23.78C33.1718 23.345 32.8118 22.985 32.3618 22.985H30.2018V21.5H37.7018V22.985H35.5568C35.1218 22.985 34.7468 23.345 34.7468 23.78V29.705C34.7468 30.155 35.1218 30.515 35.5568 30.515H37.7018V32ZM44.0485 32H42.4735V24.2C42.4735 23.51 41.9335 22.985 41.2435 22.985H38.9785V21.5H47.5285V22.985H45.2785C44.5885 22.985 44.0485 23.51 44.0485 24.2V32ZM50.3053 32H48.7303V21.5H50.3053V24.905C50.3053 25.475 50.7253 25.895 51.2953 25.895H53.8153C54.3853 25.895 54.8053 25.475 54.8053 24.905V21.5H56.3803V32H54.8053V28.37C54.8053 27.8 54.3853 27.38 53.8153 27.38H51.2953C50.7253 27.38 50.3053 27.8 50.3053 28.37V32ZM68.9838 32H67.4088V21.5H72.0438C74.0538 21.5 75.4788 22.94 75.4788 24.725C75.4788 26.51 74.0538 27.95 72.0438 27.95H68.9838V32ZM70.7388 26.42H71.9238C73.0188 26.42 73.7688 25.655 73.7688 24.725C73.7688 23.78 73.0188 23.015 71.9238 23.015H70.7388C69.6438 23.015 68.8938 23.765 68.8938 24.725C68.8938 25.67 69.6438 26.42 70.7388 26.42ZM81.7655 27.74L84.5555 32H82.7105L79.9805 27.8H78.4355V32H76.8605V21.5H81.1205C82.9355 21.5 84.3605 22.895 84.3605 24.65C84.3605 26.18 83.2655 27.455 81.7655 27.74ZM78.3455 24.65C78.3455 25.595 79.0805 26.315 80.1005 26.315H80.9555C81.9155 26.315 82.6655 25.58 82.6655 24.65C82.6655 23.705 81.9155 22.985 80.9555 22.985H80.1005C79.0805 22.985 78.3455 23.69 78.3455 24.65ZM89.7623 32.15C87.2123 32.15 85.5623 29.9 85.5623 26.75C85.5623 23.585 87.2123 21.35 89.7623 21.35C92.3123 21.35 93.9623 23.585 93.9623 26.75C93.9623 29.9 92.3123 32.15 89.7623 32.15ZM89.7623 30.575C91.3223 30.575 92.2673 29 92.2673 26.75C92.2673 24.485 91.3223 22.925 89.7623 22.925C88.2173 22.925 87.2723 24.485 87.2723 26.75C87.2723 29 88.2173 30.575 89.7623 30.575ZM103.474 32H101.719L100.819 29.12H97.2641L96.3641 32H94.6691L97.7891 22.475C98.0291 21.68 98.4641 21.35 99.0791 21.35C99.6791 21.35 100.114 21.68 100.354 22.475L103.474 32ZM99.0491 23.42L97.7141 27.665H100.369L99.0491 23.42ZM110.001 32.15C108.621 32.15 107.586 31.07 107.586 29.63V23.72C107.586 23.165 107.226 22.76 106.746 22.76C106.251 22.76 105.891 23.165 105.891 23.72V32H104.316V23.825C104.316 22.385 105.366 21.35 106.746 21.35C108.126 21.35 109.161 22.385 109.161 23.825V29.735C109.161 30.32 109.521 30.725 110.001 30.725C110.496 30.725 110.841 30.32 110.841 29.735V21.5H112.416V29.63C112.416 31.07 111.381 32.15 110.001 32.15ZM118.463 32H116.888V24.2C116.888 23.51 116.348 22.985 115.658 22.985H113.393V21.5H121.943V22.985H119.693C119.003 22.985 118.463 23.51 118.463 24.2V32ZM124.719 32H123.144V21.5H124.719V24.905C124.719 25.475 125.139 25.895 125.709 25.895H128.229C128.799 25.895 129.219 25.475 129.219 24.905V21.5H130.794V32H129.219V28.37C129.219 27.8 128.799 27.38 128.229 27.38H125.709C125.139 27.38 124.719 27.8 124.719 28.37V32ZM136.271 32.15C133.721 32.15 132.071 29.9 132.071 26.75C132.071 23.585 133.721 21.35 136.271 21.35C138.821 21.35 140.471 23.585 140.471 26.75C140.471 29.9 138.821 32.15 136.271 32.15ZM136.271 30.575C137.831 30.575 138.776 29 138.776 26.75C138.776 24.485 137.831 22.925 136.271 22.925C134.726 22.925 133.781 24.485 133.781 26.75C133.781 29 134.726 30.575 136.271 30.575ZM146.023 32.15C143.308 32.15 141.568 29.825 141.568 26.75C141.568 23.66 143.308 21.35 146.023 21.35C147.508 21.35 148.798 22.13 149.533 23.465L148.273 24.32C147.808 23.51 147.028 22.925 146.053 22.925C144.328 22.925 143.263 24.56 143.263 26.75C143.263 28.94 144.328 30.575 146.053 30.575C147.028 30.575 147.823 29.99 148.273 29.18L149.533 30.02C148.798 31.37 147.523 32.15 146.023 32.15ZM159.015 21.5C159.375 21.77 159.435 22.265 159.135 22.655L155.655 27.11V32H154.08V27.08L150.63 22.67C150.315 22.265 150.405 21.77 150.765 21.5C151.14 21.23 151.62 21.35 151.95 21.785L154.905 25.58L157.89 21.74C158.19 21.365 158.655 21.245 159.015 21.5ZM168.586 32H166.831L165.931 29.12H162.376L161.476 32H159.781L162.901 22.475C163.141 21.68 163.576 21.35 164.191 21.35C164.791 21.35 165.226 21.68 165.466 22.475L168.586 32ZM164.161 23.42L162.826 27.665H165.481L164.161 23.42ZM175.113 32.15C173.733 32.15 172.698 31.07 172.698 29.63V23.72C172.698 23.165 172.338 22.76 171.858 22.76C171.363 22.76 171.003 23.165 171.003 23.72V32H169.428V23.825C169.428 22.385 170.478 21.35 171.858 21.35C173.238 21.35 174.273 22.385 174.273 23.825V29.735C174.273 30.32 174.633 30.725 175.113 30.725C175.608 30.725 175.953 30.32 175.953 29.735V21.5H177.528V29.63C177.528 31.07 176.493 32.15 175.113 32.15ZM186.53 32H179.03V30.515H181.19C181.64 30.515 182 30.155 182 29.705V23.78C182 23.345 181.64 22.985 181.19 22.985H179.03V21.5H186.53V22.985H184.385C183.95 22.985 183.575 23.345 183.575 23.78V29.705C183.575 30.155 183.95 30.515 184.385 30.515H186.53V32ZM191.047 32H188.332V21.5H191.047C193.942 21.5 196.252 23.795 196.252 26.75C196.252 29.69 193.942 32 191.047 32ZM190.657 30.515H190.957C193.042 30.515 194.677 28.865 194.677 26.75C194.677 24.62 193.042 22.985 190.957 22.985H190.657C190.207 22.985 189.832 23.345 189.832 23.84V29.66C189.832 30.14 190.207 30.515 190.657 30.515ZM205.133 32H197.633V30.515H199.793C200.243 30.515 200.603 30.155 200.603 29.705V23.78C200.603 23.345 200.243 22.985 199.793 22.985H197.633V21.5H205.133V22.985H202.988C202.553 22.985 202.178 23.345 202.178 23.78V29.705C202.178 30.155 202.553 30.515 202.988 30.515H205.133V32ZM212.32 32.15C210.94 32.15 209.905 31.07 209.905 29.63V23.72C209.905 23.165 209.545 22.76 209.065 22.76C208.57 22.76 208.21 23.165 208.21 23.72V32H206.635V23.825C206.635 22.385 207.685 21.35 209.065 21.35C210.445 21.35 211.48 22.385 211.48 23.825V29.735C211.48 30.32 211.84 30.725 212.32 30.725C212.815 30.725 213.16 30.32 213.16 29.735V21.5H214.735V29.63C214.735 31.07 213.7 32.15 212.32 32.15ZM223.932 32H215.862V30.47H220.677C221.697 30.47 222.402 29.855 222.402 28.955C222.402 28.055 221.697 27.455 220.677 27.455H219.237C217.437 27.455 216.072 26.255 216.072 24.5C216.072 22.715 217.437 21.5 219.237 21.5H223.932V23.015H219.342C218.397 23.015 217.722 23.63 217.722 24.485C217.722 25.355 218.397 25.97 219.342 25.97H223.932V32Z" fill="black"/>
</svg>
