<svg width="34" height="40" viewBox="0 0 34 40" fill="none" xmlns="http://www.w3.org/2000/svg">
<path d="M2 18H4V20H8V18H10V14H12V10H14V6H16V2H18V6H20V10H22V14H24V18H26V20H30V18H32V26H30V28H28V30H26V32H24V36H20V38H12V36H10V34H8V30H6V28H4V26H2V18Z" fill="white"/>
<path d="M18 1H16M15 2V6M13 6V10M11 10V14M9 14V18M8 19H4M4 17H1V26M3 26V28M5 28V30M7 30V34M9 34V36M11 36V38M12 39H20M20 37H24M25 36V32M27 32V30M29 30V28M31 28V26M33 26V17H30M30 19H26M25 18V14M23 14V10M21 10V6M19 6V2M12 27H14M18 27H20" stroke="black" stroke-width="2"/>
</svg>
