<svg width="45" height="27" viewBox="0 0 45 27" fill="none" xmlns="http://www.w3.org/2000/svg">
<g clip-path="url(#clip0_194_1045)">
<path d="M24.39 0H22.17V2.22H24.39V0Z" fill="black"/>
<path d="M26.61 0H24.39V2.22H26.61V0Z" fill="black"/>
<path d="M28.82 2.21997H26.6V4.43997H28.82V2.21997Z" fill="black"/>
<path d="M31.04 4.42993H28.82V6.64993H31.04V4.42993Z" fill="black"/>
<path d="M33.26 2.21997H31.04V4.43997H33.26V2.21997Z" fill="black"/>
<path d="M35.48 2.21997H33.26V4.43997H35.48V2.21997Z" fill="black"/>
<path d="M37.69 4.42993H35.47V6.64993H37.69V4.42993Z" fill="black"/>
<path d="M39.91 6.6499H37.69V8.8699H39.91V6.6499Z" fill="black"/>
<path d="M42.13 8.87012H39.91V11.0901H42.13V8.87012Z" fill="black"/>
<path d="M44.34 11.0901H42.12V13.3101H44.34V11.0901Z" fill="black"/>
<path d="M44.34 13.3H42.12V15.52H44.34V13.3Z" fill="black"/>
<path d="M44.34 15.52H42.12V17.74H44.34V15.52Z" fill="black"/>
<path d="M42.13 19.95H39.91V22.17H42.13V19.95Z" fill="black"/>
<path d="M42.13 17.74H39.91V19.96H42.13V17.74Z" fill="black"/>
<path d="M39.91 19.95H37.69V22.17H39.91V19.95Z" fill="black"/>
<path d="M37.69 22.1699H35.47V24.3899H37.69V22.1699Z" fill="black"/>
<path d="M35.48 24.3899H33.26V26.6099H35.48V24.3899Z" fill="black"/>
<path d="M33.26 24.3899H31.04V26.6099H33.26V24.3899Z" fill="black"/>
<path d="M31.04 24.3899H28.82V26.6099H31.04V24.3899Z" fill="black"/>
<path d="M28.82 22.1699H26.6V24.3899H28.82V22.1699Z" fill="black"/>
<path d="M26.61 24.3899H24.39V26.6099H26.61V24.3899Z" fill="black"/>
<path d="M24.39 24.3899H22.17V26.6099H24.39V24.3899Z" fill="black"/>
<path d="M22.17 24.3899H19.95V26.6099H22.17V24.3899Z" fill="black"/>
<path d="M19.96 22.1699H17.74V24.3899H19.96V22.1699Z" fill="black"/>
<path d="M17.74 22.1699H15.52V24.3899H17.74V22.1699Z" fill="black"/>
<path d="M15.52 24.3899H13.3V26.6099H15.52V24.3899Z" fill="black"/>
<path d="M13.31 24.3899H11.09V26.6099H13.31V24.3899Z" fill="black"/>
<path d="M11.09 24.3899H8.87V26.6099H11.09V24.3899Z" fill="black"/>
<path d="M8.86999 22.1699H6.64999V24.3899H8.86999V22.1699Z" fill="black"/>
<path d="M6.64999 19.95H4.42999V22.17H6.64999V19.95Z" fill="black"/>
<path d="M4.44 19.95H2.22V22.17H4.44V19.95Z" fill="black"/>
<path d="M4.44 17.74H2.22V19.96H4.44V17.74Z" fill="black"/>
<path d="M2.22 15.52H0V17.74H2.22V15.52Z" fill="black"/>
<path d="M2.22 13.3H0V15.52H2.22V13.3Z" fill="black"/>
<path d="M2.22 11.0901H0V13.3101H2.22V11.0901Z" fill="black"/>
<path d="M4.44 8.87012H2.22V11.0901H4.44V8.87012Z" fill="black"/>
<path d="M6.64999 6.6499H4.42999V8.8699H6.64999V6.6499Z" fill="black"/>
<path d="M8.86999 4.42993H6.64999V6.64993H8.86999V4.42993Z" fill="black"/>
<path d="M11.09 2.21997H8.87V4.43997H11.09V2.21997Z" fill="black"/>
<path d="M13.31 2.21997H11.09V4.43997H13.31V2.21997Z" fill="black"/>
<path d="M15.52 2.21997H13.3V4.43997H15.52V2.21997Z" fill="black"/>
<path d="M17.74 4.42993H15.52V6.64993H17.74V4.42993Z" fill="black"/>
<path d="M19.96 2.21997H17.74V4.43997H19.96V2.21997Z" fill="black"/>
<path d="M22.17 0H19.95V2.22H22.17V0Z" fill="black"/>
</g>
<defs>
<clipPath id="clip0_194_1045">
<rect width="44.34" height="26.6" fill="white"/>
</clipPath>
</defs>
</svg>
