<svg width="36" height="40" viewBox="0 0 36 40" fill="none" xmlns="http://www.w3.org/2000/svg">
<path d="M34.7364 19.0935C33.4394 18.7668 32.1424 18.4402 30.862 18.0809C28.6338 17.4439 26.4389 16.7252 24.3271 15.7615C23.0634 15.1735 22.232 14.2752 21.7331 12.9849C20.619 10.0939 19.9872 7.07228 19.4052 4.05064C19.2223 3.11964 19.0892 2.17232 18.923 1.22499C18.8232 0.620664 18.2745 0.277667 17.7257 0.457332C17.2934 0.604331 17.1437 0.947328 17.0606 1.37199C16.5451 3.95264 16.0629 6.53328 15.4809 9.11393C15.1151 10.7146 14.6329 12.2826 13.9012 13.7852C13.5687 14.4549 13.1031 15.0102 12.4213 15.3532C11.54 15.7942 10.6421 16.2352 9.72758 16.5945C7.00056 17.6562 4.19039 18.4075 1.34698 19.0935C0.698477 19.2568 0.39917 19.5345 0.39917 20.0245C0.39917 20.4982 0.698477 20.7758 1.31372 20.9392C2.94328 21.3802 4.58947 21.7885 6.21903 22.2622C8.19778 22.8501 10.1599 23.5198 12.0223 24.4508C13.0033 24.9408 13.6685 25.6758 14.1008 26.6721C14.8823 28.5178 15.4144 30.4288 15.8301 32.3561C16.2791 34.4957 16.6615 36.6354 17.0772 38.775C17.177 39.314 17.5262 39.5917 18.0084 39.5917C18.4906 39.5917 18.8232 39.265 18.9063 38.7423C19.2389 36.913 19.5548 35.1 19.9373 33.2871C20.3862 31.1637 20.935 29.0731 21.7165 27.0314C22.2153 25.7411 23.0301 24.8101 24.3271 24.2711C24.3604 24.2548 24.4103 24.2385 24.4435 24.2221C26.3059 23.3401 28.268 22.7031 30.2467 22.1315C31.7433 21.7068 33.2564 21.3312 34.7696 20.9228C35.2851 20.7922 35.5678 20.4818 35.5678 20.0082C35.5678 19.5345 35.2851 19.2405 34.7197 19.0935H34.7364Z" stroke="black" stroke-miterlimit="10"/>
</svg>
