<svg width="32" height="45" viewBox="0 0 32 45" fill="none" xmlns="http://www.w3.org/2000/svg">
<path d="M3.17383 7.33618L15.8692 26.5152C15.8692 26.5152 15.9522 26.5661 15.9854 26.5322L31.4356 12.9272" stroke="black" stroke-miterlimit="10"/>
<path d="M6.7251 3.18518L15.9189 26.4982" stroke="black" stroke-miterlimit="10"/>
<path d="M25.4779 3.20215L15.9688 26.4644C15.9688 26.4644 15.9688 26.4813 15.9853 26.4644L28.9961 7.37003" stroke="black" stroke-miterlimit="10"/>
<path d="M11.0732 0.694702L15.9025 26.2611C15.9025 26.2611 15.9689 26.312 15.9689 26.2611L20.8645 0.694702" stroke="black" stroke-miterlimit="10"/>
<path d="M1 12.8763L15.8196 26.4813C15.8196 26.4813 15.9689 26.566 16.0519 26.5321L31.4192 18.4844" stroke="black" stroke-miterlimit="10"/>
<path d="M1.0498 18.5183L15.9192 26.583L15.886 42.9496C15.886 43.2884 16.1515 43.5595 16.4834 43.5595H17.2302C17.5621 43.5595 17.8276 43.2884 17.8276 42.9496V26.888" stroke="black" stroke-miterlimit="10"/>
<path d="M15.9189 26.583L15.9687 0" stroke="black" stroke-miterlimit="10"/>
</svg>
